<svg xmlns="http://www.w3.org/2000/svg" width="375" viewBox="0 0 375 375" height="375" version="1.0"><defs><clipPath id="a"><path d="M 93 125.527344 L 279.574219 125.527344 L 279.574219 259 L 93 259 Z M 93 125.527344"/></clipPath><clipPath id="b"><path d="M 224 170 L 279.574219 170 L 279.574219 259 L 224 259 Z M 224 170"/></clipPath><clipPath id="c"><path d="M 234.585938 238.074219 L 279.574219 238.074219 L 279.574219 259.109375 L 234.585938 259.109375 Z M 234.585938 238.074219"/></clipPath><clipPath id="d"><path d="M 263 194 L 279.574219 194 L 279.574219 208 L 263 208 Z M 263 194"/></clipPath><clipPath id="e"><path d="M 261 169 L 279.574219 169 L 279.574219 186 L 261 186 Z M 261 169"/></clipPath><clipPath id="f"><path d="M 67.753906 256.164062 L 279.574219 256.164062 L 279.574219 258.84375 L 67.753906 258.84375 Z M 67.753906 256.164062"/></clipPath></defs><path fill="#FFF" d="M-37.5 -37.5H412.5V412.5H-37.5z"/><path fill="#FFF" d="M-37.5 -37.5H412.5V412.5H-37.5z"/><path fill="#FFF" d="M-37.5 -37.5H412.5V412.5H-37.5z"/><g clip-path="url(#a)"><path fill="#FFF" d="M 328.535156 65.457031 L 326.628906 31.164062 L 328.535156 30.214844 L 371.40625 86.414062 L 352.351562 132.140625 L 347.585938 141.664062 C 346.632812 126.421875 328.535156 65.457031 328.535156 65.457031 Z M 367.59375 166.429688 L 362.832031 159.761719 C 362.832031 159.761719 364.738281 153.09375 362.832031 148.332031 L 382.839844 123.5625 Z M 818.714844 175.480469 C 807.285156 175.480469 797.757812 188.8125 797.757812 188.8125 L 792.035156 196.4375 C 792.035156 196.4375 788.230469 182.148438 786.320312 179.289062 C 784.417969 176.433594 781.554688 171.667969 772.03125 175.480469 C 762.503906 179.289062 761.550781 201.199219 761.550781 204.054688 C 761.550781 206.914062 759.648438 208.820312 757.738281 211.675781 C 755.835938 214.535156 755.835938 220.25 755.835938 220.25 L 752.023438 221.203125 L 750.121094 218.34375 L 748.210938 218.34375 L 744.40625 209.769531 L 676.757812 206.914062 C 676.757812 206.914062 650.082031 205.960938 636.742188 202.152344 C 623.40625 198.339844 619.59375 196.4375 619.59375 196.4375 C 608.371094 191.386719 555.84375 185.675781 514.558594 181.835938 L 514.316406 181.671875 C 514.261719 181.710938 514.210938 181.757812 514.15625 181.796875 C 508.40625 181.265625 502.882812 180.769531 497.71875 180.3125 C 501.988281 164.625 510.261719 133.800781 509.554688 133.089844 C 508.601562 132.140625 503.835938 133.089844 503.835938 133.089844 L 504.789062 120.707031 C 504.789062 120.707031 515.269531 126.421875 514.316406 118.800781 C 513.363281 111.179688 492.402344 42.597656 475.253906 10.207031 C 458.105469 -22.179688 442.863281 -49.800781 442.863281 -49.800781 C 442.863281 -49.800781 441.910156 -76.472656 419.042969 -87.90625 C 396.175781 -99.335938 352.351562 -98.382812 352.351562 -98.382812 L 325.675781 -138.390625 C 325.675781 -138.390625 333.296875 -139.339844 330.4375 -151.726562 C 327.582031 -164.109375 324.722656 -169.824219 316.144531 -165.0625 C 316.144531 -165.0625 311.382812 -182.207031 300.902344 -180.304688 C 300.902344 -180.304688 303.761719 -192.6875 289.472656 -201.261719 C 275.179688 -209.832031 264.699219 -197.449219 264.699219 -197.449219 C 264.699219 -197.449219 253.265625 -212.691406 238.023438 -204.117188 C 222.777344 -195.542969 227.542969 -183.160156 227.542969 -183.160156 C 227.542969 -183.160156 212.300781 -179.351562 207.535156 -163.15625 C 202.773438 -146.964844 215.15625 -140.296875 215.15625 -140.296875 C 215.15625 -140.296875 210.394531 -131.722656 224.6875 -128.863281 C 224.6875 -128.863281 227.542969 -114.578125 241.835938 -119.339844 C 241.835938 -119.339844 278.992188 -65.996094 305.667969 -78.378906 L 309.476562 -72.664062 C 309.476562 -72.664062 284.707031 -43.132812 278.039062 -21.226562 C 271.371094 0.683594 279.941406 39.738281 279.941406 39.738281 L 286.136719 38.308594 C 286.136719 38.308594 292.804688 59.265625 301.378906 73.554688 C 301.378906 73.554688 298.523438 101.179688 329.960938 143.09375 C 329.960938 143.09375 326.726562 147.855469 323.292969 147.855469 C 322.339844 147.855469 317.574219 149.757812 317.574219 149.757812 L 303.285156 157.378906 C 303.285156 157.378906 295.664062 154.523438 294.710938 158.335938 C 293.757812 162.144531 297.570312 163.097656 297.570312 163.097656 C 297.570312 163.097656 288.996094 163.097656 288.996094 166.90625 C 288.996094 169.019531 290.457031 170.25 291.761719 170.929688 C 276.621094 176.328125 262.320312 185.003906 262.320312 185.003906 L 257.554688 185.003906 L 259.460938 180.242188 C 259.460938 180.242188 243.722656 180.253906 239.453125 183.097656 C 236.59375 185.003906 235.640625 186.910156 235.640625 186.910156 C 233.855469 177.089844 228.722656 171.453125 202.214844 166.863281 C 202.03125 164.21875 201.429688 159.660156 199.4375 158.335938 C 197.179688 156.828125 184.222656 161.863281 178.882812 164.042969 C 163.234375 163.011719 152.753906 164.050781 152.753906 164.050781 C 152.753906 164.050781 155.613281 154.523438 151.800781 151.664062 C 147.992188 148.808594 138.464844 152.617188 138.464844 152.617188 C 135.605469 139.28125 127.402344 128.300781 119.410156 134.519531 C 110.835938 141.1875 112.738281 168.8125 112.738281 168.8125 C 102.257812 165.953125 89.609375 168.09375 94.636719 190.71875 C 98.449219 207.867188 115.597656 227.871094 115.597656 227.871094 C 115.597656 227.871094 104.164062 228.824219 104.164062 233.585938 C 104.164062 238.347656 117.503906 236.441406 117.503906 236.441406 C 117.503906 236.441406 104.164062 253.589844 112.738281 256.449219 C 120.027344 258.875 127.980469 245.015625 127.980469 245.015625 C 132.746094 256.449219 163.269531 259.085938 179.429688 255.492188 C 205.15625 249.777344 202.296875 242.15625 202.296875 242.15625 L 223.730469 239.777344 L 225.636719 246.445312 L 237.070312 243.585938 C 237.070312 243.585938 241.835938 253.113281 258.980469 256.925781 C 276.132812 260.734375 318.054688 255.96875 318.054688 255.96875 C 327.582031 260.734375 344.730469 255.019531 344.730469 255.019531 L 369.464844 252.835938 C 374.734375 255.09375 381.628906 256.046875 389.15625 256.164062 C 404.789062 258.367188 427.558594 254.535156 441.878906 251.496094 C 441.878906 251.496094 453.339844 257.875 468.109375 257.402344 C 470.058594 257.335938 472.097656 257.132812 474.035156 256.871094 C 474.4375 256.890625 474.839844 256.910156 475.253906 256.925781 C 483.023438 257.132812 496.039062 256.355469 509.441406 255.203125 C 544.546875 255.371094 586.140625 255.261719 624.820312 255.0625 C 625.105469 255.160156 625.273438 255.21875 625.273438 255.21875 C 625.273438 255.21875 630.835938 256.703125 634.875 255.007812 C 697.847656 254.644531 750.597656 254.066406 750.597656 254.066406 L 751.546875 249.300781 L 763.933594 248.347656 C 767.742188 258.828125 782.515625 258.351562 787.273438 257.402344 C 792.035156 256.449219 802.523438 245.96875 802.523438 245.96875 C 818.714844 232.632812 830.144531 197.390625 830.144531 191.675781 C 830.144531 185.957031 830.144531 175.480469 818.714844 175.480469"/></g><g clip-path="url(#b)"><path fill="#72D6CA" d="M 364.984375 170.433594 C 364.007812 171.828125 362.785156 173.046875 361.320312 173.96875 C 358.40625 175.792969 354.746094 176.265625 351.683594 178.011719 C 349.457031 179.285156 347.050781 180.703125 344.710938 178.816406 C 343.464844 177.816406 342.863281 176.28125 342.507812 174.703125 C 339.394531 174.753906 336.28125 174.808594 333.171875 174.894531 C 332.800781 175.449219 332.40625 175.988281 331.984375 176.503906 C 331 177.714844 329.691406 178.761719 328.054688 178.726562 C 326.347656 178.691406 325.289062 177.449219 324.695312 176.011719 C 317.40625 179.925781 308.613281 183.296875 306.683594 176.765625 C 299.59375 178.1875 293.242188 178.0625 293.121094 172.980469 C 279.886719 177.539062 267.082031 185.003906 267.082031 185.003906 L 257.554688 185.003906 L 258.808594 181.863281 C 258.808594 181.863281 245.167969 183.097656 240.40625 185.003906 C 235.640625 186.910156 234.691406 191.675781 234.691406 191.675781 L 235.273438 198.492188 C 235.273438 198.492188 230.878906 205.007812 226.113281 223.109375 C 221.351562 241.207031 227.066406 249.777344 227.066406 249.777344 L 236.59375 247.875 C 249.933594 262.164062 278.140625 258.390625 278.140625 258.390625 L 318.054688 255.96875 C 323.769531 258.828125 344.730469 255.96875 344.730469 255.96875 C 337.105469 230.253906 349.496094 215.011719 349.496094 215.011719 L 379.980469 226.441406 C 396.175781 224.539062 451.914062 230.726562 451.914062 230.726562 L 458.582031 196.4375 L 461.4375 180.242188 C 455.71875 175.667969 406.730469 172.121094 364.984375 170.433594"/></g><path fill="#C69C6D" d="M 141.320312 190.71875 C 141.320312 190.71875 160.375 161.191406 156.5625 153.570312 C 152.753906 145.949219 138.464844 156.425781 138.464844 156.425781 C 138.464844 156.425781 130.839844 134.519531 121.3125 137.378906 C 111.785156 140.234375 115.597656 174.527344 115.597656 174.527344 C 115.597656 174.527344 109.882812 170.71875 102.257812 173.574219 C 94.636719 176.433594 95.589844 198.339844 115.597656 227.871094 C 115.597656 227.871094 103.210938 230.726562 104.164062 233.585938 C 105.117188 236.441406 117.503906 236.441406 117.503906 236.441406 C 117.503906 236.441406 107.976562 256.449219 118.457031 257.402344 C 128.933594 258.351562 128.933594 245.96875 128.933594 245.96875 C 128.933594 245.96875 131.96875 255.511719 159.511719 256.933594 C 187.050781 258.351562 207.058594 246.921875 201.34375 239.300781 C 201.34375 239.300781 187.527344 251.210938 178.953125 246.445312 C 170.378906 241.683594 178.953125 226.441406 178.953125 226.441406 L 189.433594 226.441406 C 189.433594 226.441406 190.386719 217.871094 187.527344 216.914062 C 184.671875 215.960938 157.992188 214.058594 157.992188 214.058594 C 157.992188 214.058594 150.371094 195.960938 141.320312 190.71875"/><path d="M 215.039062 169.921875 C 214.261719 169.769531 213.480469 169.617188 212.699219 169.46875 C 212.167969 173.761719 212.476562 178.167969 212.925781 181.480469 C 213.011719 182.109375 213.570312 182.558594 214.195312 182.511719 C 214.21875 182.507812 214.242188 182.503906 214.265625 182.503906 C 214.917969 182.414062 215.375 181.8125 215.285156 181.164062 C 214.933594 178.554688 214.542969 174.195312 215.039062 169.921875"/><g clip-path="url(#c)"><path d="M 281.28125 259.109375 C 259.742188 259.109375 239.972656 255.71875 234.984375 240.140625 C 234.785156 239.515625 235.128906 238.84375 235.753906 238.644531 C 236.378906 238.441406 237.054688 238.789062 237.25 239.414062 C 243.722656 259.632812 279.1875 257.414062 307.6875 255.625 C 311.355469 255.394531 314.824219 255.175781 318.109375 255.019531 C 318.777344 254.960938 319.324219 255.492188 319.355469 256.148438 C 319.390625 256.804688 318.882812 257.363281 318.222656 257.394531 C 314.957031 257.554688 311.5 257.773438 307.835938 258 C 299.292969 258.535156 290.136719 259.109375 281.28125 259.109375"/></g><g clip-path="url(#d)"><path d="M 324.625 207.15625 C 324.515625 207.15625 324.402344 207.140625 324.292969 207.105469 C 321.378906 206.253906 318.453125 205.34375 315.621094 204.460938 C 300.523438 199.75 284.910156 194.882812 265.152344 197.164062 C 264.496094 197.234375 263.910156 196.769531 263.835938 196.117188 C 263.757812 195.464844 264.226562 194.875 264.882812 194.796875 C 285.136719 192.460938 300.996094 197.40625 316.332031 202.1875 C 319.152344 203.066406 322.070312 203.976562 324.960938 204.824219 C 325.59375 205.007812 325.953125 205.671875 325.769531 206.300781 C 325.617188 206.820312 325.140625 207.15625 324.625 207.15625"/></g><path d="M 269.621094 184.097656 C 269.433594 183.621094 268.964844 183.316406 268.453125 183.339844 C 267.632812 183.378906 248.214844 184.320312 242.410156 186.257812 C 238.726562 187.484375 232.453125 199.246094 228.421875 209.6875 C 225.382812 217.558594 218.929688 236.949219 224.601562 247.03125 C 224.8125 247.410156 225.214844 247.636719 225.636719 247.636719 C 225.726562 247.636719 225.816406 247.625 225.90625 247.605469 L 238.289062 244.75 C 238.5625 244.6875 238.777344 244.519531 238.941406 244.320312 C 238.511719 243.695312 238.078125 243.070312 237.636719 242.457031 L 226.273438 245.074219 C 223.210938 238.4375 224.808594 225.660156 230.640625 210.546875 C 235.542969 197.847656 241.238281 189.15625 243.164062 188.515625 C 247.226562 187.160156 259.074219 186.285156 265.039062 185.917969 C 233.445312 213.382812 234.855469 233.3125 234.933594 234.167969 C 234.992188 234.824219 235.574219 235.304688 236.226562 235.246094 C 236.878906 235.1875 237.363281 234.609375 237.304688 233.953125 C 237.285156 233.75 235.839844 213.296875 269.273438 185.445312 C 269.664062 185.117188 269.808594 184.574219 269.621094 184.097656"/><path d="M 223.589844 238.59375 L 202.300781 241.148438 C 202.316406 241.222656 202.332031 241.300781 202.339844 241.375 C 202.398438 242.101562 202.371094 242.835938 202.25 243.554688 L 223.875 240.960938 C 224.527344 240.882812 224.992188 240.289062 224.914062 239.636719 C 224.835938 238.980469 224.238281 238.519531 223.589844 238.59375"/><g clip-path="url(#e)"><path d="M 289.546875 169.695312 C 275.058594 174.988281 262.78125 183.105469 262.132812 183.539062 C 261.585938 183.902344 261.441406 184.644531 261.804688 185.191406 C 262.167969 185.738281 262.90625 185.882812 263.453125 185.519531 C 263.617188 185.414062 276.871094 176.652344 291.847656 171.414062 C 290.972656 170.996094 290.179688 170.441406 289.546875 169.695312"/></g><path d="M 260.902344 179.070312 C 260.667969 178.742188 260.289062 178.5625 259.875 178.578125 C 257.984375 178.675781 241.296875 179.632812 237.308594 182.621094 C 236.710938 183.074219 236.101562 183.875 235.476562 185.019531 C 235.480469 185.054688 235.488281 185.082031 235.488281 185.117188 C 235.492188 187.078125 235.539062 189.035156 235.546875 190.992188 C 235.554688 190.96875 235.570312 190.953125 235.578125 190.929688 C 237.265625 186.027344 238.347656 184.820312 238.738281 184.527344 C 241.105469 182.753906 251.007812 181.542969 258.132812 181.066406 L 256.925781 184.085938 C 256.679688 184.699219 256.976562 185.390625 257.589844 185.632812 C 258.203125 185.878906 258.894531 185.582031 259.136719 184.96875 L 261.042969 180.207031 C 261.195312 179.832031 261.140625 179.402344 260.902344 179.070312"/><path d="M 175.789062 182.953125 C 175.304688 182.925781 174.867188 182.609375 174.714844 182.125 L 171.394531 172.414062 C 171.195312 171.785156 171.546875 171.117188 172.171875 170.917969 C 172.796875 170.71875 173.46875 171.066406 173.667969 171.691406 L 176.984375 181.402344 C 177.183594 182.027344 176.835938 182.699219 176.207031 182.898438 C 176.070312 182.941406 175.925781 182.957031 175.789062 182.953125"/><path d="M 220.84375 224.832031 C 220.609375 224.832031 220.375 224.765625 220.167969 224.625 C 219.628906 224.25 219.492188 223.507812 219.863281 222.96875 C 233.394531 203.34375 237.09375 191.105469 232.644531 180.710938 C 229.425781 173.214844 209.566406 169.746094 202.183594 169.042969 C 201.550781 168.984375 201.078125 168.4375 201.105469 167.800781 C 201.183594 166.207031 201 161.703125 199.292969 160.070312 C 198.835938 159.632812 198.308594 159.453125 197.640625 159.519531 C 194.988281 159.761719 181.785156 163.695312 176.921875 165.1875 C 176.765625 165.234375 176.601562 165.246094 176.441406 165.230469 C 170.761719 164.601562 161.96875 164.828125 157.230469 165.019531 C 156.5625 165.074219 156.019531 164.535156 155.992188 163.878906 C 155.96875 163.21875 156.476562 162.667969 157.136719 162.640625 C 162.917969 162.410156 170.917969 162.253906 176.457031 162.839844 C 178.652344 162.164062 194.160156 157.445312 197.421875 157.148438 C 198.769531 157.023438 199.988281 157.441406 200.9375 158.351562 C 203.128906 160.449219 203.472656 164.714844 203.5 166.792969 C 208.769531 167.402344 230.855469 170.5 234.832031 179.773438 C 239.652344 191.023438 235.886719 203.929688 221.824219 224.320312 C 221.59375 224.65625 221.222656 224.832031 220.84375 224.832031"/><path d="M 128.457031 242.394531 C 128.578125 242.394531 128.699219 242.414062 128.820312 242.453125 C 129.355469 242.625 129.703125 243.144531 129.644531 243.703125 C 129.640625 243.773438 129.289062 252.171875 149.570312 254.792969 C 178.1875 258.476562 195.207031 249.925781 198.199219 247.4375 C 201.21875 244.917969 201.34375 242.679688 201 241.339844 C 195.722656 246.335938 186.160156 249.539062 180.273438 248.0625 C 177.367188 247.332031 175.523438 245.542969 174.933594 242.894531 C 172.945312 233.945312 177.738281 226.136719 177.945312 225.8125 C 178.160156 225.460938 178.542969 225.25 178.953125 225.25 L 188.359375 225.25 C 188.554688 222.574219 188.285156 219.109375 187.019531 218.472656 C 185.074219 217.5 168.046875 215.960938 157.769531 215.21875 C 157.328125 215.183594 156.941406 214.910156 156.761719 214.507812 C 156.691406 214.339844 149.320312 197.667969 140.234375 192.21875 C 139.679688 191.886719 139.488281 191.175781 139.804688 190.613281 C 139.851562 190.53125 144.277344 182.652344 147.816406 173.988281 C 152.277344 163.058594 153.410156 155.59375 151.003906 152.96875 C 148.839844 150.609375 143.515625 152.324219 139.433594 154.175781 C 139.101562 154.328125 138.722656 154.320312 138.402344 154.15625 C 138.078125 153.992188 137.847656 153.691406 137.773438 153.335938 C 137.746094 153.199219 134.839844 139.640625 128.078125 135.3125 C 126.179688 134.097656 124.210938 133.753906 122.058594 134.25 C 112.753906 136.394531 113.371094 160.171875 114.398438 169.152344 C 114.449219 169.597656 114.246094 170.039062 113.863281 170.285156 C 113.488281 170.53125 113.003906 170.542969 112.617188 170.316406 C 112.191406 170.070312 102.121094 164.40625 96.140625 174.648438 C 93.433594 179.289062 94.933594 188.90625 100.257812 201.035156 C 104.730469 211.226562 111.414062 221.925781 116.515625 227.050781 C 116.828125 227.363281 116.941406 227.820312 116.8125 228.238281 C 116.683594 228.660156 116.332031 228.976562 115.902344 229.058594 C 112.65625 229.699219 107.078125 231.394531 105.925781 233.203125 C 105.753906 233.476562 105.765625 233.644531 105.796875 233.773438 C 106.1875 235.339844 112.9375 235.421875 118.707031 234.445312 C 119.214844 234.363281 119.71875 234.613281 119.960938 235.066406 C 120.203125 235.523438 120.121094 236.082031 119.757812 236.449219 C 117.253906 239.023438 110.835938 246.804688 111.230469 251.84375 C 111.335938 253.175781 111.90625 254.214844 112.976562 255.019531 C 113.730469 255.585938 114.566406 255.761719 115.523438 255.5625 C 119.992188 254.625 125.625 246.175781 127.421875 243.003906 C 127.640625 242.621094 128.039062 242.394531 128.457031 242.394531 Z M 163.511719 258.09375 C 159.125 258.09375 154.375 257.8125 149.265625 257.152344 C 134.261719 255.214844 129.464844 250.09375 127.949219 246.691406 C 125.535156 250.382812 120.6875 256.910156 116.015625 257.890625 C 114.367188 258.234375 112.867188 257.910156 111.550781 256.925781 C 109.917969 255.703125 109.011719 254.054688 108.855469 252.027344 C 108.464844 246.976562 113.023438 240.65625 115.871094 237.242188 C 111.25 237.742188 104.363281 237.863281 103.484375 234.351562 C 103.28125 233.535156 103.429688 232.695312 103.917969 231.925781 C 105.445312 229.519531 110.480469 227.933594 113.394531 227.191406 C 103.46875 215.890625 87.242188 185.175781 94.085938 173.453125 C 99.542969 164.097656 108.019531 165.914062 111.835938 167.363281 C 111.210938 159.835938 110.003906 134.589844 121.523438 131.929688 C 124.292969 131.289062 126.933594 131.753906 129.363281 133.308594 C 135.644531 137.332031 138.792969 147.628906 139.765625 151.433594 C 146.113281 148.777344 150.371094 148.753906 152.757812 151.359375 C 159.453125 158.660156 145.785156 184.691406 142.429688 190.796875 C 150.742188 196.480469 157.195312 209.738281 158.648438 212.894531 C 164.4375 213.320312 185.273438 214.933594 188.085938 216.34375 C 191.546875 218.082031 190.800781 225.1875 190.613281 226.597656 C 190.539062 227.191406 190.03125 227.632812 189.433594 227.632812 L 179.648438 227.632812 C 178.660156 229.484375 175.769531 235.679688 177.257812 242.375 C 177.652344 244.136719 178.824219 245.242188 180.851562 245.75 C 186.277344 247.117188 196.136719 243.476562 200.382812 238.542969 C 201.730469 236.984375 202.308594 235.339844 202.148438 233.523438 C 201.769531 229.199219 197.300781 225.496094 197.257812 225.457031 C 196.746094 225.042969 196.667969 224.292969 197.085938 223.785156 C 197.503906 223.277344 198.25 223.199219 198.761719 223.613281 C 198.976562 223.789062 204.046875 227.972656 204.519531 233.304688 C 204.710938 235.484375 204.121094 237.519531 202.761719 239.378906 C 203.585938 241.054688 204.730469 245.089844 199.722656 249.265625 C 196.527344 251.929688 184.015625 258.089844 163.511719 258.09375"/><path d="M 168.472656 189.527344 C 168.183594 189.527344 167.898438 189.425781 167.667969 189.214844 C 167.132812 188.71875 154.621094 177.035156 159.355469 169.152344 C 159.695312 168.585938 160.425781 168.40625 160.988281 168.742188 C 161.550781 169.082031 161.734375 169.8125 161.398438 170.375 C 158.292969 175.546875 166.035156 184.464844 169.28125 187.464844 C 169.765625 187.910156 169.792969 188.664062 169.347656 189.144531 C 169.113281 189.398438 168.792969 189.527344 168.472656 189.527344"/><g clip-path="url(#f)"><path d="M 877.847656 258.589844 L 68.945312 258.589844 C 68.289062 258.589844 67.753906 258.058594 67.753906 257.402344 C 67.753906 256.742188 68.289062 256.210938 68.945312 256.210938 L 877.847656 256.210938 C 878.503906 256.210938 879.039062 256.742188 879.039062 257.402344 C 879.039062 258.058594 878.503906 258.589844 877.847656 258.589844"/></g><g><g><g><path d="M 14.933594 -18.027344 L 14.933594 -4.65625 L 4.929688 -18.027344 L 1.984375 -18.027344 L 1.984375 0 L 4.929688 0 L 4.929688 -13.402344 L 14.902344 0 L 17.847656 0 L 17.847656 -18.027344 Z M 14.933594 -18.027344" transform="translate(.018 106.917)"/></g></g></g><g><g><g><path d="M 12.921875 0 L 16.105469 0 L 9.585938 -18.027344 L 6.308594 -18.027344 L -0.210938 0 L 2.976562 0 L 4.265625 -3.816406 L 11.628906 -3.816406 Z M 5.136719 -6.398438 L 7.960938 -14.8125 L 10.789062 -6.398438 Z M 5.136719 -6.398438" transform="translate(19.848 106.917)"/></g></g></g><g><g><g><path d="M 7 0.242188 C 10.246094 0.242188 12.890625 -1.683594 12.890625 -4.929688 C 12.890625 -11.328125 4.355469 -9.765625 4.355469 -13.460938 C 4.355469 -14.875 5.46875 -15.535156 6.789062 -15.535156 C 7.992188 -15.535156 9.074219 -14.992188 9.886719 -13.972656 L 11.960938 -15.867188 C 10.816406 -17.277344 8.925781 -18.269531 6.789062 -18.269531 C 3.964844 -18.269531 1.414062 -16.496094 1.414062 -13.25 C 1.414062 -7.273438 9.945312 -8.742188 9.945312 -4.929688 C 9.945312 -3.457031 8.714844 -2.585938 7.03125 -2.585938 C 5.199219 -2.585938 3.816406 -3.605469 3.183594 -5.136719 L 0.660156 -3.605469 C 1.710938 -1.351562 4.117188 0.242188 7 0.242188 Z M 7 0.242188" transform="translate(35.741 106.917)"/></g></g></g><g><g><g><path d="M 12.921875 0 L 16.105469 0 L 9.585938 -18.027344 L 6.308594 -18.027344 L -0.210938 0 L 2.976562 0 L 4.265625 -3.816406 L 11.628906 -3.816406 Z M 5.136719 -6.398438 L 7.960938 -14.8125 L 10.789062 -6.398438 Z M 5.136719 -6.398438" transform="translate(49.382 106.917)"/></g></g></g><g><g><g><path d="M 4.929688 -2.734375 L 4.929688 -18.027344 L 1.984375 -18.027344 L 1.984375 0 L 11.269531 0 L 11.269531 -2.734375 Z M 4.929688 -2.734375" transform="translate(65.276 106.917)"/></g></g></g><g><g><g><path d="M 7 0.242188 C 10.246094 0.242188 12.890625 -1.683594 12.890625 -4.929688 C 12.890625 -11.328125 4.355469 -9.765625 4.355469 -13.460938 C 4.355469 -14.875 5.46875 -15.535156 6.789062 -15.535156 C 7.992188 -15.535156 9.074219 -14.992188 9.886719 -13.972656 L 11.960938 -15.867188 C 10.816406 -17.277344 8.925781 -18.269531 6.789062 -18.269531 C 3.964844 -18.269531 1.414062 -16.496094 1.414062 -13.25 C 1.414062 -7.273438 9.945312 -8.742188 9.945312 -4.929688 C 9.945312 -3.457031 8.714844 -2.585938 7.03125 -2.585938 C 5.199219 -2.585938 3.816406 -3.605469 3.183594 -5.136719 L 0.660156 -3.605469 C 1.710938 -1.351562 4.117188 0.242188 7 0.242188 Z M 7 0.242188" transform="translate(83.904 106.917)"/></g></g></g><g><g><g><path d="M 9.042969 -18.027344 L 1.984375 -18.027344 L 1.984375 0 L 4.929688 0 L 4.929688 -7.664062 L 9.042969 -7.664062 C 11.960938 -7.664062 14.242188 -9.886719 14.242188 -12.800781 C 14.242188 -15.683594 11.960938 -18.027344 9.042969 -18.027344 Z M 8.625 -10.214844 L 4.929688 -10.214844 L 4.929688 -15.355469 L 8.625 -15.355469 C 10.1875 -15.355469 11.359375 -14.332031 11.359375 -12.769531 C 11.359375 -11.179688 10.1875 -10.214844 8.625 -10.214844 Z M 8.625 -10.214844" transform="translate(97.545 106.917)"/></g></g></g><g><g><g><path d="M 10.335938 -7.84375 C 12.589844 -8.324219 14.242188 -10.304688 14.242188 -12.742188 C 14.242188 -15.683594 11.960938 -18.027344 9.042969 -18.027344 L 1.984375 -18.027344 L 1.984375 0 L 4.929688 0 L 4.929688 -7.570312 L 7.421875 -7.570312 L 12.199219 0 L 15.503906 0 Z M 4.929688 -10.125 L 4.929688 -15.292969 L 8.683594 -15.292969 C 10.214844 -15.292969 11.359375 -14.242188 11.359375 -12.710938 C 11.359375 -11.179688 10.214844 -10.125 8.683594 -10.125 Z M 4.929688 -10.125" transform="translate(112.087 106.917)"/></g></g></g><g><g><g><path d="M 12.921875 0 L 16.105469 0 L 9.585938 -18.027344 L 6.308594 -18.027344 L -0.210938 0 L 2.976562 0 L 4.265625 -3.816406 L 11.628906 -3.816406 Z M 5.136719 -6.398438 L 7.960938 -14.8125 L 10.789062 -6.398438 Z M 5.136719 -6.398438" transform="translate(127.65 106.917)"/></g></g></g><g><g><g><path d="M 15.355469 -18.027344 L 11.960938 -18.027344 L 7.601562 -11.238281 L 3.273438 -18.027344 L -0.179688 -18.027344 L 6.128906 -8.472656 L 6.128906 0 L 9.074219 0 L 9.074219 -8.535156 Z M 15.355469 -18.027344" transform="translate(143.544 106.917)"/></g></g></g><g><g><g><path d="M 12.921875 0 L 16.105469 0 L 9.585938 -18.027344 L 6.308594 -18.027344 L -0.210938 0 L 2.976562 0 L 4.265625 -3.816406 L 11.628906 -3.816406 Z M 5.136719 -6.398438 L 7.960938 -14.8125 L 10.789062 -6.398438 Z M 5.136719 -6.398438" transform="translate(165.928 106.917)"/></g></g></g><g><g><g><path d="M 1.984375 0 L 7.390625 0 C 12.378906 0 16.40625 -4.027344 16.40625 -9.015625 C 16.40625 -14.003906 12.378906 -18.027344 7.390625 -18.027344 L 1.984375 -18.027344 Z M 4.898438 -2.734375 L 4.898438 -15.292969 L 7.390625 -15.292969 C 10.816406 -15.292969 13.492188 -12.621094 13.492188 -9.015625 C 13.492188 -5.410156 10.816406 -2.734375 7.390625 -2.734375 Z M 4.898438 -2.734375" transform="translate(181.822 106.917)"/></g></g></g><g><g><g><path d="M 17.789062 -18.027344 L 11.449219 -3.90625 L 5.136719 -18.027344 L 1.984375 -18.027344 L 1.984375 0 L 4.929688 0 L 4.929688 -12.410156 L 10.457031 0 L 12.410156 0 L 18 -12.441406 L 18 0 L 20.914062 0 L 20.914062 -18.027344 Z M 17.789062 -18.027344" transform="translate(199.518 106.917)"/></g></g></g><g><g><g><path d="M 2.132812 0 L 5.078125 0 L 5.078125 -18.027344 L 2.132812 -18.027344 Z M 2.132812 0" transform="translate(222.413 106.917)"/></g></g></g><g><g><g><path d="M 14.933594 -18.027344 L 14.933594 -4.65625 L 4.929688 -18.027344 L 1.984375 -18.027344 L 1.984375 0 L 4.929688 0 L 4.929688 -13.402344 L 14.902344 0 L 17.847656 0 L 17.847656 -18.027344 Z M 14.933594 -18.027344" transform="translate(229.594 106.917)"/></g></g></g><g><g><g><path d="M 2.132812 0 L 5.078125 0 L 5.078125 -18.027344 L 2.132812 -18.027344 Z M 2.132812 0" transform="translate(249.424 106.917)"/></g></g></g><g><g><g><path d="M 7 0.242188 C 10.246094 0.242188 12.890625 -1.683594 12.890625 -4.929688 C 12.890625 -11.328125 4.355469 -9.765625 4.355469 -13.460938 C 4.355469 -14.875 5.46875 -15.535156 6.789062 -15.535156 C 7.992188 -15.535156 9.074219 -14.992188 9.886719 -13.972656 L 11.960938 -15.867188 C 10.816406 -17.277344 8.925781 -18.269531 6.789062 -18.269531 C 3.964844 -18.269531 1.414062 -16.496094 1.414062 -13.25 C 1.414062 -7.273438 9.945312 -8.742188 9.945312 -4.929688 C 9.945312 -3.457031 8.714844 -2.585938 7.03125 -2.585938 C 5.199219 -2.585938 3.816406 -3.605469 3.183594 -5.136719 L 0.660156 -3.605469 C 1.710938 -1.351562 4.117188 0.242188 7 0.242188 Z M 7 0.242188" transform="translate(256.605 106.917)"/></g></g></g><g><g><g><path d="M 12.53125 -18.027344 L 0.0585938 -18.027344 L 0.0585938 -15.292969 L 4.835938 -15.292969 L 4.835938 0 L 7.753906 0 L 7.753906 -15.292969 L 12.53125 -15.292969 Z M 12.53125 -18.027344" transform="translate(270.245 106.917)"/></g></g></g><g><g><g><path d="M 10.335938 -7.84375 C 12.589844 -8.324219 14.242188 -10.304688 14.242188 -12.742188 C 14.242188 -15.683594 11.960938 -18.027344 9.042969 -18.027344 L 1.984375 -18.027344 L 1.984375 0 L 4.929688 0 L 4.929688 -7.570312 L 7.421875 -7.570312 L 12.199219 0 L 15.503906 0 Z M 4.929688 -10.125 L 4.929688 -15.292969 L 8.683594 -15.292969 C 10.214844 -15.292969 11.359375 -14.242188 11.359375 -12.710938 C 11.359375 -11.179688 10.214844 -10.125 8.683594 -10.125 Z M 4.929688 -10.125" transform="translate(282.834 106.917)"/></g></g></g><g><g><g><path d="M 12.921875 0 L 16.105469 0 L 9.585938 -18.027344 L 6.308594 -18.027344 L -0.210938 0 L 2.976562 0 L 4.265625 -3.816406 L 11.628906 -3.816406 Z M 5.136719 -6.398438 L 7.960938 -14.8125 L 10.789062 -6.398438 Z M 5.136719 -6.398438" transform="translate(298.398 106.917)"/></g></g></g><g><g><g><path d="M 12.53125 -18.027344 L 0.0585938 -18.027344 L 0.0585938 -15.292969 L 4.835938 -15.292969 L 4.835938 0 L 7.753906 0 L 7.753906 -15.292969 L 12.53125 -15.292969 Z M 12.53125 -18.027344" transform="translate(314.291 106.917)"/></g></g></g><g><g><g><path d="M 2.132812 0 L 5.078125 0 L 5.078125 -18.027344 L 2.132812 -18.027344 Z M 2.132812 0" transform="translate(326.88 106.917)"/></g></g></g><g><g><g><path d="M 10.546875 0.242188 C 15.65625 0.242188 19.800781 -3.90625 19.800781 -9.015625 C 19.800781 -14.121094 15.65625 -18.269531 10.546875 -18.269531 C 5.4375 -18.269531 1.292969 -14.121094 1.292969 -9.015625 C 1.292969 -3.90625 5.4375 0.242188 10.546875 0.242188 Z M 10.546875 -2.675781 C 7 -2.675781 4.207031 -5.4375 4.207031 -9.015625 C 4.207031 -12.589844 7 -15.355469 10.546875 -15.355469 C 14.121094 -15.355469 16.886719 -12.589844 16.886719 -9.015625 C 16.886719 -5.4375 14.121094 -2.675781 10.546875 -2.675781 Z M 10.546875 -2.675781" transform="translate(334.061 106.917)"/></g></g></g><g><g><g><path d="M 14.933594 -18.027344 L 14.933594 -4.65625 L 4.929688 -18.027344 L 1.984375 -18.027344 L 1.984375 0 L 4.929688 0 L 4.929688 -13.402344 L 14.902344 0 L 17.847656 0 L 17.847656 -18.027344 Z M 14.933594 -18.027344" transform="translate(355.153 106.917)"/></g></g></g></svg>