<svg xmlns="http://www.w3.org/2000/svg" width="375" viewBox="0 0 375 375" height="375" version="1.0"><defs><clipPath id="a"><path d="M 15.066406 269.777344 L 359.863281 269.777344 L 359.863281 270.894531 L 15.066406 270.894531 Z M 15.066406 269.777344"/></clipPath></defs><path fill="#FFF" d="M-37.5 -37.5H412.5V412.5H-37.5z"/><path fill="#FFF" d="M-37.5 -37.5H412.5V412.5H-37.5z"/><path fill="#FFF" d="M-37.5 -37.5H412.5V412.5H-37.5z"/><g clip-path="url(#a)"><path d="M 359.355469 270.894531 L 15.574219 270.894531 C 15.292969 270.894531 15.066406 270.664062 15.066406 270.386719 C 15.066406 270.105469 15.292969 269.878906 15.574219 269.878906 L 359.355469 269.878906 C 359.636719 269.878906 359.863281 270.105469 359.863281 270.386719 C 359.863281 270.664062 359.636719 270.894531 359.355469 270.894531"/></g><path fill="#F2F2F2" d="M 58.480469 233.082031 L 63.714844 231.492188 C 61.660156 231.121094 60.910156 229.839844 60.910156 229.839844 C 57.671875 225.785156 56.140625 228.507812 56.140625 228.507812 C 58.25 228.394531 58.480469 233.082031 58.480469 233.082031"/><path fill="#FFF" d="M 345.5625 235.109375 C 340.703125 235.109375 336.652344 240.785156 336.652344 240.785156 L 334.226562 244.03125 C 334.226562 244.03125 332.605469 237.949219 331.792969 236.730469 C 330.984375 235.515625 329.769531 233.488281 325.71875 235.109375 C 321.671875 236.730469 321.265625 246.058594 321.265625 247.273438 C 321.265625 248.488281 320.457031 249.300781 319.648438 250.519531 C 318.835938 251.734375 318.835938 254.167969 318.835938 254.167969 L 317.21875 254.570312 L 316.40625 253.355469 L 315.597656 253.355469 L 313.976562 249.707031 L 285.230469 248.488281 C 285.230469 248.488281 273.890625 248.085938 268.222656 246.464844 C 262.554688 244.839844 260.933594 244.03125 260.933594 244.03125 C 252.835938 240.382812 194.125 235.921875 194.125 235.921875 C 193.808594 234.972656 184.980469 233.960938 173.851562 233.128906 C 173.796875 233.078125 173.742188 233.03125 173.6875 232.980469 C 172.546875 229.683594 170.136719 222.75 169.832031 222.132812 C 169.425781 221.324219 166.589844 223.757812 166.589844 223.757812 L 164.566406 219.703125 C 164.566406 219.703125 164.972656 219.296875 165.375 218.484375 C 165.78125 217.675781 159.304688 208.753906 154.445312 205.105469 C 149.585938 201.457031 147.15625 198.210938 129.746094 192.535156 C 112.332031 186.859375 98.972656 190.101562 98.972656 190.101562 C 97.351562 186.046875 94.113281 186.859375 94.113281 186.859375 C 94.113281 186.859375 93.300781 179.5625 86.417969 177.128906 C 79.535156 174.695312 76.296875 180.777344 76.296875 180.777344 C 76.296875 180.777344 73.460938 175.910156 65.769531 177.9375 C 58.074219 179.964844 60.910156 188.074219 60.910156 188.074219 C 60.910156 188.074219 52.40625 185.640625 49.167969 194.15625 C 45.929688 202.671875 52.8125 205.511719 52.8125 205.511719 C 50.785156 209.160156 53.214844 211.1875 53.214844 211.1875 C 53.214844 211.1875 50.382812 214.027344 47.953125 216.457031 C 45.523438 218.890625 34.589844 237.949219 34.589844 237.949219 L 36.617188 238.757812 C 36.617188 238.757812 30.542969 252.949219 30.136719 255.789062 C 29.730469 258.625 27.707031 268.761719 35.402344 269.980469 C 41.222656 270.898438 45.417969 265.09375 47.113281 262.210938 C 47.214844 262.191406 47.316406 262.171875 47.414062 262.152344 C 50.242188 264.121094 52.40625 264.707031 52.40625 264.707031 C 52.40625 264.707031 45.523438 268.359375 49.167969 269.574219 C 52.265625 270.609375 54.835938 267.546875 54.835938 267.546875 C 56.859375 269.980469 66.996094 270.699219 73.867188 269.167969 C 84.800781 266.738281 88.847656 260.25 88.847656 260.25 L 92.492188 260.65625 L 93.503906 265.316406 L 98.363281 264.101562 C 98.363281 264.101562 100.386719 268.15625 107.675781 269.777344 C 114.964844 271.398438 132.78125 269.371094 132.78125 269.371094 C 136.832031 271.398438 144.117188 268.964844 144.117188 268.964844 L 157.683594 267.953125 C 157.683594 267.953125 162.125 269.761719 164.617188 269.628906 C 169.96875 270.046875 176.757812 269.128906 182.125 268.125 C 183.007812 268.023438 184.804688 267.644531 185.621094 267.546875 C 186.0625 267.914062 187.648438 269.082031 190.480469 269.574219 C 192.085938 269.855469 195.746094 269.574219 195.746094 269.574219 C 201.414062 270.792969 203.234375 268.964844 203.234375 268.964844 C 208.9375 269.023438 215.34375 269.058594 222.128906 269.070312 C 222.511719 269.164062 224.324219 269.554688 225.816406 269.078125 C 265.777344 269.121094 316.609375 268.5625 316.609375 268.5625 L 317.015625 266.535156 L 322.28125 266.128906 C 323.898438 270.589844 330.171875 270.386719 332.199219 269.980469 C 334.226562 269.574219 338.679688 265.113281 338.679688 265.113281 C 345.5625 259.4375 350.417969 244.433594 350.417969 242.003906 C 350.417969 239.570312 350.417969 235.109375 345.5625 235.109375"/><path fill="#C69C6D" d="M 98.972656 191.320312 C 98.972656 191.320312 113.546875 187.667969 134.199219 195.375 C 154.363281 202.894531 165.171875 217.273438 164.058594 219.5 L 157.699219 223.886719 C 157.699219 223.886719 156.671875 219.5 151.40625 215.851562 C 146.144531 212.199219 134.804688 208.957031 134.804688 208.957031 C 134.804688 208.957031 128.328125 214.632812 128.730469 220.714844 L 112.941406 227.609375 C 112.941406 227.609375 104.84375 222.742188 103.222656 223.148438 C 101.601562 223.554688 98.769531 225.175781 98.769531 225.175781 C 98.769531 225.175781 100.792969 216.253906 99.578125 212.199219 C 99.578125 212.199219 105.246094 210.171875 104.03125 204.902344 C 102.816406 199.632812 99.984375 199.226562 99.984375 199.226562 C 99.984375 199.226562 99.984375 196.386719 98.363281 194.359375 C 98.363281 194.359375 99.171875 191.925781 98.972656 191.320312"/><path fill="#C69C6D" d="M 36.617188 238.757812 C 36.617188 238.757812 44.308594 222.945312 48.359375 218.484375 C 52.40625 214.027344 56.050781 210.78125 56.050781 210.78125 L 63.253906 211.96875 C 63.253906 211.96875 67.996094 219.328125 71.945312 223.976562 L 66.289062 222.941406 C 66.289062 222.941406 59.050781 223.960938 57.652344 224.769531 C 56.253906 225.582031 53.417969 234.097656 53.417969 234.097656 L 42.910156 243.152344 L 36.617188 238.757812"/><path fill="#666" d="M 65.707031 215.640625 C 65.363281 215.648438 60.101562 218.078125 57.265625 212.402344 C 57.265625 212.402344 50.382812 211.1875 54.429688 205.105469 C 54.429688 205.105469 47.953125 201.859375 50.382812 194.5625 C 52.8125 187.265625 62.53125 188.886719 62.53125 188.886719 C 62.53125 188.886719 59.289062 180.777344 66.984375 177.9375 C 74.675781 175.101562 77.914062 181.183594 77.914062 181.183594 C 77.914062 181.183594 81.4375 176.007812 87.796875 177.492188 C 94.921875 179.15625 94.921875 186.859375 94.921875 186.859375 C 94.921875 186.859375 97.148438 185.519531 98.667969 189.433594 C 100.1875 193.347656 98.160156 194.5625 98.160156 194.5625 C 98.160156 194.5625 100.148438 195.851562 100.371094 199.058594 C 100.371094 199.058594 97.757812 198.210938 95.328125 203.078125 C 95.328125 203.078125 96.945312 210.78125 94.515625 210.375 C 92.085938 209.972656 85.8125 200.441406 85.8125 200.441406 C 85.8125 200.441406 81.359375 202.46875 78.523438 198.820312 C 78.523438 198.820312 71.5 212.402344 63.472656 212.300781 L 65.707031 215.640625"/><path fill="#29ABE2" d="M 157.277344 224.164062 L 164.566406 219.703125 L 166.589844 223.757812 C 166.589844 223.757812 169.019531 221.324219 170.234375 222.539062 C 171.449219 223.757812 173.878906 233.082031 173.878906 233.082031 L 153.277344 231.886719 C 153.277344 231.886719 156.246094 231.550781 156.964844 229.070312 C 157.683594 226.59375 157.277344 224.164062 157.277344 224.164062"/><path fill="#29ABE2" d="M 318.433594 253.761719 C 318.433594 253.761719 318.027344 251.734375 319.648438 250.519531 C 321.265625 249.300781 321.265625 247.273438 321.265625 247.273438 C 321.265625 247.273438 321.671875 237.949219 324.910156 235.515625 C 324.910156 235.515625 327.339844 236.328125 328.957031 235.921875 C 328.957031 235.921875 331.792969 241.191406 331.792969 246.464844 C 331.792969 246.464844 335.785156 242.574219 337.433594 240.058594 C 339.082031 237.542969 343.949219 235.398438 343.949219 235.398438 C 343.949219 235.398438 343.132812 238.757812 348.394531 240.785156 C 348.394531 240.785156 347.988281 249.707031 341.917969 257.410156 C 335.84375 265.113281 332.605469 269.167969 329.363281 269.980469 C 326.125 270.792969 322.074219 267.953125 322.074219 265.925781 L 325.113281 265.722656 C 325.113281 265.722656 329.160156 262.074219 327.949219 257.613281 C 326.734375 253.152344 325.519531 253.964844 325.519531 253.964844 L 322.28125 256.800781 L 321.46875 256.800781 L 322.28125 254.371094 C 322.28125 254.371094 321.46875 252.34375 320.660156 252.746094 C 319.851562 253.152344 318.230469 253.964844 318.433594 253.761719"/><path fill="#666" d="M 193.71875 237.136719 C 193.71875 237.136719 253.648438 242.40625 258.910156 244.839844 C 264.175781 247.273438 290.074219 252.226562 309.113281 253.195312 L 289.277344 250.113281 L 314.824219 251.078125 L 315.191406 253.761719 C 315.191406 253.761719 316.40625 253.355469 317.21875 254.976562 C 318.027344 256.601562 316.8125 268.761719 316.40625 269.574219 C 316.003906 270.386719 203.042969 269.539062 203.042969 269.539062 L 204.449219 267.34375 C 204.449219 267.34375 207.691406 266.9375 207.691406 264.914062 C 207.691406 264.914062 210.929688 264.507812 210.929688 262.074219 C 210.929688 262.074219 216.191406 260.855469 215.789062 258.425781 C 215.382812 255.992188 210.523438 257.613281 210.523438 257.613281 C 210.523438 257.613281 204.855469 259.234375 200.804688 258.425781 C 200.804688 258.425781 205.664062 255.992188 205.257812 253.152344 C 204.855469 250.316406 202.425781 249.910156 202.019531 250.71875 C 201.617188 251.53125 199.996094 254.777344 197.972656 255.179688 C 195.945312 255.585938 194.730469 255.585938 193.921875 256.398438 C 193.113281 257.207031 191.492188 259.234375 191.492188 259.234375 L 188.660156 258.828125 L 193.71875 237.136719"/><path fill="#72D6CA" d="M 150.800781 233.082031 C 130.554688 235.515625 115.574219 234.300781 115.574219 234.300781 L 113.546875 236.730469 L 110.714844 237.949219 L 107.070312 236.730469 C 107.070312 236.730469 102.617188 240.382812 100.1875 240.382812 L 98.566406 242.8125 C 98.566406 242.8125 95.328125 246.867188 93.300781 254.570312 C 91.277344 262.277344 94.113281 266.738281 94.113281 266.738281 L 98.160156 265.925781 C 103.832031 272.007812 115.820312 270.402344 115.820312 270.402344 L 132.78125 269.371094 C 135.210938 270.589844 144.117188 269.371094 144.117188 269.371094 C 140.878906 258.425781 146.144531 251.9375 146.144531 251.9375 L 159.101562 256.800781 C 165.984375 255.992188 189.671875 258.625 189.671875 258.625 L 192.503906 244.03125 L 193.71875 237.136719 C 189.671875 234.703125 150.800781 233.082031 150.800781 233.082031"/><path fill="#666" d="M 184.8125 267.953125 C 184.8125 267.953125 188.523438 269.464844 191.324219 269.722656 C 194.125 269.980469 196.554688 269.574219 196.554688 269.574219 L 190.886719 265.925781 L 184.8125 267.953125"/><path fill="#C69C6D" d="M 86.824219 256.601562 C 86.824219 259.03125 81.15625 260.65625 79.535156 260.25 C 75.980469 259.359375 77.511719 252.140625 77.511719 252.140625 L 81.558594 250.921875 C 81.558594 250.921875 81.15625 248.894531 80.347656 247.679688 C 79.535156 246.464844 67.386719 250.519531 67.386719 250.519531 C 64.957031 246.867188 57.265625 243.21875 57.265625 243.21875 C 57.265625 243.21875 57.269531 243.070312 57.269531 242.808594 C 56.832031 242.628906 56.410156 242.40625 56.011719 242.132812 C 55.425781 244.460938 48.363281 260.699219 47.140625 262.277344 C 50.203125 264.453125 52.40625 264.707031 52.40625 264.707031 C 52.40625 264.707031 47.316406 266.800781 48.359375 269.167969 C 49.398438 271.535156 54.835938 267.546875 54.835938 267.546875 C 77.105469 274.441406 86.976562 265.597656 88.847656 262.277344 C 90.71875 258.953125 86.824219 256.601562 86.824219 256.601562"/><path fill="#C69C6D" d="M 53.214844 233.894531 L 54.675781 230.222656 C 52.339844 227.488281 49.574219 232.675781 49.574219 232.675781 C 49.167969 230.648438 47.140625 228.21875 47.140625 228.21875 C 37.425781 223.757812 42.6875 241.191406 42.6875 241.191406 C 38.640625 241.191406 37.425781 244.839844 37.425781 244.839844 C 37.199219 246.585938 37.328125 248.234375 37.710938 249.769531 L 53.214844 233.894531"/><path d="M 85.460938 226.117188 C 86.445312 225.582031 87.148438 224.871094 87.195312 224.824219 C 87.394531 224.625 87.390625 224.304688 87.191406 224.109375 C 86.992188 223.910156 86.671875 223.914062 86.476562 224.113281 C 86.460938 224.128906 84.894531 225.699219 83.410156 225.710938 C 82.253906 225.71875 80.707031 221.582031 79.9375 217.742188 C 79.878906 217.46875 79.613281 217.292969 79.339844 217.347656 C 79.066406 217.402344 78.886719 217.667969 78.941406 217.941406 C 79.238281 219.414062 80.839844 226.742188 83.417969 226.722656 C 84.144531 226.714844 84.855469 226.449219 85.460938 226.117188"/><path d="M 82.757812 207.734375 C 82.914062 207.664062 83.035156 207.519531 83.058594 207.335938 C 83.09375 207.058594 82.898438 206.804688 82.621094 206.769531 C 79.523438 206.363281 75.886719 206.996094 75.734375 207.023438 C 75.457031 207.074219 75.273438 207.335938 75.324219 207.609375 C 75.371094 207.886719 75.632812 208.070312 75.910156 208.023438 C 75.945312 208.015625 79.546875 207.390625 82.492188 207.773438 C 82.585938 207.785156 82.675781 207.769531 82.757812 207.734375"/><path d="M 69.8125 216.796875 C 69.964844 216.730469 70.078125 216.589844 70.109375 216.417969 C 70.519531 214.011719 72.320312 211.667969 72.335938 211.644531 C 72.507812 211.421875 72.46875 211.105469 72.246094 210.933594 C 72.027344 210.761719 71.707031 210.800781 71.535156 211.023438 C 71.457031 211.125 69.5625 213.589844 69.109375 216.246094 C 69.0625 216.523438 69.25 216.785156 69.523438 216.832031 C 69.625 216.847656 69.726562 216.832031 69.8125 216.796875"/><path d="M 81.0625 214.25 C 82.214844 215.910156 83.792969 216.8125 84.582031 216.261719 C 85.371094 215.710938 85.078125 213.917969 83.921875 212.257812 C 82.769531 210.597656 81.195312 209.699219 80.402344 210.246094 C 79.613281 210.796875 79.910156 212.589844 81.0625 214.25"/><path d="M 72.875 220.011719 C 73.976562 221.597656 75.476562 222.453125 76.230469 221.929688 C 76.984375 221.40625 76.703125 219.695312 75.601562 218.113281 C 74.503906 216.53125 73 215.671875 72.25 216.195312 C 71.496094 216.71875 71.777344 218.429688 72.875 220.011719"/><path d="M 169.242188 222.410156 C 169.113281 222.164062 168.808594 222.0625 168.5625 222.1875 C 168.515625 222.210938 163.972656 224.519531 159.480469 226.972656 C 158.652344 227.425781 157.898438 227.84375 157.210938 228.230469 C 157.078125 228.777344 156.859375 229.296875 156.5625 229.765625 C 159.996094 227.796875 164.585938 225.339844 169.019531 223.09375 C 169.265625 222.964844 169.367188 222.660156 169.242188 222.410156"/><path d="M 174.324219 232.84375 C 172.839844 228.007812 171.28125 223.570312 170.65625 223.179688 C 170.46875 223.0625 170.242188 223.058594 170.0625 223.167969 C 169.683594 223.402344 169.359375 224.195312 168.136719 227.492188 C 167.628906 228.851562 166.964844 230.648438 166.304688 232.214844 C 166.664062 232.230469 167.023438 232.246094 167.382812 232.261719 C 167.90625 230.996094 168.46875 229.503906 169.085938 227.84375 C 169.539062 226.621094 170.039062 225.273438 170.367188 224.53125 C 170.972656 225.84375 172.105469 229.191406 173.242188 232.84375 C 173.601562 232.84375 173.964844 232.84375 174.324219 232.84375"/><path d="M 98.699219 234.101562 C 98.699219 234.109375 98.703125 234.117188 98.703125 234.128906 C 98.703125 234.117188 98.699219 234.109375 98.699219 234.101562"/><path d="M 52.800781 210.941406 C 50.769531 212.792969 48.855469 214.695312 47.402344 216.441406 C 42.605469 222.214844 34.820312 237.070312 34.492188 237.703125 C 34.371094 237.929688 34.445312 238.214844 34.660156 238.359375 C 34.695312 238.382812 37.089844 239.96875 40.179688 241.980469 C 40.550781 241.800781 40.941406 241.644531 41.339844 241.53125 C 39.320312 240.21875 37.335938 238.914062 35.601562 237.765625 C 36.90625 235.300781 43.886719 222.257812 48.179688 217.089844 C 49.652344 215.320312 51.613281 213.382812 53.683594 211.503906 C 53.367188 211.367188 53.074219 211.167969 52.800781 210.941406"/><path d="M 113.785156 238.714844 C 113.738281 238.691406 109.78125 237.1875 107.367188 236.371094 C 107.023438 236.609375 106.683594 236.851562 106.347656 237.101562 C 106.347656 237.101562 106.351562 237.105469 106.351562 237.105469 C 107.5 237.46875 112.011719 239.03125 112.574219 239.273438 C 98.421875 250.203125 97.296875 259.398438 97.253906 259.789062 C 97.222656 260.066406 97.425781 260.316406 97.703125 260.347656 C 97.71875 260.347656 97.738281 260.347656 97.757812 260.347656 C 98.011719 260.347656 98.230469 260.15625 98.261719 259.898438 C 98.261719 259.875 98.542969 257.523438 100.589844 253.863281 C 102.488281 250.476562 106.328125 245.246094 113.851562 239.570312 C 113.992188 239.464844 114.066406 239.296875 114.050781 239.125 C 114.039062 238.949219 113.9375 238.796875 113.785156 238.714844"/><path d="M 117.152344 270.707031 C 108 270.707031 99.597656 269.265625 97.476562 262.632812 C 97.390625 262.367188 97.539062 262.082031 97.804688 261.996094 C 98.070312 261.910156 98.355469 262.058594 98.441406 262.324219 C 101.191406 270.929688 116.265625 269.984375 128.375 269.222656 C 129.933594 269.125 131.410156 269.035156 132.804688 268.964844 C 133.089844 268.941406 133.320312 269.167969 133.335938 269.445312 C 133.347656 269.726562 133.132812 269.964844 132.855469 269.976562 C 131.464844 270.046875 129.996094 270.136719 128.4375 270.234375 C 124.808594 270.464844 120.917969 270.707031 117.152344 270.707031"/><path d="M 135.574219 248.59375 C 135.527344 248.59375 135.480469 248.585938 135.433594 248.574219 C 134.195312 248.210938 132.949219 247.820312 131.75 247.445312 C 125.332031 245.441406 118.695312 243.367188 110.300781 244.339844 C 110.019531 244.371094 109.769531 244.171875 109.738281 243.894531 C 109.707031 243.617188 109.90625 243.363281 110.183594 243.332031 C 118.792969 242.339844 125.53125 244.441406 132.050781 246.476562 C 133.25 246.851562 134.488281 247.238281 135.714844 247.601562 C 135.984375 247.679688 136.136719 247.960938 136.0625 248.230469 C 135.996094 248.449219 135.792969 248.59375 135.574219 248.59375"/><path d="M 191.492188 259.742188 C 191.464844 259.742188 191.4375 259.738281 191.40625 259.734375 C 170.679688 256.144531 159.269531 257.296875 159.15625 257.308594 C 159.070312 257.316406 158.988281 257.304688 158.910156 257.273438 C 158.824219 257.238281 150.140625 253.675781 145.988281 252.472656 C 145.71875 252.394531 145.5625 252.113281 145.640625 251.847656 C 145.71875 251.578125 146 251.421875 146.265625 251.5 C 150.210938 252.644531 158.125 255.859375 159.179688 256.289062 C 160.507812 256.171875 171.886719 255.320312 191.578125 258.734375 C 191.855469 258.785156 192.039062 259.046875 191.992188 259.320312 C 191.949219 259.566406 191.734375 259.742188 191.492188 259.742188"/><path d="M 137.042969 270.492188 C 135.132812 270.492188 133.335938 270.300781 132.359375 269.699219 C 129.625 268.015625 130.609375 261.835938 130.652344 261.574219 C 130.699219 261.300781 130.960938 261.113281 131.234375 261.15625 C 131.511719 261.203125 131.699219 261.464844 131.652344 261.742188 C 131.390625 263.339844 131.097656 267.734375 132.890625 268.839844 C 134.644531 269.917969 140.53125 269.375 143.355469 268.980469 C 142.746094 267.414062 141.46875 263.085938 142.953125 257.070312 C 143.933594 253.101562 145.273438 251.804688 145.867188 251.25 C 145.792969 251.199219 145.71875 251.152344 145.683594 251.128906 C 145.011719 250.695312 140.285156 248.058594 138.539062 248.007812 C 136.136719 247.941406 134.394531 247.886719 132.160156 257.195312 C 132.097656 257.46875 131.824219 257.636719 131.550781 257.570312 C 131.277344 257.503906 131.109375 257.230469 131.175781 256.957031 C 133.441406 247.53125 135.476562 246.894531 138.570312 246.996094 C 140.671875 247.054688 145.753906 249.964844 146.234375 250.277344 C 146.660156 250.554688 146.996094 250.777344 147.03125 251.164062 C 147.0625 251.515625 146.828125 251.738281 146.578125 251.96875 C 146.0625 252.453125 144.855469 253.585938 143.9375 257.3125 C 142.1875 264.398438 144.511719 269.109375 144.535156 269.15625 C 144.609375 269.300781 144.609375 269.472656 144.535156 269.617188 C 144.460938 269.761719 144.324219 269.863281 144.164062 269.886719 C 143.582031 269.980469 140.164062 270.492188 137.042969 270.492188"/><path d="M 167.515625 270.183594 C 163.738281 270.183594 160.246094 269.738281 157.707031 268.539062 C 156.769531 268.632812 151.320312 269.144531 144.191406 269.53125 C 143.90625 269.539062 143.675781 269.332031 143.660156 269.050781 C 143.644531 268.773438 143.859375 268.535156 144.136719 268.519531 C 151.917969 268.097656 157.6875 267.523438 157.746094 267.519531 C 157.839844 267.507812 157.933594 267.527344 158.019531 267.566406 C 167.140625 272.023438 190.71875 265.703125 190.957031 265.636719 C 191.226562 265.5625 191.503906 265.726562 191.578125 265.996094 C 191.648438 266.265625 191.488281 266.542969 191.222656 266.617188 C 190.503906 266.8125 177.929688 270.183594 167.515625 270.183594"/><path d="M 205.121094 263.078125 C 204.851562 263.078125 204.628906 262.867188 204.613281 262.597656 C 204.601562 262.316406 204.816406 262.078125 205.09375 262.066406 C 210.148438 261.8125 213.992188 260.835938 215.125 259.519531 C 215.347656 259.257812 215.445312 259.003906 215.417969 258.738281 C 215.363281 258.1875 215.179688 258 215.046875 257.90625 C 214.320312 257.394531 212.28125 257.894531 209.457031 258.59375 C 205.160156 259.65625 200.464844 258.914062 200.269531 258.878906 C 199.992188 258.835938 199.804688 258.574219 199.851562 258.300781 C 199.894531 258.023438 200.152344 257.835938 200.429688 257.878906 C 200.476562 257.886719 205.121094 258.617188 209.214844 257.609375 C 212.527344 256.792969 214.527344 256.296875 215.632812 257.078125 C 216.09375 257.402344 216.351562 257.914062 216.425781 258.636719 C 216.480469 259.183594 216.300781 259.707031 215.890625 260.179688 C 213.980469 262.40625 207.738281 262.945312 205.144531 263.078125 C 205.136719 263.078125 205.128906 263.078125 205.121094 263.078125"/><path d="M 191.695312 259.742188 C 191.617188 259.742188 191.535156 259.722656 191.460938 259.683594 C 191.214844 259.554688 191.117188 259.25 191.246094 259 C 191.769531 257.996094 193.246094 255.617188 195.652344 255.230469 C 198.875 254.714844 200.59375 252.261719 201.617188 250.796875 L 201.738281 250.628906 C 202.125 250.078125 202.832031 249.867188 203.457031 250.113281 C 204.488281 250.511719 205.941406 251.855469 205.953125 253.589844 C 205.964844 254.972656 205.035156 257.011719 200.542969 258.847656 C 200.28125 258.957031 199.988281 258.832031 199.878906 258.570312 C 199.773438 258.3125 199.898438 258.015625 200.15625 257.910156 C 203.300781 256.625 204.957031 255.132812 204.941406 253.597656 C 204.933594 252.308594 203.730469 251.304688 203.089844 251.054688 C 202.898438 250.980469 202.683594 251.042969 202.5625 251.210938 L 202.445312 251.378906 C 201.402344 252.871094 199.457031 255.644531 195.8125 256.230469 C 193.804688 256.554688 192.496094 258.789062 192.144531 259.46875 C 192.054688 259.640625 191.878906 259.742188 191.695312 259.742188"/><path d="M 203.550781 266.035156 C 203.285156 266.035156 203.0625 265.832031 203.046875 265.5625 C 203.027344 265.28125 203.242188 265.042969 203.519531 265.023438 C 208.265625 264.722656 209.757812 263.609375 210.226562 262.972656 C 210.570312 262.503906 210.484375 262.136719 210.480469 262.121094 C 210.414062 261.855469 210.570312 261.578125 210.835938 261.503906 C 211.097656 261.429688 211.371094 261.574219 211.453125 261.835938 C 211.476562 261.917969 211.675781 262.652344 211.085938 263.511719 C 210.101562 264.933594 207.578125 265.785156 203.582031 266.035156 C 203.570312 266.035156 203.5625 266.035156 203.550781 266.035156"/><path d="M 199.082031 270.269531 C 195.933594 270.269531 193.03125 268.972656 190.710938 266.480469 C 190.519531 266.277344 190.53125 265.957031 190.734375 265.765625 C 190.941406 265.574219 191.261719 265.585938 191.449219 265.789062 C 194.175781 268.714844 197.78125 269.84375 201.601562 268.960938 L 201.65625 268.949219 C 203.664062 268.492188 203.84375 267.308594 203.847656 267.257812 C 203.878906 267.027344 204.066406 266.835938 204.300781 266.8125 C 206.039062 266.640625 206.78125 266.136719 207.097656 265.746094 C 207.359375 265.425781 207.355469 265.152344 207.355469 265.148438 C 207.328125 264.871094 207.53125 264.621094 207.808594 264.59375 C 208.085938 264.570312 208.335938 264.769531 208.363281 265.046875 C 208.371094 265.117188 208.414062 265.738281 207.882812 266.390625 C 207.289062 267.117188 206.234375 267.582031 204.75 267.78125 C 204.53125 268.386719 203.867188 269.484375 201.878906 269.9375 L 201.828125 269.949219 C 200.898438 270.164062 199.980469 270.269531 199.082031 270.269531"/><path d="M 92.664062 260.386719 L 89.027344 259.746094 C 89.019531 259.78125 89.019531 259.8125 89.011719 259.84375 C 88.949219 260.148438 88.847656 260.445312 88.710938 260.722656 L 92.503906 261.386719 C 92.542969 261.050781 92.605469 260.710938 92.664062 260.386719"/><path d="M 194.410156 235.984375 C 194.265625 235.488281 194.03125 234.65625 184.148438 233.496094 C 178.667969 232.855469 171.039062 232.222656 162.675781 231.714844 C 160.003906 231.554688 157.261719 231.40625 154.527344 231.277344 C 153.84375 231.628906 153.132812 231.917969 152.40625 232.171875 C 170.835938 233.027344 191.996094 234.867188 193.449219 236.3125 C 193.78125 237.585938 193.210938 239.714844 192.351562 242.921875 C 191.441406 246.3125 190.195312 250.957031 189.371094 257.140625 C 189.335938 257.417969 189.53125 257.671875 189.804688 257.710938 C 189.828125 257.714844 189.851562 257.714844 189.875 257.714844 C 190.125 257.714844 190.339844 257.53125 190.375 257.273438 C 191.191406 251.15625 192.425781 246.550781 193.328125 243.183594 C 194.242188 239.773438 194.847656 237.523438 194.410156 235.984375"/><path d="M 293.210938 269.945312 C 266.976562 269.945312 257.203125 266.058594 255.8125 265.441406 C 229.792969 270.628906 205.476562 269.484375 205.234375 269.472656 C 204.957031 269.457031 204.738281 269.222656 204.753906 268.941406 C 204.769531 268.660156 205.003906 268.429688 205.285156 268.460938 C 205.527344 268.472656 229.820312 269.613281 255.773438 264.414062 C 255.882812 264.394531 255.996094 264.410156 256.09375 264.457031 C 256.234375 264.523438 270.675781 271.207031 316.167969 268.082031 C 316.9375 262.800781 317.472656 255.324219 316.382812 254.042969 C 312.773438 253.640625 268.445312 248.652344 261.296875 244.675781 C 254.1875 240.722656 196.09375 236.667969 195.507812 236.628906 C 195.226562 236.609375 195.019531 236.367188 195.035156 236.089844 C 195.054688 235.808594 195.304688 235.597656 195.578125 235.617188 C 197.980469 235.785156 254.484375 239.726562 261.789062 243.789062 C 268.902344 247.75 316.1875 253.003906 316.664062 253.054688 C 316.761719 253.066406 316.851562 253.101562 316.925781 253.164062 C 319.070312 254.878906 317.457031 266.355469 317.109375 268.636719 C 317.074219 268.871094 316.882812 269.050781 316.644531 269.066406 C 307.675781 269.691406 299.902344 269.945312 293.210938 269.945312"/><path d="M 281.800781 269.859375 C 281.796875 269.859375 281.796875 269.859375 281.796875 269.859375 L 211.535156 269.675781 C 211.253906 269.675781 211.027344 269.445312 211.03125 269.167969 C 211.03125 268.886719 211.257812 268.660156 211.535156 268.660156 C 211.535156 268.660156 211.539062 268.660156 211.539062 268.660156 L 281.800781 268.847656 C 282.082031 268.847656 282.304688 269.074219 282.304688 269.355469 C 282.304688 269.632812 282.078125 269.859375 281.800781 269.859375"/><path d="M 193.945312 270.238281 C 188.628906 270.238281 185.679688 268.265625 185.539062 268.167969 C 185.308594 268.011719 185.25 267.695312 185.40625 267.464844 C 185.5625 267.234375 185.878906 267.171875 186.109375 267.332031 C 186.144531 267.355469 189.910156 269.847656 196.496094 269.070312 C 196.773438 269.039062 197.023438 269.238281 197.054688 269.515625 C 197.089844 269.792969 196.890625 270.046875 196.613281 270.078125 C 195.667969 270.191406 194.777344 270.238281 193.945312 270.238281"/><path d="M 315.394531 253.660156 C 315.160156 253.660156 314.945312 253.492188 314.898438 253.25 C 314.675781 252.113281 314.121094 250.710938 313.816406 250.324219 C 311.691406 250.273438 292.40625 249.792969 277.046875 248.621094 C 276.769531 248.597656 276.558594 248.355469 276.582031 248.074219 C 276.601562 247.796875 276.84375 247.582031 277.125 247.609375 C 293.296875 248.84375 313.824219 249.3125 314.03125 249.316406 C 314.125 249.316406 314.214844 249.347656 314.296875 249.398438 C 315.0625 249.898438 315.734375 252.253906 315.890625 253.054688 C 315.945312 253.328125 315.765625 253.597656 315.492188 253.648438 C 315.460938 253.65625 315.425781 253.660156 315.394531 253.660156"/><path d="M 323.898438 267.039062 C 323.722656 267.039062 323.550781 266.949219 323.457031 266.78125 C 323.320312 266.539062 323.40625 266.230469 323.648438 266.09375 C 326.527344 264.46875 328.042969 261.679688 327.707031 258.628906 C 327.457031 256.375 326.191406 254.535156 324.5625 254.042969 C 324.296875 253.964844 324.144531 253.679688 324.222656 253.414062 C 324.304688 253.144531 324.585938 252.992188 324.855469 253.074219 C 326.867188 253.675781 328.417969 255.867188 328.710938 258.515625 C 329.097656 261.984375 327.390625 265.148438 324.148438 266.976562 C 324.070312 267.019531 323.980469 267.039062 323.898438 267.039062"/><path d="M 329.449219 270.519531 C 328.910156 270.519531 328.332031 270.496094 327.742188 270.433594 C 324.394531 270.078125 322.335938 268.628906 321.785156 266.242188 C 321.722656 265.96875 321.890625 265.699219 322.164062 265.632812 C 322.4375 265.570312 322.710938 265.742188 322.773438 266.015625 C 323.832031 270.617188 331.726562 269.378906 332.28125 269.285156 C 337.375 267.636719 345.886719 256.054688 348.863281 246.710938 C 350.292969 242.230469 350.285156 238.859375 348.847656 236.957031 C 348.449219 236.429688 347.097656 235.613281 345.160156 235.675781 C 343.148438 235.734375 340.128906 236.734375 337.183594 241.15625 C 334.5625 245.085938 331.332031 248.257812 327.015625 251.140625 C 323.992188 253.160156 322.300781 255.128906 321.988281 256.996094 C 321.945312 257.273438 321.683594 257.460938 321.410156 257.414062 C 321.132812 257.367188 320.945312 257.109375 320.992188 256.832031 C 321.351562 254.675781 323.1875 252.480469 326.453125 250.296875 C 330.65625 247.492188 333.796875 244.410156 336.339844 240.589844 C 339.527344 235.808594 342.878906 234.726562 345.128906 234.660156 C 347.316406 234.589844 349.011719 235.488281 349.65625 236.34375 C 351.300781 238.523438 351.359375 242.210938 349.828125 247.019531 C 346.707031 256.8125 337.988281 268.542969 332.554688 270.261719 C 332.535156 270.265625 332.511719 270.273438 332.492188 270.277344 C 332.421875 270.289062 331.125 270.519531 329.449219 270.519531"/><path d="M 317.824219 257.714844 C 317.542969 257.714844 317.316406 257.488281 317.316406 257.207031 C 317.316406 256.929688 317.542969 256.699219 317.824219 256.699219 C 319.507812 256.699219 321.839844 256.410156 322.117188 256.320312 C 322.414062 256.207031 323.550781 255.121094 324.15625 254.539062 C 324.550781 254.160156 324.925781 253.808594 325.1875 253.582031 C 325.398438 253.398438 325.71875 253.421875 325.902344 253.632812 C 326.085938 253.84375 326.058594 254.164062 325.847656 254.347656 C 325.605469 254.558594 325.242188 254.90625 324.859375 255.273438 C 323.652344 256.421875 322.890625 257.132812 322.4375 257.28125 C 321.984375 257.433594 319.4375 257.714844 317.824219 257.714844"/><path d="M 317.320312 254.832031 C 317.113281 254.832031 316.914062 254.695312 316.84375 254.484375 C 316.753906 254.21875 316.898438 253.933594 317.160156 253.84375 C 317.832031 253.617188 318.429688 253.390625 318.824219 253.238281 C 319.039062 253.15625 319.199219 253.09375 319.292969 253.0625 C 319.339844 253.046875 319.566406 252.925781 320.347656 252.214844 C 320.554688 252.027344 320.875 252.039062 321.0625 252.246094 C 321.25 252.453125 321.234375 252.773438 321.03125 252.964844 C 320.132812 253.78125 319.820312 253.957031 319.609375 254.027344 C 319.527344 254.054688 319.382812 254.109375 319.1875 254.183594 C 318.78125 254.339844 318.171875 254.574219 317.484375 254.804688 C 317.429688 254.824219 317.375 254.832031 317.320312 254.832031"/><path d="M 317.355469 266.996094 C 317.097656 266.996094 316.878906 266.800781 316.855469 266.539062 C 316.824219 266.261719 317.027344 266.011719 317.308594 265.984375 L 325.0625 265.21875 C 325.34375 265.191406 325.589844 265.394531 325.617188 265.671875 C 325.644531 265.953125 325.441406 266.199219 325.164062 266.226562 L 317.40625 266.996094 C 317.390625 266.996094 317.371094 266.996094 317.355469 266.996094"/><path d="M 328.9375 270.300781 C 328.8125 270.300781 328.695312 270.21875 328.652344 270.089844 C 328.597656 269.929688 328.683594 269.757812 328.84375 269.707031 C 333.203125 268.261719 337.070312 263.667969 342.273438 256.222656 C 347.300781 249.03125 347.828125 242.09375 347.882812 240.800781 C 344.472656 239.609375 343.710938 238.074219 343.675781 236.984375 C 343.671875 236.816406 343.800781 236.675781 343.96875 236.667969 C 344.136719 236.671875 344.277344 236.796875 344.285156 236.964844 C 344.308594 237.71875 344.859375 239.148438 348.289062 240.292969 C 348.410156 240.335938 348.496094 240.453125 348.496094 240.582031 C 348.496094 240.660156 348.433594 248.476562 342.773438 256.570312 C 336.621094 265.371094 333.023438 268.960938 329.035156 270.285156 C 329.003906 270.292969 328.972656 270.300781 328.9375 270.300781"/><path d="M 213.410156 252.882812 C 213.21875 252.882812 213.039062 252.773438 212.953125 252.589844 C 210.644531 247.691406 205.375 244.59375 202.445312 243.183594 C 202.191406 243.0625 202.085938 242.761719 202.207031 242.507812 C 202.328125 242.257812 202.628906 242.148438 202.882812 242.269531 C 205.9375 243.738281 211.425781 246.972656 213.867188 252.160156 C 213.984375 252.410156 213.878906 252.714844 213.625 252.832031 C 213.554688 252.867188 213.480469 252.882812 213.410156 252.882812"/><path d="M 318.636719 254.066406 C 318.355469 254.066406 318.128906 253.839844 318.128906 253.558594 C 318.128906 252.117188 318.808594 250.578125 319.949219 249.433594 C 320.558594 248.824219 320.8125 246.875 321.089844 244.808594 C 321.71875 240.058594 322.582031 233.5625 328.65625 233.863281 C 332.160156 234.042969 333.714844 239.902344 334.109375 241.691406 C 334.171875 241.964844 333.996094 242.234375 333.726562 242.296875 C 333.453125 242.355469 333.179688 242.183594 333.121094 241.910156 C 332.425781 238.734375 330.824219 234.992188 328.605469 234.878906 C 323.453125 234.628906 322.703125 240.339844 322.09375 244.941406 C 321.769531 247.375 321.515625 249.300781 320.664062 250.152344 C 319.722656 251.09375 319.140625 252.398438 319.140625 253.558594 C 319.140625 253.839844 318.914062 254.066406 318.636719 254.066406"/><path d="M 331.796875 247.171875 C 331.789062 247.171875 331.785156 247.171875 331.777344 247.171875 C 331.609375 247.164062 331.484375 247.019531 331.492188 246.851562 C 331.75 241.90625 329.878906 238.253906 328.664062 236.4375 C 328.082031 236.46875 326.242188 236.5 325.148438 235.769531 C 325.007812 235.675781 324.96875 235.488281 325.0625 235.347656 C 325.15625 235.207031 325.34375 235.167969 325.484375 235.261719 C 326.59375 236.003906 328.769531 235.824219 328.792969 235.820312 C 328.898438 235.8125 329.003906 235.859375 329.066406 235.953125 C 330.320312 237.777344 332.375 241.625 332.097656 246.882812 C 332.089844 247.046875 331.957031 247.171875 331.796875 247.171875"/><path d="M 322.199219 255.3125 C 321.9375 255.3125 321.714844 255.109375 321.695312 254.84375 C 321.574219 253.289062 320.5625 252.933594 319.96875 252.859375 C 319.695312 252.824219 319.496094 252.570312 319.53125 252.292969 C 319.566406 252.015625 319.816406 251.816406 320.097656 251.851562 C 320.660156 251.925781 322.515625 252.34375 322.703125 254.765625 C 322.726562 255.046875 322.515625 255.289062 322.238281 255.308594 C 322.222656 255.3125 322.210938 255.3125 322.199219 255.3125"/><path d="M 88.523438 251.886719 C 87.617188 249.796875 85.007812 248.789062 84.898438 248.746094 C 84.636719 248.648438 84.34375 248.78125 84.246094 249.042969 C 84.148438 249.304688 84.277344 249.597656 84.539062 249.695312 C 84.5625 249.703125 86.863281 250.597656 87.597656 252.292969 C 87.90625 253.007812 87.894531 253.75 87.558594 254.558594 C 86.507812 257.121094 83.023438 259.917969 80.652344 260.097656 C 79.765625 260.164062 79.144531 259.875 78.75 259.21875 C 77.25 256.714844 77.582031 253.824219 77.734375 252.941406 L 81.679688 251.625 C 81.917969 251.546875 82.0625 251.296875 82.015625 251.050781 C 81.902344 250.457031 81.246094 247.484375 79.617188 247.25 C 78.292969 247.058594 69.675781 249.207031 67.285156 249.816406 C 66.273438 248.738281 61.890625 244.253906 57.777344 243.074219 C 57.78125 243.042969 57.789062 243 57.796875 242.964844 C 57.460938 242.910156 57.132812 242.78125 56.824219 242.621094 C 56.746094 243.078125 56.695312 243.34375 56.695312 243.351562 C 56.640625 243.625 56.8125 243.882812 57.082031 243.945312 C 61.476562 244.921875 66.6875 250.664062 66.742188 250.722656 C 66.867188 250.863281 67.058594 250.917969 67.242188 250.875 C 71.484375 249.789062 78.558594 248.121094 79.472656 248.253906 C 80.070312 248.339844 80.644531 249.699219 80.925781 250.808594 L 77.132812 252.074219 C 76.96875 252.128906 76.84375 252.265625 76.800781 252.4375 C 76.761719 252.597656 75.878906 256.394531 77.882812 259.738281 C 78.476562 260.730469 79.460938 261.203125 80.730469 261.109375 C 83.222656 260.917969 86.503906 258.496094 88.035156 255.863281 C 88.035156 255.832031 88.640625 254.585938 88.632812 254.578125 C 88.929688 253.640625 88.894531 252.738281 88.523438 251.886719"/><path d="M 89.707031 258.996094 C 89.648438 258.210938 88.828125 257.128906 88.027344 256.527344 C 87.804688 256.359375 87.488281 256.402344 87.320312 256.625 C 87.152344 256.851562 87.195312 257.167969 87.421875 257.335938 C 87.980469 257.757812 88.660156 258.585938 88.695312 259.070312 C 88.757812 259.953125 88.007812 261.183594 86.464844 262.726562 C 83.210938 265.992188 72.425781 270.257812 64.195312 269.476562 C 56.378906 268.730469 55.308594 266.953125 55.304688 266.953125 C 55.242188 266.796875 55.105469 266.679688 54.9375 266.644531 C 54.773438 266.613281 54.597656 266.664062 54.480469 266.785156 C 54.445312 266.816406 51.070312 270.101562 49.042969 268.746094 C 48.675781 268.503906 48.691406 268.316406 48.695312 268.242188 C 48.761719 267.355469 51.03125 265.910156 52.621094 265.167969 C 52.8125 265.078125 52.925781 264.878906 52.910156 264.667969 C 52.894531 264.457031 52.75 264.28125 52.546875 264.222656 C 52.503906 264.210938 50.273438 263.535156 47.421875 261.484375 C 47.203125 261.753906 46.964844 262.011719 46.730469 262.273438 C 48.546875 263.589844 50.136719 264.367188 51.140625 264.785156 C 49.800781 265.523438 47.785156 266.84375 47.6875 268.167969 C 47.65625 268.554688 47.773438 269.117188 48.480469 269.589844 C 50.730469 271.09375 53.699219 268.832031 54.78125 267.882812 C 55.585938 268.636719 57.835938 269.886719 64.101562 270.484375 C 64.789062 270.550781 65.496094 270.582031 66.214844 270.582031 C 74.363281 270.582031 84.0625 266.566406 87.179688 263.445312 C 88.988281 261.636719 89.792969 260.222656 89.707031 258.996094"/><path d="M 98.371094 263.558594 L 93.925781 264.546875 C 93.585938 263.949219 92.789062 261.960938 93.398438 257.066406 C 94.066406 251.71875 97.871094 244.875 99.023438 242.902344 C 99.164062 242.664062 99.082031 242.351562 98.839844 242.210938 C 98.601562 242.070312 98.289062 242.148438 98.148438 242.390625 C 96.976562 244.40625 93.085938 251.402344 92.394531 256.941406 C 91.578125 263.488281 93.164062 265.289062 93.351562 265.472656 C 93.445312 265.570312 93.574219 265.621094 93.707031 265.621094 C 93.742188 265.621094 93.78125 265.617188 93.816406 265.609375 L 98.808594 264.5 C 98.847656 264.492188 98.875 264.472656 98.910156 264.457031 C 98.710938 264.171875 98.535156 263.867188 98.371094 263.558594"/><path d="M 58.003906 243.085938 C 56.421875 243.085938 55.238281 242.078125 54.75 241.382812 C 54.585938 241.152344 54.640625 240.835938 54.871094 240.675781 C 55.097656 240.515625 55.414062 240.566406 55.574219 240.796875 C 55.632812 240.875 57.03125 242.78125 59.277344 241.78125 C 61.769531 240.675781 63.445312 237.84375 63.460938 237.816406 C 63.605469 237.574219 63.914062 237.492188 64.15625 237.632812 C 64.394531 237.773438 64.476562 238.085938 64.335938 238.328125 C 64.261719 238.453125 62.472656 241.472656 59.6875 242.710938 C 59.089844 242.972656 58.527344 243.085938 58.003906 243.085938"/><path d="M 37.175781 270.71875 C 35.347656 270.71875 33.496094 269.996094 31.648438 268.554688 C 27.824219 265.574219 28.074219 254.515625 35.960938 239.136719 C 36.089844 238.886719 36.394531 238.789062 36.644531 238.917969 C 36.890625 239.042969 36.992188 239.347656 36.863281 239.597656 C 29.308594 254.328125 28.859375 265.097656 32.269531 267.753906 C 34.5625 269.542969 36.734375 270.097656 38.90625 269.449219 C 45.652344 267.441406 50.980469 254.328125 55.300781 241.769531 C 55.390625 241.503906 55.679688 241.363281 55.945312 241.457031 C 56.210938 241.546875 56.347656 241.835938 56.257812 242.101562 C 54.386719 247.53125 51.863281 254.480469 48.910156 260.015625 C 45.707031 266.023438 42.527344 269.429688 39.195312 270.421875 C 38.527344 270.621094 37.851562 270.71875 37.175781 270.71875"/><path d="M 31.554688 260.148438 C 31.484375 260.148438 31.414062 260.132812 31.347656 260.105469 C 31.09375 259.992188 30.976562 259.691406 31.089844 259.4375 C 35.621094 249.144531 51.203125 234.667969 52.597656 233.386719 C 53.585938 231.191406 56.691406 224.515625 58.074219 223.902344 C 59.449219 223.289062 65.898438 222.410156 67.273438 222.648438 C 71.402344 223.363281 76.351562 224.582031 76.484375 226.335938 C 76.632812 228.335938 75.042969 229.066406 74.972656 229.09375 C 74.71875 229.207031 74.417969 229.09375 74.304688 228.835938 C 74.191406 228.582031 74.304688 228.285156 74.558594 228.167969 C 74.605469 228.148438 75.570312 227.679688 75.472656 226.410156 C 75.425781 225.769531 72.210938 224.53125 67.101562 223.648438 C 66.050781 223.46875 59.765625 224.257812 58.484375 224.828125 C 57.765625 225.148438 55.324219 229.785156 53.476562 233.898438 C 53.445312 233.960938 53.40625 234.019531 53.355469 234.066406 C 53.1875 234.21875 36.574219 249.496094 32.015625 259.84375 C 31.933594 260.035156 31.746094 260.148438 31.554688 260.148438"/><path d="M 73.617188 232.863281 C 73.449219 232.863281 73.277344 232.851562 73.101562 232.828125 C 72.824219 232.789062 72.628906 232.535156 72.667969 232.257812 C 72.703125 231.980469 72.957031 231.789062 73.238281 231.824219 C 73.9375 231.917969 74.550781 231.753906 74.960938 231.363281 C 75.339844 231.007812 75.53125 230.476562 75.488281 229.910156 C 75.40625 228.816406 69.804688 227.734375 67.964844 227.378906 C 67.601562 227.308594 67.273438 227.242188 66.988281 227.1875 C 66.554688 227.101562 63.277344 227.382812 60.359375 227.707031 C 60.082031 227.742188 59.828125 227.539062 59.800781 227.257812 C 59.769531 226.980469 59.96875 226.730469 60.246094 226.699219 C 61.265625 226.585938 66.394531 226.027344 67.191406 226.191406 C 67.472656 226.25 67.800781 226.3125 68.15625 226.382812 C 72.644531 227.25 76.371094 228.105469 76.496094 229.832031 C 76.5625 230.707031 76.257812 231.535156 75.65625 232.101562 C 75.128906 232.601562 74.417969 232.863281 73.617188 232.863281"/><path d="M 70.375 235.902344 C 70.113281 235.902344 69.890625 235.703125 69.871094 235.441406 C 69.84375 235.160156 70.050781 234.914062 70.332031 234.890625 C 71.449219 234.792969 72.632812 233.867188 72.542969 232.691406 C 72.390625 232.132812 68.957031 230.816406 65.65625 230.246094 C 64.128906 229.984375 60.410156 231.078125 59.109375 231.523438 C 58.84375 231.613281 58.554688 231.472656 58.464844 231.207031 C 58.375 230.941406 58.515625 230.65625 58.78125 230.5625 C 58.980469 230.496094 63.730469 228.886719 65.828125 229.25 C 65.902344 229.261719 73.402344 230.613281 73.554688 232.617188 C 73.6875 234.40625 72.039062 235.761719 70.417969 235.902344 C 70.402344 235.902344 70.386719 235.902344 70.375 235.902344"/><path d="M 60.03125 239.554688 C 59.824219 239.554688 59.628906 239.425781 59.554688 239.21875 C 59.460938 238.953125 59.601562 238.664062 59.867188 238.570312 L 63.800781 237.191406 C 63.90625 237.15625 64.023438 237.15625 64.128906 237.191406 C 67.285156 238.25 68.761719 237.984375 69.441406 237.578125 C 69.894531 237.308594 70.164062 236.886719 70.265625 236.289062 C 70.269531 236.277344 70.273438 236.253906 70.226562 236.191406 C 69.566406 235.28125 65.367188 234.671875 63.988281 234.472656 C 63.691406 234.429688 63.457031 234.394531 63.304688 234.367188 C 62.589844 234.242188 60.253906 235.226562 58.816406 235.960938 C 58.570312 236.085938 58.265625 235.988281 58.136719 235.738281 C 58.011719 235.488281 58.109375 235.183594 58.355469 235.058594 C 58.984375 234.734375 62.175781 233.144531 63.476562 233.367188 C 63.621094 233.394531 63.847656 233.425781 64.132812 233.46875 C 67.25 233.917969 70.246094 234.492188 71.046875 235.59375 C 71.242188 235.863281 71.316406 236.160156 71.265625 236.460938 C 71.113281 237.34375 70.660156 238.03125 69.960938 238.449219 C 68.710938 239.195312 66.753906 239.117188 63.972656 238.207031 L 60.199219 239.527344 C 60.144531 239.546875 60.089844 239.554688 60.03125 239.554688"/><path d="M 99.828125 240.992188 C 99.320312 240.992188 98.859375 240.871094 98.472656 240.589844 C 97.433594 239.832031 96.9375 239.046875 97 238.253906 C 97.054688 237.507812 97.609375 236.824219 98.566406 236.328125 C 99.660156 235.761719 105.214844 233.328125 105.449219 233.226562 C 105.703125 233.113281 106.003906 233.230469 106.117188 233.488281 C 106.226562 233.746094 106.109375 234.042969 105.855469 234.15625 C 105.796875 234.179688 100.097656 236.675781 99.03125 237.230469 C 98.738281 237.382812 98.046875 237.796875 98.007812 238.332031 C 97.976562 238.742188 98.34375 239.242188 99.066406 239.769531 C 100.53125 240.835938 104.726562 237.734375 106.105469 236.714844 C 106.851562 236.164062 106.996094 236.058594 107.191406 236.027344 C 107.429688 235.988281 107.617188 236.097656 107.925781 236.277344 C 108.96875 236.875 111.734375 238.46875 115.390625 234.171875 C 115.488281 234.054688 115.636719 233.984375 115.789062 233.996094 C 115.882812 233.996094 124.984375 234.285156 134.46875 233.878906 C 150.976562 233.175781 154.953125 230.984375 155.855469 229.742188 C 157.222656 227.863281 157.511719 225.289062 156.632812 222.859375 C 155.199219 218.890625 150.171875 213.320312 134.382812 209.332031 C 134.113281 209.261719 133.949219 208.988281 134.015625 208.71875 C 134.085938 208.445312 134.359375 208.277344 134.632812 208.347656 C 150.851562 212.445312 156.066406 218.3125 157.585938 222.515625 C 158.578125 225.261719 158.238281 228.1875 156.675781 230.339844 C 152.601562 235.949219 119.453125 235.117188 116 235.015625 C 111.871094 239.71875 108.527344 237.792969 107.421875 237.15625 C 107.378906 237.132812 107.34375 237.109375 107.3125 237.089844 C 107.160156 237.195312 106.929688 237.367188 106.703125 237.53125 C 105.078125 238.734375 102.027344 240.992188 99.828125 240.992188"/><path d="M 91.324219 234.914062 C 91.289062 234.914062 91.257812 234.910156 91.222656 234.902344 C 90.207031 234.695312 89.863281 234.121094 89.75 233.675781 C 89.132812 231.230469 94.148438 226.839844 94.199219 226.796875 C 96.332031 225.007812 102.511719 222.707031 102.773438 222.613281 C 104.675781 221.910156 111.136719 225.863281 112.964844 227.023438 C 114.308594 226.339844 120.613281 223.179688 127.949219 220.597656 C 139.097656 216.671875 147.199219 215.878906 152.035156 218.230469 C 152.285156 218.355469 152.390625 218.65625 152.265625 218.910156 C 152.144531 219.160156 151.84375 219.265625 151.589844 219.144531 C 140.597656 213.789062 113.449219 227.914062 113.175781 228.058594 C 113.015625 228.140625 112.820312 228.132812 112.667969 228.035156 C 109.382812 225.929688 104.246094 223.144531 103.125 223.5625 C 100.960938 224.363281 96.449219 226.230469 94.847656 227.574219 C 93.011719 229.117188 90.429688 232.234375 90.730469 233.425781 C 90.753906 233.527344 90.820312 233.785156 91.425781 233.910156 C 91.699219 233.964844 91.875 234.234375 91.820312 234.507812 C 91.769531 234.75 91.558594 234.914062 91.324219 234.914062"/><path d="M 92.652344 238.042969 C 91.527344 238.042969 90.722656 237.554688 90.382812 236.628906 C 89.683594 234.726562 92.96875 231.3125 94.992188 229.449219 C 97.128906 227.476562 101.695312 226.351562 101.886719 226.304688 C 102.160156 226.238281 102.433594 226.40625 102.5 226.679688 C 102.566406 226.949219 102.398438 227.222656 102.125 227.289062 C 102.082031 227.300781 97.621094 228.398438 95.675781 230.195312 C 92.785156 232.867188 91 235.367188 91.332031 236.28125 C 91.65625 237.164062 92.773438 237.078125 93.410156 236.945312 C 93.683594 236.886719 93.953125 237.066406 94.007812 237.339844 C 94.0625 237.613281 93.886719 237.882812 93.613281 237.9375 C 93.273438 238.007812 92.953125 238.042969 92.652344 238.042969"/><path d="M 95.707031 239.6875 C 95.382812 239.6875 95.074219 239.640625 94.796875 239.546875 C 94.203125 239.351562 93.742188 238.945312 93.457031 238.378906 C 92.757812 236.976562 94.019531 235.652344 95.484375 234.125 C 95.761719 233.832031 96.050781 233.527344 96.335938 233.214844 C 98.105469 231.273438 103.011719 230.089844 103.21875 230.039062 C 103.492188 229.972656 103.761719 230.140625 103.828125 230.414062 C 103.894531 230.6875 103.726562 230.960938 103.453125 231.023438 C 103.40625 231.035156 98.640625 232.1875 97.085938 233.894531 C 96.792969 234.21875 96.5 234.527344 96.214844 234.824219 C 95.015625 236.078125 93.980469 237.160156 94.363281 237.925781 C 94.527344 238.253906 94.773438 238.472656 95.113281 238.585938 C 95.683594 238.773438 96.492188 238.652344 97.273438 238.257812 C 97.523438 238.132812 97.828125 238.230469 97.953125 238.480469 C 98.078125 238.730469 97.976562 239.035156 97.726562 239.164062 C 97.042969 239.507812 96.34375 239.6875 95.707031 239.6875"/><path d="M 98.839844 225.074219 C 98.78125 225.074219 98.71875 225.0625 98.65625 225.039062 C 98.398438 224.9375 98.269531 224.644531 98.371094 224.382812 C 99.371094 221.816406 99.660156 218.148438 99.277344 212.847656 C 99.253906 212.566406 99.464844 212.324219 99.746094 212.304688 C 100.023438 212.285156 100.265625 212.492188 100.285156 212.773438 C 100.679688 218.230469 100.371094 222.039062 99.3125 224.753906 C 99.234375 224.953125 99.042969 225.074219 98.839844 225.074219"/><path d="M 72.347656 224.742188 C 72.21875 224.742188 72.085938 224.695312 71.988281 224.59375 C 68.132812 220.734375 65.015625 215.976562 63.074219 212.664062 C 62.933594 212.421875 63.015625 212.109375 63.253906 211.96875 C 63.496094 211.828125 63.808594 211.910156 63.949219 212.152344 C 65.859375 215.410156 68.925781 220.09375 72.703125 223.878906 C 72.902344 224.078125 72.902344 224.398438 72.703125 224.59375 C 72.605469 224.695312 72.476562 224.742188 72.347656 224.742188"/><path d="M 62.800781 212.933594 C 61.292969 212.933594 60.386719 212.507812 60.277344 212.453125 C 60.027344 212.328125 59.925781 212.023438 60.050781 211.773438 C 60.175781 211.519531 60.480469 211.417969 60.730469 211.542969 C 60.824219 211.589844 68.578125 215.082031 78.289062 198.363281 C 78.378906 198.207031 78.542969 198.113281 78.722656 198.109375 C 78.722656 198.109375 78.722656 198.109375 78.726562 198.109375 C 78.902344 198.109375 79.066406 198.203125 79.160156 198.355469 C 79.25 198.503906 81.40625 201.960938 85.367188 199.792969 C 85.601562 199.664062 85.898438 199.742188 86.039062 199.972656 C 88.394531 203.753906 92.773438 209.671875 94.613281 209.671875 C 94.632812 209.671875 94.65625 209.671875 94.679688 209.667969 C 94.9375 209.648438 95.117188 209.542969 95.253906 209.332031 C 95.980469 208.230469 95.265625 204.886719 94.644531 203.035156 C 94.601562 202.910156 94.613281 202.773438 94.671875 202.652344 C 94.742188 202.507812 96.425781 199.113281 98.976562 198.707031 C 100.152344 198.515625 101.296875 198.984375 102.371094 200.089844 C 104.96875 202.761719 104.890625 207.414062 103.332031 210.1875 C 102.164062 212.257812 100.3125 213.171875 98.25 212.695312 C 97.976562 212.632812 97.808594 212.359375 97.871094 212.085938 C 97.933594 211.8125 98.203125 211.640625 98.476562 211.707031 C 100.660156 212.210938 101.902344 210.660156 102.449219 209.691406 C 103.835938 207.222656 103.84375 203.058594 101.644531 200.796875 C 100.8125 199.941406 99.96875 199.574219 99.136719 199.707031 C 97.390625 199.984375 96.03125 202.261719 95.671875 202.921875 C 96.015625 204 97.230469 208.167969 96.101562 209.890625 C 95.792969 210.359375 95.328125 210.632812 94.761719 210.679688 C 94.722656 210.683594 94.679688 210.683594 94.636719 210.683594 C 91.859375 210.683594 86.914062 203.242188 85.425781 200.902344 C 82.011719 202.519531 79.726562 200.605469 78.78125 199.523438 C 71.9375 211.007812 66.007812 212.933594 62.800781 212.933594"/><path d="M 62.277344 216.644531 C 61.359375 216.644531 60.046875 216.476562 58.945312 215.683594 C 57.980469 214.988281 57.355469 213.953125 57.09375 212.601562 C 55.96875 212.570312 53.074219 212.300781 51.890625 210.410156 C 51.148438 209.226562 51.222656 207.671875 52.109375 205.78125 C 51.261719 205.402344 49.648438 204.460938 48.648438 202.507812 C 47.492188 200.261719 47.507812 197.394531 48.6875 193.992188 C 49.738281 190.976562 51.429688 188.90625 53.722656 187.835938 C 56.238281 186.664062 58.8125 187.007812 60.152344 187.324219 C 59.628906 185.238281 59.066406 180.226562 64.765625 177.875 C 70.589844 175.476562 74.808594 178.664062 76.191406 179.953125 C 77.125 178.535156 79.96875 175.210938 85.695312 176.222656 C 88.671875 176.75 91.15625 178.75 92.886719 182.007812 C 93.816406 183.757812 94.292969 185.414062 94.492188 186.234375 C 95.523438 186.039062 97.6875 186.0625 99.027344 189.085938 C 100.300781 191.957031 99.496094 193.507812 98.894531 194.179688 C 99.410156 194.757812 100.246094 195.914062 100.367188 197.441406 C 100.390625 197.71875 100.183594 197.964844 99.902344 197.984375 C 99.625 198.011719 99.378906 197.800781 99.359375 197.519531 C 99.21875 195.75 97.847656 194.554688 97.832031 194.542969 C 97.707031 194.4375 97.644531 194.277344 97.65625 194.113281 C 97.671875 193.953125 97.761719 193.808594 97.902344 193.722656 C 97.960938 193.683594 99.503906 192.648438 98.101562 189.496094 C 96.703125 186.34375 94.40625 187.28125 94.3125 187.324219 C 94.171875 187.386719 94.007812 187.378906 93.871094 187.304688 C 93.738281 187.230469 93.640625 187.101562 93.613281 186.949219 C 93.597656 186.863281 91.972656 178.363281 85.519531 177.222656 C 79.121094 176.089844 76.847656 180.789062 76.753906 180.992188 C 76.683594 181.148438 76.535156 181.257812 76.363281 181.277344 C 76.191406 181.304688 76.019531 181.238281 75.910156 181.105469 C 75.738281 180.902344 71.597656 176.152344 65.152344 178.8125 C 62.488281 179.910156 61.042969 181.761719 60.859375 184.3125 C 60.714844 186.246094 61.371094 187.867188 61.378906 187.882812 C 61.453125 188.070312 61.414062 188.285156 61.273438 188.429688 C 61.132812 188.574219 60.917969 188.621094 60.730469 188.550781 C 60.695312 188.535156 57.296875 187.28125 54.140625 188.757812 C 52.109375 189.710938 50.597656 191.582031 49.644531 194.324219 C 48.558594 197.457031 48.523438 200.054688 49.546875 202.042969 C 50.730469 204.347656 52.933594 205.019531 52.953125 205.023438 C 53.101562 205.066406 53.21875 205.171875 53.277344 205.3125 C 53.335938 205.453125 53.328125 205.613281 53.257812 205.746094 C 52.320312 207.527344 52.148438 208.914062 52.75 209.871094 C 53.699219 211.390625 56.507812 211.625 57.503906 211.589844 C 57.765625 211.566406 57.988281 211.773438 58.023438 212.03125 C 58.195312 213.304688 58.699219 214.257812 59.53125 214.855469 C 61.058594 215.957031 63.222656 215.558594 63.242188 215.554688 C 63.515625 215.503906 63.78125 215.683594 63.835938 215.957031 C 63.886719 216.230469 63.710938 216.496094 63.4375 216.550781 C 63.390625 216.558594 62.933594 216.644531 62.277344 216.644531"/><path d="M 93.707031 249.402344 C 93.648438 249.402344 93.589844 249.390625 93.53125 249.371094 C 93.269531 249.273438 93.136719 248.980469 93.234375 248.71875 C 93.25 248.671875 95.015625 243.863281 95.839844 239.171875 C 95.890625 238.894531 96.152344 238.710938 96.429688 238.761719 C 96.703125 238.808594 96.886719 239.070312 96.839844 239.347656 C 96 244.132812 94.199219 249.023438 94.183594 249.074219 C 94.105469 249.277344 93.914062 249.402344 93.707031 249.402344"/><path d="M 91.640625 230.132812 C 91.613281 230.132812 91.585938 230.128906 91.558594 230.125 C 90.785156 229.992188 89.917969 229.898438 88.976562 229.84375 C 88.695312 229.828125 88.484375 229.585938 88.5 229.308594 C 88.515625 229.027344 88.75 228.816406 89.035156 228.828125 C 90.011719 228.886719 90.917969 228.988281 91.726562 229.125 C 92.003906 229.171875 92.1875 229.433594 92.140625 229.710938 C 92.097656 229.957031 91.886719 230.132812 91.640625 230.132812"/><path d="M 79.128906 230.347656 C 79.019531 230.347656 78.914062 230.308594 78.824219 230.242188 C 78.714844 230.160156 78.644531 230.039062 78.628906 229.902344 C 78.4375 228.375 77.988281 226.824219 77.6875 226.640625 C 77.683594 226.640625 77.417969 226.558594 76.410156 226.980469 C 76.148438 227.085938 75.855469 226.964844 75.746094 226.707031 C 75.640625 226.449219 75.761719 226.152344 76.019531 226.046875 C 77.054688 225.613281 77.707031 225.519531 78.140625 225.734375 C 78.960938 226.148438 79.378906 228.070312 79.5625 229.265625 C 80.132812 229.191406 81.148438 229.070312 82.425781 228.964844 C 82.707031 228.941406 82.949219 229.152344 82.972656 229.429688 C 82.996094 229.707031 82.789062 229.953125 82.507812 229.976562 C 80.582031 230.132812 79.21875 230.339844 79.207031 230.339844 C 79.179688 230.34375 79.15625 230.347656 79.128906 230.347656"/><path d="M 85.40625 230.613281 C 83.152344 230.613281 81.171875 229.308594 81.078125 229.246094 C 80.84375 229.089844 80.78125 228.777344 80.9375 228.546875 C 81.089844 228.3125 81.40625 228.25 81.636719 228.402344 C 81.660156 228.417969 83.9375 229.910156 86.132812 229.542969 C 88.15625 229.203125 88.941406 228.605469 90.234375 227.613281 C 90.40625 227.480469 90.582031 227.34375 90.769531 227.203125 C 90.996094 227.035156 91.3125 227.082031 91.480469 227.304688 C 91.648438 227.527344 91.601562 227.847656 91.378906 228.015625 C 91.191406 228.152344 91.019531 228.289062 90.851562 228.417969 C 89.527344 229.429688 88.574219 230.164062 86.300781 230.542969 C 86 230.589844 85.703125 230.613281 85.40625 230.613281"/><path d="M 37.832031 250.160156 C 37.613281 250.160156 37.414062 250.019531 37.347656 249.796875 C 36.488281 246.972656 36.640625 244.714844 37.808594 243.097656 C 39.03125 241.398438 41.019531 240.894531 42.035156 240.746094 C 40.574219 235.441406 40.578125 230.617188 42.066406 228.347656 C 42.613281 227.511719 43.367188 227.011719 44.246094 226.902344 C 46.960938 226.558594 48.828125 229.777344 49.621094 231.484375 C 50.390625 230.175781 51.277344 229.339844 52.265625 228.996094 C 53.132812 228.695312 54.082031 228.78125 55.003906 229.246094 C 55.253906 229.375 55.351562 229.679688 55.226562 229.929688 C 55.101562 230.179688 54.796875 230.28125 54.546875 230.152344 C 53.863281 229.808594 53.207031 229.742188 52.597656 229.953125 C 51.648438 230.28125 50.785156 231.269531 50.03125 232.890625 C 49.945312 233.078125 49.757812 233.195312 49.550781 233.183594 C 49.34375 233.171875 49.164062 233.042969 49.09375 232.847656 C 49.078125 232.796875 47.167969 227.554688 44.371094 227.910156 C 43.78125 227.984375 43.300781 228.308594 42.914062 228.902344 C 41.546875 230.988281 41.652344 235.871094 43.175781 241.050781 C 43.21875 241.199219 43.191406 241.363281 43.097656 241.492188 C 43.003906 241.617188 42.859375 241.695312 42.703125 241.699219 C 42.675781 241.699219 39.992188 241.796875 38.625 243.695312 C 37.65625 245.046875 37.554688 247 38.316406 249.503906 C 38.394531 249.769531 38.246094 250.054688 37.976562 250.136719 C 37.929688 250.152344 37.878906 250.160156 37.832031 250.160156"/><path d="M 128.554688 221.429688 C 128.546875 221.429688 128.542969 221.429688 128.535156 221.429688 C 128.257812 221.421875 128.039062 221.1875 128.046875 220.90625 C 128.167969 217.117188 130.132812 213.632812 131.757812 211.378906 C 132.90625 209.78125 134.035156 208.578125 134.695312 207.921875 C 124.636719 203.964844 116.382812 202.277344 111.1875 201.558594 C 105.421875 200.757812 102.070312 200.945312 102.039062 200.949219 C 101.757812 200.960938 101.519531 200.75 101.503906 200.472656 C 101.484375 200.191406 101.699219 199.953125 101.976562 199.9375 C 102.113281 199.929688 115.683594 199.210938 135.804688 207.269531 C 135.964844 207.335938 136.082031 207.480469 136.113281 207.652344 C 136.144531 207.824219 136.082031 208.003906 135.953125 208.117188 C 135.886719 208.179688 129.273438 214.15625 129.058594 220.941406 C 129.050781 221.214844 128.824219 221.429688 128.554688 221.429688"/><path d="M 166.828125 224.082031 C 166.65625 224.082031 166.492188 223.996094 166.394531 223.84375 C 166.382812 223.820312 164.929688 221.492188 163.960938 220.210938 C 163.792969 219.988281 163.835938 219.667969 164.058594 219.5 C 164.28125 219.332031 164.597656 219.375 164.769531 219.597656 C 165.765625 220.917969 167.195312 223.207031 167.253906 223.304688 C 167.402344 223.542969 167.332031 223.855469 167.09375 224.003906 C 167.011719 224.054688 166.917969 224.082031 166.828125 224.082031"/><path d="M 157.644531 224.394531 C 157.46875 224.394531 157.296875 224.300781 157.203125 224.136719 C 157.066406 223.890625 157.15625 223.582031 157.398438 223.445312 C 164.480469 219.519531 165.035156 218.441406 165.074219 218.265625 C 165.074219 216.753906 153.527344 201.421875 137.46875 195.648438 C 113.113281 186.890625 99.441406 190.355469 99.304688 190.390625 C 99.035156 190.460938 98.757812 190.300781 98.683594 190.03125 C 98.613281 189.761719 98.773438 189.484375 99.042969 189.410156 C 99.605469 189.261719 113.117188 185.816406 137.8125 194.695312 C 154.023438 200.519531 166.085938 216.125 166.085938 218.28125 C 166.085938 218.769531 166.085938 219.789062 157.890625 224.332031 C 157.8125 224.375 157.730469 224.394531 157.644531 224.394531"/><g><g><g><path d="M 16.625 -20.46875 L 16.625 -24.035156 L 2.84375 -24.035156 L 2.84375 0 L 16.625 0 L 16.625 -3.566406 L 6.769531 -3.566406 L 6.769531 -10.214844 L 15.300781 -10.214844 L 15.300781 -13.820312 L 6.769531 -13.820312 L 6.769531 -20.46875 Z M 16.625 -20.46875" transform="translate(46.088 108.53)"/></g></g></g><g><g><g><path d="M 17.105469 -24.035156 L 10.613281 -4.96875 L 4.085938 -24.035156 L -0.28125 -24.035156 L 8.410156 0 L 12.777344 0 L 21.46875 -24.035156 Z M 17.105469 -24.035156" transform="translate(64.754 108.53)"/></g></g></g><g><g><g><path d="M 17.222656 0 L 21.46875 0 L 12.777344 -24.035156 L 8.410156 -24.035156 L -0.28125 0 L 3.964844 0 L 5.6875 -5.085938 L 15.503906 -5.085938 Z M 6.851562 -8.53125 L 10.613281 -19.75 L 14.378906 -8.53125 Z M 6.851562 -8.53125" transform="translate(85.944 108.53)"/></g></g></g><g><g><g><path d="M 6.570312 -3.644531 L 6.570312 -24.035156 L 2.644531 -24.035156 L 2.644531 0 L 15.019531 0 L 15.019531 -3.644531 Z M 6.570312 -3.644531" transform="translate(107.134 108.53)"/></g></g></g><g><g><g><path d="M 12.015625 0.320312 C 17.464844 0.320312 21.550781 -3.164062 21.550781 -7.8125 L 21.550781 -24.035156 L 17.625 -24.035156 L 17.625 -8.492188 C 17.625 -5.527344 15.222656 -3.324219 12.015625 -3.324219 C 8.8125 -3.324219 6.449219 -5.527344 6.449219 -8.492188 L 6.449219 -24.035156 L 2.523438 -24.035156 L 2.523438 -7.8125 C 2.523438 -3.164062 6.570312 0.320312 12.015625 0.320312 Z M 12.015625 0.320312" transform="translate(122.355 108.53)"/></g></g></g><g><g><g><path d="M 17.222656 0 L 21.46875 0 L 12.777344 -24.035156 L 8.410156 -24.035156 L -0.28125 0 L 3.964844 0 L 5.6875 -5.085938 L 15.503906 -5.085938 Z M 6.851562 -8.53125 L 10.613281 -19.75 L 14.378906 -8.53125 Z M 6.851562 -8.53125" transform="translate(146.429 108.53)"/></g></g></g><g><g><g><path d="M 16.703125 -24.035156 L 0.0820312 -24.035156 L 0.0820312 -20.390625 L 6.449219 -20.390625 L 6.449219 0 L 10.335938 0 L 10.335938 -20.390625 L 16.703125 -20.390625 Z M 16.703125 -24.035156" transform="translate(167.619 108.53)"/></g></g></g><g><g><g><path d="M 16.625 -20.46875 L 16.625 -24.035156 L 2.84375 -24.035156 L 2.84375 0 L 16.625 0 L 16.625 -3.566406 L 6.769531 -3.566406 L 6.769531 -10.214844 L 15.300781 -10.214844 L 15.300781 -13.820312 L 6.769531 -13.820312 L 6.769531 -20.46875 Z M 16.625 -20.46875" transform="translate(184.402 108.53)"/></g></g></g><g><g><g><path d="M 17.222656 0 L 21.46875 0 L 12.777344 -24.035156 L 8.410156 -24.035156 L -0.28125 0 L 3.964844 0 L 5.6875 -5.085938 L 15.503906 -5.085938 Z M 6.851562 -8.53125 L 10.613281 -19.75 L 14.378906 -8.53125 Z M 6.851562 -8.53125" transform="translate(212.682 108.53)"/></g></g></g><g><g><g><path d="M 14.101562 -12.976562 L 14.101562 -9.695312 L 22.273438 -9.695312 C 21.308594 -6.089844 18.066406 -3.566406 14.140625 -3.566406 C 9.375 -3.566406 5.648438 -7.25 5.648438 -12.015625 C 5.648438 -16.785156 9.375 -20.46875 14.140625 -20.46875 C 17.382812 -20.46875 20.148438 -18.746094 21.589844 -16.101562 L 24.957031 -17.90625 C 22.871094 -21.75 18.785156 -24.355469 14.140625 -24.355469 C 7.289062 -24.355469 1.800781 -18.828125 1.800781 -12.015625 C 1.800781 -5.207031 7.289062 0.320312 14.140625 0.320312 C 20.949219 0.320312 26.476562 -5.207031 26.476562 -12.015625 L 26.476562 -12.976562 Z M 14.101562 -12.976562" transform="translate(233.872 108.53)"/></g></g></g><g><g><g><path d="M 17.222656 0 L 21.46875 0 L 12.777344 -24.035156 L 8.410156 -24.035156 L -0.28125 0 L 3.964844 0 L 5.6875 -5.085938 L 15.503906 -5.085938 Z M 6.851562 -8.53125 L 10.613281 -19.75 L 14.378906 -8.53125 Z M 6.851562 -8.53125" transform="translate(262.111 108.53)"/></g></g></g><g><g><g><path d="M 2.84375 0 L 6.769531 0 L 6.769531 -24.035156 L 2.84375 -24.035156 Z M 2.84375 0" transform="translate(283.301 108.53)"/></g></g></g><g><g><g><path d="M 19.910156 -24.035156 L 19.910156 -6.207031 L 6.570312 -24.035156 L 2.644531 -24.035156 L 2.644531 0 L 6.570312 0 L 6.570312 -17.867188 L 19.867188 0 L 23.792969 0 L 23.792969 -24.035156 Z M 19.910156 -24.035156" transform="translate(292.875 108.53)"/></g></g></g></svg>