<svg xmlns="http://www.w3.org/2000/svg" width="375" viewBox="0 0 375 375" height="375" version="1.0"><defs><clipPath id="a"><path d="M 83 107.148438 L 284.128906 107.148438 L 284.128906 251 L 83 251 Z M 83 107.148438"/></clipPath><clipPath id="b"><path d="M 224 155 L 284.128906 155 L 284.128906 251 L 224 251 Z M 224 155"/></clipPath><clipPath id="c"><path d="M 235.628906 229 L 284.128906 229 L 284.128906 251.160156 L 235.628906 251.160156 Z M 235.628906 229"/></clipPath><clipPath id="d"><path d="M 267 181 L 284.128906 181 L 284.128906 196 L 267 196 Z M 267 181"/></clipPath><clipPath id="e"><path d="M 264 154 L 284.128906 154 L 284.128906 173 L 264 173 Z M 264 154"/></clipPath><clipPath id="f"><path d="M 55.777344 248 L 284.128906 248 L 284.128906 250.875 L 55.777344 250.875 Z M 55.777344 248"/></clipPath></defs><path fill="#FFF" d="M-37.5 -37.5H412.5V412.5H-37.5z"/><path fill="#FFF" d="M-37.5 -37.5H412.5V412.5H-37.5z"/><path fill="#FFF" d="M-37.5 -37.5H412.5V412.5H-37.5z"/><g clip-path="url(#a)"><path fill="#FFF" d="M 336.910156 42.394531 L 334.855469 5.425781 L 336.910156 4.398438 L 383.128906 64.984375 L 362.589844 114.28125 L 357.449219 124.546875 C 356.421875 108.117188 336.910156 42.394531 336.910156 42.394531 Z M 379.019531 151.25 L 373.886719 144.058594 C 373.886719 144.058594 375.9375 136.871094 373.886719 131.734375 L 395.457031 105.035156 Z M 865.355469 161.003906 C 853.035156 161.003906 842.761719 175.378906 842.761719 175.378906 L 836.59375 183.597656 C 836.59375 183.597656 832.488281 168.191406 830.429688 165.109375 C 828.378906 162.03125 825.296875 156.894531 815.023438 161.003906 C 804.753906 165.109375 803.726562 188.730469 803.726562 191.8125 C 803.726562 194.890625 801.675781 196.945312 799.617188 200.027344 C 797.566406 203.105469 797.566406 209.265625 797.566406 209.265625 L 793.457031 210.296875 L 791.40625 207.214844 L 789.347656 207.214844 L 785.246094 197.972656 L 712.316406 194.890625 C 712.316406 194.890625 683.558594 193.863281 669.175781 189.757812 C 654.800781 185.648438 650.691406 183.597656 650.691406 183.597656 C 638.59375 178.152344 581.964844 171.996094 537.453125 167.855469 L 537.195312 167.675781 C 537.136719 167.722656 537.082031 167.769531 537.023438 167.816406 C 530.824219 167.242188 524.867188 166.703125 519.300781 166.214844 C 523.90625 149.300781 532.824219 116.070312 532.058594 115.304688 C 531.03125 114.28125 525.898438 115.304688 525.898438 115.304688 L 526.925781 101.953125 C 526.925781 101.953125 538.222656 108.117188 537.195312 99.902344 C 536.167969 91.6875 513.570312 17.75 495.085938 -17.167969 C 476.59375 -52.085938 460.164062 -81.863281 460.164062 -81.863281 C 460.164062 -81.863281 459.136719 -110.617188 434.484375 -122.941406 C 409.832031 -135.261719 362.589844 -134.234375 362.589844 -134.234375 L 333.828125 -177.367188 C 333.828125 -177.367188 342.046875 -178.394531 338.964844 -191.746094 C 335.882812 -205.09375 332.800781 -211.257812 323.554688 -206.121094 C 323.554688 -206.121094 318.421875 -224.605469 307.125 -222.550781 C 307.125 -222.550781 310.203125 -235.902344 294.800781 -245.144531 C 279.390625 -254.386719 268.09375 -241.035156 268.09375 -241.035156 C 268.09375 -241.035156 255.765625 -257.46875 239.335938 -248.226562 C 222.898438 -238.980469 228.035156 -225.632812 228.035156 -225.632812 C 228.035156 -225.632812 211.601562 -221.523438 206.46875 -204.066406 C 201.332031 -186.609375 214.683594 -179.421875 214.683594 -179.421875 C 214.683594 -179.421875 209.546875 -170.179688 224.957031 -167.097656 C 224.957031 -167.097656 228.035156 -151.695312 243.441406 -156.828125 C 243.441406 -156.828125 283.5 -99.320312 312.257812 -112.667969 L 316.367188 -106.507812 C 316.367188 -106.507812 289.664062 -74.675781 282.472656 -51.058594 C 275.285156 -27.4375 284.527344 14.664062 284.527344 14.664062 L 291.203125 13.125 C 291.203125 13.125 298.394531 35.71875 307.636719 51.125 C 307.636719 51.125 304.554688 80.90625 338.449219 126.089844 C 338.449219 126.089844 334.964844 131.222656 331.261719 131.222656 C 330.234375 131.222656 325.097656 133.277344 325.097656 133.277344 L 309.691406 141.492188 C 309.691406 141.492188 301.476562 138.410156 300.449219 142.519531 C 299.421875 146.628906 303.527344 147.652344 303.527344 147.652344 C 303.527344 147.652344 294.285156 147.652344 294.285156 151.761719 C 294.285156 154.039062 295.859375 155.363281 297.269531 156.097656 C 280.945312 161.917969 265.527344 171.269531 265.527344 171.269531 L 260.390625 171.269531 L 262.445312 166.136719 C 262.445312 166.136719 245.476562 166.152344 240.875 169.21875 C 237.792969 171.269531 236.765625 173.324219 236.765625 173.324219 C 234.84375 162.742188 229.308594 156.664062 200.730469 151.714844 C 200.535156 148.863281 199.882812 143.949219 197.734375 142.519531 C 195.304688 140.894531 181.335938 146.324219 175.574219 148.671875 C 158.707031 147.5625 147.410156 148.679688 147.410156 148.679688 C 147.410156 148.679688 150.488281 138.410156 146.382812 135.328125 C 142.273438 132.25 132.003906 136.355469 132.003906 136.355469 C 128.921875 121.980469 120.078125 110.144531 111.460938 116.847656 C 102.21875 124.035156 104.269531 153.816406 104.269531 153.816406 C 92.972656 150.734375 79.335938 153.042969 84.753906 177.433594 C 88.863281 195.917969 107.351562 217.484375 107.351562 217.484375 C 107.351562 217.484375 95.023438 218.511719 95.023438 223.644531 C 95.023438 228.78125 109.40625 226.726562 109.40625 226.726562 C 109.40625 226.726562 95.023438 245.210938 104.269531 248.292969 C 112.125 250.910156 120.703125 235.96875 120.703125 235.96875 C 125.839844 248.292969 158.746094 251.136719 176.167969 247.261719 C 203.898438 241.101562 200.820312 232.886719 200.820312 232.886719 L 223.925781 230.320312 L 225.980469 237.507812 L 238.308594 234.425781 C 238.308594 234.425781 243.441406 244.699219 261.929688 248.804688 C 280.417969 252.914062 325.613281 247.777344 325.613281 247.777344 C 335.882812 252.914062 354.371094 246.75 354.371094 246.75 L 381.039062 244.398438 C 386.71875 246.832031 394.148438 247.859375 402.265625 247.984375 C 419.117188 250.363281 443.664062 246.230469 459.105469 242.953125 C 459.105469 242.953125 471.460938 249.832031 487.382812 249.320312 C 489.484375 249.25 491.679688 249.03125 493.769531 248.75 C 494.203125 248.769531 494.640625 248.792969 495.085938 248.804688 C 503.460938 249.03125 517.488281 248.195312 531.9375 246.949219 C 569.785156 247.128906 614.628906 247.015625 656.324219 246.796875 C 656.632812 246.902344 656.8125 246.96875 656.8125 246.96875 C 656.8125 246.96875 662.808594 248.570312 667.164062 246.738281 C 735.054688 246.347656 791.921875 245.726562 791.921875 245.726562 L 792.945312 240.589844 L 806.296875 239.5625 C 810.402344 250.859375 826.328125 250.347656 831.457031 249.320312 C 836.59375 248.292969 847.898438 236.996094 847.898438 236.996094 C 865.355469 222.617188 877.675781 184.621094 877.675781 178.460938 C 877.675781 172.296875 877.675781 161.003906 865.355469 161.003906"/></g><g clip-path="url(#b)"><path fill="#72D6CA" d="M 376.207031 155.5625 C 375.15625 157.066406 373.835938 158.382812 372.257812 159.371094 C 369.113281 161.339844 365.167969 161.847656 361.867188 163.734375 C 359.464844 165.109375 356.871094 166.636719 354.347656 164.601562 C 353.007812 163.523438 352.359375 161.867188 351.972656 160.164062 C 348.617188 160.222656 345.265625 160.277344 341.910156 160.371094 C 341.507812 160.972656 341.082031 161.554688 340.632812 162.105469 C 339.570312 163.414062 338.160156 164.539062 336.394531 164.503906 C 334.554688 164.46875 333.410156 163.128906 332.769531 161.578125 C 324.914062 165.796875 315.4375 169.429688 313.355469 162.386719 C 305.710938 163.921875 298.867188 163.789062 298.734375 158.308594 C 284.46875 163.222656 270.660156 171.269531 270.660156 171.269531 L 260.390625 171.269531 L 261.742188 167.886719 C 261.742188 167.886719 247.039062 169.21875 241.902344 171.269531 C 236.765625 173.324219 235.742188 178.460938 235.742188 178.460938 L 236.371094 185.8125 C 236.371094 185.8125 231.632812 192.835938 226.496094 212.351562 C 221.359375 231.859375 227.523438 241.101562 227.523438 241.101562 L 237.792969 239.050781 C 252.171875 254.453125 282.582031 250.386719 282.582031 250.386719 L 325.613281 247.777344 C 331.773438 250.859375 354.371094 247.777344 354.371094 247.777344 C 346.152344 220.050781 359.507812 203.621094 359.507812 203.621094 L 392.375 215.945312 C 409.832031 213.890625 469.917969 220.566406 469.917969 220.566406 L 477.109375 183.597656 L 480.191406 166.136719 C 474.023438 161.207031 421.210938 157.382812 376.207031 155.5625"/></g><path fill="#C69C6D" d="M 135.085938 177.433594 C 135.085938 177.433594 155.625 145.601562 151.515625 137.382812 C 147.410156 129.167969 132.003906 140.464844 132.003906 140.464844 C 132.003906 140.464844 123.785156 116.847656 113.515625 119.925781 C 103.246094 123.007812 107.351562 159.976562 107.351562 159.976562 C 107.351562 159.976562 101.191406 155.867188 92.972656 158.949219 C 84.753906 162.03125 85.78125 185.648438 107.351562 217.484375 C 107.351562 217.484375 94 220.566406 95.023438 223.644531 C 96.054688 226.726562 109.40625 226.726562 109.40625 226.726562 C 109.40625 226.726562 99.136719 248.292969 110.433594 249.320312 C 121.730469 250.347656 121.730469 236.996094 121.730469 236.996094 C 121.730469 236.996094 125.003906 247.28125 154.695312 248.8125 C 184.382812 250.347656 205.953125 238.023438 199.792969 229.804688 C 199.792969 229.804688 184.898438 242.644531 175.65625 237.507812 C 166.410156 232.375 175.65625 215.945312 175.65625 215.945312 L 186.953125 215.945312 C 186.953125 215.945312 187.980469 206.703125 184.898438 205.671875 C 181.816406 204.644531 153.058594 202.59375 153.058594 202.59375 C 153.058594 202.59375 144.839844 183.082031 135.085938 177.433594"/><path d="M 214.558594 155.011719 C 213.714844 154.847656 212.875 154.683594 212.035156 154.523438 C 211.460938 159.148438 211.792969 163.898438 212.277344 167.472656 C 212.371094 168.152344 212.972656 168.632812 213.648438 168.582031 C 213.671875 168.582031 213.695312 168.578125 213.722656 168.574219 C 214.425781 168.480469 214.917969 167.832031 214.820312 167.128906 C 214.441406 164.320312 214.019531 159.617188 214.558594 155.011719"/><g clip-path="url(#c)"><path d="M 285.96875 251.160156 C 262.75 251.160156 241.433594 247.503906 236.058594 230.710938 C 235.84375 230.039062 236.214844 229.3125 236.890625 229.097656 C 237.5625 228.878906 238.289062 229.253906 238.503906 229.925781 C 245.480469 251.726562 283.714844 249.332031 314.4375 247.402344 C 318.394531 247.15625 322.132812 246.921875 325.671875 246.75 C 326.390625 246.6875 326.980469 247.261719 327.015625 247.96875 C 327.050781 248.679688 326.503906 249.28125 325.796875 249.3125 C 322.273438 249.484375 318.546875 249.71875 314.597656 249.964844 C 305.386719 250.542969 295.515625 251.160156 285.96875 251.160156"/></g><g clip-path="url(#d)"><path d="M 332.699219 195.152344 C 332.578125 195.152344 332.457031 195.136719 332.335938 195.101562 C 329.199219 194.179688 326.042969 193.199219 322.992188 192.25 C 306.710938 187.171875 289.882812 181.921875 268.582031 184.378906 C 267.875 184.457031 267.242188 183.957031 267.160156 183.253906 C 267.078125 182.550781 267.582031 181.910156 268.289062 181.832031 C 290.128906 179.3125 307.222656 184.640625 323.757812 189.796875 C 326.796875 190.746094 329.941406 191.722656 333.058594 192.636719 C 333.738281 192.835938 334.128906 193.550781 333.929688 194.230469 C 333.765625 194.789062 333.253906 195.152344 332.699219 195.152344"/></g><path d="M 273.398438 170.292969 C 273.199219 169.777344 272.691406 169.453125 272.140625 169.476562 C 271.253906 169.519531 250.320312 170.535156 244.0625 172.621094 C 240.089844 173.945312 233.328125 186.625 228.984375 197.882812 C 225.707031 206.367188 218.75 227.269531 224.863281 238.140625 C 225.09375 238.546875 225.527344 238.792969 225.980469 238.792969 C 226.078125 238.792969 226.175781 238.78125 226.273438 238.761719 L 239.621094 235.679688 C 239.917969 235.613281 240.148438 235.433594 240.324219 235.21875 C 239.859375 234.542969 239.394531 233.871094 238.917969 233.207031 L 226.667969 236.03125 C 223.367188 228.875 225.085938 215.101562 231.375 198.808594 C 236.660156 185.121094 242.800781 175.75 244.875 175.058594 C 249.257812 173.597656 262.027344 172.652344 268.460938 172.257812 C 234.398438 201.863281 235.917969 223.347656 236.003906 224.273438 C 236.066406 224.984375 236.695312 225.5 237.398438 225.4375 C 238.101562 225.371094 238.625 224.75 238.558594 224.042969 C 238.539062 223.824219 236.980469 201.773438 273.023438 171.746094 C 273.445312 171.394531 273.597656 170.804688 273.398438 170.292969"/><path d="M 223.773438 229.042969 L 200.824219 231.796875 C 200.839844 231.878906 200.859375 231.960938 200.863281 232.042969 C 200.929688 232.824219 200.902344 233.617188 200.769531 234.390625 L 224.082031 231.59375 C 224.785156 231.511719 225.285156 230.871094 225.203125 230.167969 C 225.117188 229.460938 224.472656 228.964844 223.773438 229.042969"/><g clip-path="url(#e)"><path d="M 294.882812 154.765625 C 279.257812 160.476562 266.027344 169.222656 265.328125 169.691406 C 264.738281 170.082031 264.578125 170.882812 264.972656 171.472656 C 265.367188 172.0625 266.160156 172.21875 266.75 171.828125 C 266.925781 171.710938 281.214844 162.265625 297.363281 156.621094 C 296.417969 156.171875 295.5625 155.574219 294.882812 154.765625"/></g><path d="M 264 164.875 C 263.746094 164.519531 263.339844 164.328125 262.890625 164.34375 C 260.855469 164.449219 242.863281 165.484375 238.566406 168.703125 C 237.917969 169.191406 237.265625 170.054688 236.589844 171.289062 C 236.59375 171.324219 236.601562 171.355469 236.601562 171.394531 C 236.605469 173.503906 236.65625 175.617188 236.664062 177.730469 C 236.675781 177.703125 236.691406 177.683594 236.699219 177.65625 C 238.515625 172.375 239.683594 171.074219 240.105469 170.757812 C 242.65625 168.84375 253.332031 167.542969 261.015625 167.027344 L 259.710938 170.28125 C 259.449219 170.941406 259.769531 171.6875 260.429688 171.953125 C 261.089844 172.214844 261.832031 171.894531 262.097656 171.234375 L 264.148438 166.101562 C 264.3125 165.695312 264.257812 165.230469 264 164.875"/><path d="M 172.242188 169.058594 C 171.722656 169.03125 171.25 168.691406 171.082031 168.164062 L 167.507812 157.695312 C 167.292969 157.023438 167.667969 156.300781 168.339844 156.085938 C 169.015625 155.871094 169.742188 156.246094 169.953125 156.921875 L 173.53125 167.390625 C 173.746094 168.0625 173.371094 168.785156 172.695312 169 C 172.546875 169.046875 172.390625 169.066406 172.242188 169.058594"/><path d="M 220.8125 214.210938 C 220.5625 214.210938 220.308594 214.136719 220.085938 213.984375 C 219.503906 213.582031 219.355469 212.78125 219.757812 212.199219 C 234.34375 191.042969 238.332031 177.847656 233.535156 166.640625 C 230.066406 158.558594 208.65625 154.824219 200.699219 154.066406 C 200.015625 154 199.503906 153.410156 199.535156 152.726562 C 199.617188 151.003906 199.417969 146.152344 197.582031 144.390625 C 197.085938 143.917969 196.519531 143.726562 195.800781 143.796875 C 192.941406 144.058594 178.707031 148.296875 173.464844 149.910156 C 173.296875 149.960938 173.117188 149.972656 172.945312 149.957031 C 166.820312 149.277344 157.34375 149.523438 152.234375 149.726562 C 151.515625 149.785156 150.929688 149.207031 150.902344 148.496094 C 150.875 147.785156 151.421875 147.191406 152.132812 147.160156 C 158.363281 146.914062 166.992188 146.746094 172.960938 147.375 C 175.328125 146.648438 192.046875 141.5625 195.566406 141.238281 C 197.019531 141.105469 198.332031 141.558594 199.355469 142.539062 C 201.714844 144.800781 202.085938 149.398438 202.117188 151.636719 C 207.796875 152.296875 231.605469 155.636719 235.894531 165.632812 C 241.089844 177.757812 237.03125 191.671875 221.871094 213.65625 C 221.621094 214.015625 221.222656 214.210938 220.8125 214.210938"/><path d="M 121.21875 233.144531 C 121.347656 233.144531 121.476562 233.164062 121.605469 233.207031 C 122.183594 233.390625 122.558594 233.949219 122.496094 234.554688 C 122.488281 234.628906 122.113281 243.683594 143.976562 246.507812 C 174.828125 250.476562 193.175781 241.261719 196.402344 238.578125 C 199.65625 235.863281 199.792969 233.449219 199.421875 232.003906 C 193.730469 237.390625 183.425781 240.84375 177.078125 239.25 C 173.945312 238.464844 171.957031 236.539062 171.320312 233.679688 C 169.175781 224.035156 174.34375 215.617188 174.566406 215.265625 C 174.800781 214.886719 175.210938 214.660156 175.65625 214.660156 L 185.792969 214.660156 C 186.003906 211.773438 185.714844 208.039062 184.347656 207.351562 C 182.25 206.300781 163.894531 204.644531 152.816406 203.84375 C 152.339844 203.808594 151.921875 203.511719 151.730469 203.078125 C 151.652344 202.898438 143.707031 184.925781 133.910156 179.046875 C 133.3125 178.691406 133.109375 177.921875 133.449219 177.316406 C 133.5 177.230469 138.269531 168.734375 142.085938 159.394531 C 146.894531 147.613281 148.117188 139.5625 145.519531 136.734375 C 143.1875 134.191406 137.449219 136.039062 133.046875 138.039062 C 132.691406 138.203125 132.28125 138.191406 131.9375 138.015625 C 131.589844 137.839844 131.335938 137.511719 131.257812 137.132812 C 131.226562 136.984375 128.097656 122.367188 120.804688 117.703125 C 118.761719 116.390625 116.636719 116.019531 114.316406 116.554688 C 104.285156 118.871094 104.953125 144.5 106.058594 154.183594 C 106.113281 154.664062 105.894531 155.136719 105.484375 155.402344 C 105.078125 155.667969 104.554688 155.679688 104.136719 155.4375 C 103.679688 155.171875 92.820312 149.066406 86.378906 160.109375 C 83.460938 165.109375 85.078125 175.476562 90.816406 188.554688 C 95.636719 199.539062 102.84375 211.074219 108.34375 216.601562 C 108.679688 216.9375 108.800781 217.429688 108.660156 217.882812 C 108.523438 218.335938 108.144531 218.675781 107.683594 218.765625 C 104.179688 219.457031 98.167969 221.28125 96.925781 223.234375 C 96.742188 223.527344 96.753906 223.710938 96.785156 223.847656 C 97.210938 225.539062 104.484375 225.625 110.703125 224.574219 C 111.25 224.484375 111.796875 224.75 112.054688 225.242188 C 112.316406 225.734375 112.226562 226.335938 111.839844 226.734375 C 109.136719 229.507812 102.21875 237.898438 102.644531 243.328125 C 102.757812 244.765625 103.371094 245.886719 104.527344 246.75 C 105.339844 247.359375 106.242188 247.554688 107.273438 247.335938 C 112.089844 246.324219 118.164062 237.21875 120.101562 233.796875 C 120.332031 233.386719 120.765625 233.144531 121.21875 233.144531 Z M 159.007812 250.066406 C 154.277344 250.066406 149.15625 249.761719 143.652344 249.050781 C 127.476562 246.964844 122.300781 241.441406 120.667969 237.773438 C 118.066406 241.753906 112.839844 248.792969 107.804688 249.847656 C 106.027344 250.21875 104.40625 249.867188 102.988281 248.804688 C 101.230469 247.488281 100.253906 245.710938 100.085938 243.523438 C 99.660156 238.082031 104.574219 231.269531 107.644531 227.585938 C 102.664062 228.125 95.242188 228.257812 94.292969 224.46875 C 94.074219 223.589844 94.234375 222.683594 94.761719 221.855469 C 96.40625 219.261719 101.835938 217.550781 104.976562 216.75 C 94.273438 204.566406 76.785156 171.453125 84.160156 158.816406 C 90.042969 148.730469 99.179688 150.691406 103.296875 152.253906 C 102.625 144.140625 101.320312 116.917969 113.738281 114.054688 C 116.726562 113.363281 119.570312 113.863281 122.191406 115.539062 C 128.964844 119.875 132.359375 130.980469 133.410156 135.078125 C 140.25 132.21875 144.839844 132.191406 147.414062 135 C 154.632812 142.871094 139.894531 170.9375 136.277344 177.515625 C 145.238281 183.644531 152.195312 197.9375 153.761719 201.339844 C 160.007812 201.796875 182.464844 203.539062 185.5 205.058594 C 189.230469 206.929688 188.425781 214.59375 188.222656 216.109375 C 188.140625 216.75 187.597656 217.226562 186.953125 217.226562 L 176.40625 217.226562 C 175.335938 219.226562 172.21875 225.902344 173.824219 233.121094 C 174.25 235.019531 175.515625 236.210938 177.699219 236.761719 C 183.550781 238.234375 194.175781 234.308594 198.757812 228.992188 C 200.207031 227.308594 200.832031 225.539062 200.660156 223.578125 C 200.253906 218.917969 195.433594 214.921875 195.386719 214.882812 C 194.835938 214.433594 194.753906 213.625 195.203125 213.078125 C 195.648438 212.53125 196.457031 212.445312 197.007812 212.894531 C 197.238281 213.082031 202.707031 217.59375 203.21875 223.34375 C 203.421875 225.691406 202.785156 227.886719 201.320312 229.890625 C 202.207031 231.699219 203.441406 236.050781 198.046875 240.546875 C 194.597656 243.421875 181.109375 250.0625 159.007812 250.066406"/><path d="M 164.355469 176.148438 C 164.042969 176.148438 163.734375 176.039062 163.484375 175.808594 C 162.910156 175.277344 149.421875 162.679688 154.523438 154.183594 C 154.890625 153.574219 155.679688 153.378906 156.285156 153.738281 C 156.894531 154.105469 157.09375 154.894531 156.726562 155.503906 C 153.382812 161.078125 161.726562 170.691406 165.226562 173.921875 C 165.75 174.40625 165.777344 175.214844 165.300781 175.738281 C 165.046875 176.011719 164.703125 176.148438 164.355469 176.148438"/><g clip-path="url(#f)"><path d="M 929.105469 250.601562 L 57.058594 250.601562 C 56.351562 250.601562 55.777344 250.027344 55.777344 249.320312 C 55.777344 248.609375 56.351562 248.035156 57.058594 248.035156 L 929.105469 248.035156 C 929.8125 248.035156 930.390625 248.609375 930.390625 249.320312 C 930.390625 250.027344 929.8125 250.601562 929.105469 250.601562"/></g><g><g><g><path d="M 13.441406 -16.554688 L 13.441406 -19.4375 L 2.300781 -19.4375 L 2.300781 0 L 13.441406 0 L 13.441406 -2.882812 L 5.472656 -2.882812 L 5.472656 -8.261719 L 12.375 -8.261719 L 12.375 -11.175781 L 5.472656 -11.175781 L 5.472656 -16.554688 Z M 13.441406 -16.554688" transform="translate(105.752 86.357)"/></g></g></g><g><g><g><path d="M 13.832031 -19.4375 L 8.585938 -4.015625 L 3.304688 -19.4375 L -0.226562 -19.4375 L 6.800781 0 L 10.332031 0 L 17.363281 -19.4375 Z M 13.832031 -19.4375" transform="translate(120.846 86.357)"/></g></g></g><g><g><g><path d="M 13.929688 0 L 17.363281 0 L 10.332031 -19.4375 L 6.800781 -19.4375 L -0.226562 0 L 3.207031 0 L 4.601562 -4.113281 L 12.535156 -4.113281 Z M 5.539062 -6.898438 L 8.585938 -15.96875 L 11.628906 -6.898438 Z M 5.539062 -6.898438" transform="translate(137.98 86.357)"/></g></g></g><g><g><g><path d="M 5.3125 -2.949219 L 5.3125 -19.4375 L 2.136719 -19.4375 L 2.136719 0 L 12.148438 0 L 12.148438 -2.949219 Z M 5.3125 -2.949219" transform="translate(155.116 86.357)"/></g></g></g><g><g><g><path d="M 9.71875 0.257812 C 14.125 0.257812 17.425781 -2.558594 17.425781 -6.316406 L 17.425781 -19.4375 L 14.253906 -19.4375 L 14.253906 -6.867188 C 14.253906 -4.46875 12.308594 -2.6875 9.71875 -2.6875 C 7.125 -2.6875 5.214844 -4.46875 5.214844 -6.867188 L 5.214844 -19.4375 L 2.039062 -19.4375 L 2.039062 -6.316406 C 2.039062 -2.558594 5.3125 0.257812 9.71875 0.257812 Z M 9.71875 0.257812" transform="translate(167.424 86.357)"/></g></g></g><g><g><g><path d="M 13.929688 0 L 17.363281 0 L 10.332031 -19.4375 L 6.800781 -19.4375 L -0.226562 0 L 3.207031 0 L 4.601562 -4.113281 L 12.535156 -4.113281 Z M 5.539062 -6.898438 L 8.585938 -15.96875 L 11.628906 -6.898438 Z M 5.539062 -6.898438" transform="translate(186.89 86.357)"/></g></g></g><g><g><g><path d="M 13.507812 -19.4375 L 0.0664062 -19.4375 L 0.0664062 -16.488281 L 5.214844 -16.488281 L 5.214844 0 L 8.359375 0 L 8.359375 -16.488281 L 13.507812 -16.488281 Z M 13.507812 -19.4375" transform="translate(204.025 86.357)"/></g></g></g><g><g><g><path d="M 13.441406 -16.554688 L 13.441406 -19.4375 L 2.300781 -19.4375 L 2.300781 0 L 13.441406 0 L 13.441406 -2.882812 L 5.472656 -2.882812 L 5.472656 -8.261719 L 12.375 -8.261719 L 12.375 -11.175781 L 5.472656 -11.175781 L 5.472656 -16.554688 Z M 13.441406 -16.554688" transform="translate(217.597 86.357)"/></g></g></g><g><g><g><path d="M 11.078125 0 L 9.546875 -3.90625 L 3.453125 -3.90625 L 1.921875 0 L 0.03125 0 L 5.5 -13.375 L 7.5625 -13.375 L 12.921875 0 Z M 6.5 -12 L 6.421875 -11.734375 C 6.253906 -11.210938 6.019531 -10.539062 5.71875 -9.71875 L 4 -5.328125 L 9 -5.328125 L 7.296875 -9.734375 C 7.109375 -10.171875 6.925781 -10.664062 6.75 -11.21875 Z M 6.5 -12" transform="translate(0 286.537)"/></g></g><g><g><path d="M 1.34375 0 L 1.34375 -7.875 C 1.34375 -8.59375 1.328125 -9.390625 1.296875 -10.265625 L 2.90625 -10.265625 C 2.957031 -9.097656 2.984375 -8.398438 2.984375 -8.171875 L 3.015625 -8.171875 C 3.285156 -9.046875 3.597656 -9.644531 3.953125 -9.96875 C 4.304688 -10.289062 4.804688 -10.453125 5.453125 -10.453125 C 5.679688 -10.453125 5.914062 -10.421875 6.15625 -10.359375 L 6.15625 -8.796875 C 5.925781 -8.859375 5.617188 -8.890625 5.234375 -8.890625 C 4.523438 -8.890625 3.984375 -8.582031 3.609375 -7.96875 C 3.242188 -7.363281 3.0625 -6.492188 3.0625 -5.359375 L 3.0625 0 Z M 1.34375 0" transform="translate(12.966 286.537)"/></g></g><g><g><path d="M 2.625 -4.78125 C 2.625 -3.601562 2.863281 -2.691406 3.34375 -2.046875 C 3.832031 -1.410156 4.546875 -1.09375 5.484375 -1.09375 C 6.222656 -1.09375 6.816406 -1.238281 7.265625 -1.53125 C 7.710938 -1.832031 8.015625 -2.210938 8.171875 -2.671875 L 9.671875 -2.234375 C 9.054688 -0.617188 7.660156 0.1875 5.484375 0.1875 C 3.960938 0.1875 2.804688 -0.265625 2.015625 -1.171875 C 1.222656 -2.078125 0.828125 -3.421875 0.828125 -5.203125 C 0.828125 -6.898438 1.222656 -8.195312 2.015625 -9.09375 C 2.804688 -10 3.941406 -10.453125 5.421875 -10.453125 C 8.441406 -10.453125 9.953125 -8.632812 9.953125 -5 L 9.953125 -4.78125 Z M 8.1875 -6.078125 C 8.082031 -7.160156 7.800781 -7.953125 7.34375 -8.453125 C 6.894531 -8.953125 6.242188 -9.203125 5.390625 -9.203125 C 4.554688 -9.203125 3.898438 -8.921875 3.421875 -8.359375 C 2.941406 -7.804688 2.679688 -7.046875 2.640625 -6.078125 Z M 8.1875 -6.078125" transform="translate(19.44 286.537)"/></g></g><g><g><path d="M 5.265625 -0.078125 C 4.691406 0.078125 4.113281 0.15625 3.53125 0.15625 C 2.164062 0.15625 1.484375 -0.617188 1.484375 -2.171875 L 1.484375 -9.03125 L 0.296875 -9.03125 L 0.296875 -10.265625 L 1.546875 -10.265625 L 2.046875 -12.5625 L 3.1875 -12.5625 L 3.1875 -10.265625 L 5.09375 -10.265625 L 5.09375 -9.03125 L 3.1875 -9.03125 L 3.1875 -2.546875 C 3.1875 -2.046875 3.265625 -1.695312 3.421875 -1.5 C 3.585938 -1.300781 3.867188 -1.203125 4.265625 -1.203125 C 4.492188 -1.203125 4.828125 -1.25 5.265625 -1.34375 Z M 5.265625 -0.078125" transform="translate(35.651 286.537)"/></g></g><g><g><path d="M 3.015625 -8.515625 C 3.378906 -9.179688 3.816406 -9.671875 4.328125 -9.984375 C 4.847656 -10.296875 5.503906 -10.453125 6.296875 -10.453125 C 7.410156 -10.453125 8.226562 -10.175781 8.75 -9.625 C 9.28125 -9.070312 9.546875 -8.144531 9.546875 -6.84375 L 9.546875 0 L 7.828125 0 L 7.828125 -6.515625 C 7.828125 -7.234375 7.757812 -7.765625 7.625 -8.109375 C 7.5 -8.460938 7.28125 -8.722656 6.96875 -8.890625 C 6.664062 -9.054688 6.25 -9.140625 5.71875 -9.140625 C 4.914062 -9.140625 4.269531 -8.859375 3.78125 -8.296875 C 3.300781 -7.742188 3.0625 -7 3.0625 -6.0625 L 3.0625 0 L 1.34375 0 L 1.34375 -14.078125 L 3.0625 -14.078125 L 3.0625 -10.421875 C 3.0625 -10.035156 3.046875 -9.632812 3.015625 -9.21875 C 2.992188 -8.8125 2.984375 -8.578125 2.984375 -8.515625 Z M 3.015625 -8.515625" transform="translate(41.052 286.537)"/></g></g><g><g><path d="M 2.625 -4.78125 C 2.625 -3.601562 2.863281 -2.691406 3.34375 -2.046875 C 3.832031 -1.410156 4.546875 -1.09375 5.484375 -1.09375 C 6.222656 -1.09375 6.816406 -1.238281 7.265625 -1.53125 C 7.710938 -1.832031 8.015625 -2.210938 8.171875 -2.671875 L 9.671875 -2.234375 C 9.054688 -0.617188 7.660156 0.1875 5.484375 0.1875 C 3.960938 0.1875 2.804688 -0.265625 2.015625 -1.171875 C 1.222656 -2.078125 0.828125 -3.421875 0.828125 -5.203125 C 0.828125 -6.898438 1.222656 -8.195312 2.015625 -9.09375 C 2.804688 -10 3.941406 -10.453125 5.421875 -10.453125 C 8.441406 -10.453125 9.953125 -8.632812 9.953125 -5 L 9.953125 -4.78125 Z M 8.1875 -6.078125 C 8.082031 -7.160156 7.800781 -7.953125 7.34375 -8.453125 C 6.894531 -8.953125 6.242188 -9.203125 5.390625 -9.203125 C 4.554688 -9.203125 3.898438 -8.921875 3.421875 -8.359375 C 2.941406 -7.804688 2.679688 -7.046875 2.640625 -6.078125 Z M 8.1875 -6.078125" transform="translate(51.863 286.537)"/></g></g><g><g><path d="M 1.34375 0 L 1.34375 -7.875 C 1.34375 -8.59375 1.328125 -9.390625 1.296875 -10.265625 L 2.90625 -10.265625 C 2.957031 -9.097656 2.984375 -8.398438 2.984375 -8.171875 L 3.015625 -8.171875 C 3.285156 -9.046875 3.597656 -9.644531 3.953125 -9.96875 C 4.304688 -10.289062 4.804688 -10.453125 5.453125 -10.453125 C 5.679688 -10.453125 5.914062 -10.421875 6.15625 -10.359375 L 6.15625 -8.796875 C 5.925781 -8.859375 5.617188 -8.890625 5.234375 -8.890625 C 4.523438 -8.890625 3.984375 -8.582031 3.609375 -7.96875 C 3.242188 -7.363281 3.0625 -6.492188 3.0625 -5.359375 L 3.0625 0 Z M 1.34375 0" transform="translate(62.674 286.537)"/></g></g><g><g><path d="M 2.625 -4.78125 C 2.625 -3.601562 2.863281 -2.691406 3.34375 -2.046875 C 3.832031 -1.410156 4.546875 -1.09375 5.484375 -1.09375 C 6.222656 -1.09375 6.816406 -1.238281 7.265625 -1.53125 C 7.710938 -1.832031 8.015625 -2.210938 8.171875 -2.671875 L 9.671875 -2.234375 C 9.054688 -0.617188 7.660156 0.1875 5.484375 0.1875 C 3.960938 0.1875 2.804688 -0.265625 2.015625 -1.171875 C 1.222656 -2.078125 0.828125 -3.421875 0.828125 -5.203125 C 0.828125 -6.898438 1.222656 -8.195312 2.015625 -9.09375 C 2.804688 -10 3.941406 -10.453125 5.421875 -10.453125 C 8.441406 -10.453125 9.953125 -8.632812 9.953125 -5 L 9.953125 -4.78125 Z M 8.1875 -6.078125 C 8.082031 -7.160156 7.800781 -7.953125 7.34375 -8.453125 C 6.894531 -8.953125 6.242188 -9.203125 5.390625 -9.203125 C 4.554688 -9.203125 3.898438 -8.921875 3.421875 -8.359375 C 2.941406 -7.804688 2.679688 -7.046875 2.640625 -6.078125 Z M 8.1875 -6.078125" transform="translate(69.147 286.537)"/></g></g><g><g><path d="M 3.921875 0.1875 C 2.890625 0.1875 2.113281 -0.0820312 1.59375 -0.625 C 1.082031 -1.164062 0.828125 -1.910156 0.828125 -2.859375 C 0.828125 -3.921875 1.175781 -4.738281 1.875 -5.3125 C 2.570312 -5.882812 3.703125 -6.1875 5.265625 -6.21875 L 7.5625 -6.265625 L 7.5625 -6.828125 C 7.5625 -7.660156 7.382812 -8.253906 7.03125 -8.609375 C 6.675781 -8.972656 6.117188 -9.15625 5.359375 -9.15625 C 4.597656 -9.15625 4.039062 -9.023438 3.6875 -8.765625 C 3.34375 -8.503906 3.132812 -8.09375 3.0625 -7.53125 L 1.28125 -7.6875 C 1.570312 -9.53125 2.945312 -10.453125 5.40625 -10.453125 C 6.695312 -10.453125 7.664062 -10.15625 8.3125 -9.5625 C 8.96875 -8.976562 9.296875 -8.125 9.296875 -7 L 9.296875 -2.578125 C 9.296875 -2.078125 9.359375 -1.695312 9.484375 -1.4375 C 9.617188 -1.175781 9.875 -1.046875 10.25 -1.046875 C 10.414062 -1.046875 10.601562 -1.070312 10.8125 -1.125 L 10.8125 -0.0625 C 10.382812 0.0390625 9.941406 0.09375 9.484375 0.09375 C 8.859375 0.09375 8.398438 -0.0703125 8.109375 -0.40625 C 7.816406 -0.738281 7.65625 -1.257812 7.625 -1.96875 L 7.5625 -1.96875 C 7.125 -1.175781 6.613281 -0.617188 6.03125 -0.296875 C 5.457031 0.0234375 4.753906 0.1875 3.921875 0.1875 Z M 4.3125 -1.09375 C 4.945312 -1.09375 5.503906 -1.234375 5.984375 -1.515625 C 6.472656 -1.804688 6.859375 -2.195312 7.140625 -2.6875 C 7.421875 -3.1875 7.5625 -3.695312 7.5625 -4.21875 L 7.5625 -5.0625 L 5.6875 -5.03125 C 4.882812 -5.019531 4.273438 -4.9375 3.859375 -4.78125 C 3.453125 -4.632812 3.132812 -4.398438 2.90625 -4.078125 C 2.6875 -3.765625 2.578125 -3.351562 2.578125 -2.84375 C 2.578125 -2.28125 2.726562 -1.847656 3.03125 -1.546875 C 3.332031 -1.242188 3.757812 -1.09375 4.3125 -1.09375 Z M 4.3125 -1.09375" transform="translate(85.36 286.537)"/></g></g><g><g><path d="M 7.828125 0 L 7.828125 -6.515625 C 7.828125 -7.191406 7.757812 -7.710938 7.625 -8.078125 C 7.5 -8.453125 7.289062 -8.722656 7 -8.890625 C 6.707031 -9.054688 6.28125 -9.140625 5.71875 -9.140625 C 4.894531 -9.140625 4.242188 -8.859375 3.765625 -8.296875 C 3.296875 -7.734375 3.0625 -6.953125 3.0625 -5.953125 L 3.0625 0 L 1.34375 0 L 1.34375 -8.078125 C 1.34375 -9.273438 1.328125 -10.003906 1.296875 -10.265625 L 2.90625 -10.265625 C 2.90625 -10.234375 2.910156 -10.144531 2.921875 -10 C 2.929688 -9.863281 2.941406 -9.707031 2.953125 -9.53125 C 2.960938 -9.351562 2.972656 -9.015625 2.984375 -8.515625 L 3.015625 -8.515625 C 3.398438 -9.222656 3.847656 -9.722656 4.359375 -10.015625 C 4.878906 -10.304688 5.523438 -10.453125 6.296875 -10.453125 C 7.421875 -10.453125 8.242188 -10.171875 8.765625 -9.609375 C 9.285156 -9.054688 9.546875 -8.132812 9.546875 -6.84375 L 9.546875 0 Z M 7.828125 0" transform="translate(96.17 286.537)"/></g></g><g><g><path d="M 1.8125 4.03125 C 1.34375 4.03125 0.953125 3.992188 0.640625 3.921875 L 0.640625 2.640625 C 0.878906 2.679688 1.144531 2.703125 1.4375 2.703125 C 2.5 2.703125 3.335938 1.921875 3.953125 0.359375 L 4.125 -0.046875 L 0.046875 -10.265625 L 1.875 -10.265625 L 4.03125 -4.59375 C 4.0625 -4.5 4.097656 -4.390625 4.140625 -4.265625 C 4.191406 -4.148438 4.335938 -3.738281 4.578125 -3.03125 C 4.816406 -2.332031 4.945312 -1.941406 4.96875 -1.859375 L 5.625 -3.734375 L 7.875 -10.265625 L 9.6875 -10.265625 L 5.734375 0 C 5.304688 1.09375 4.910156 1.90625 4.546875 2.4375 C 4.179688 2.976562 3.773438 3.378906 3.328125 3.640625 C 2.878906 3.898438 2.375 4.03125 1.8125 4.03125 Z M 1.8125 4.03125" transform="translate(106.981 286.537)"/></g></g><g><g><path d="M 2.609375 -5.1875 C 2.609375 -3.8125 2.820312 -2.796875 3.25 -2.140625 C 3.6875 -1.484375 4.335938 -1.15625 5.203125 -1.15625 C 5.804688 -1.15625 6.3125 -1.316406 6.71875 -1.640625 C 7.132812 -1.972656 7.390625 -2.484375 7.484375 -3.171875 L 9.203125 -3.0625 C 9.066406 -2.070312 8.644531 -1.28125 7.9375 -0.6875 C 7.226562 -0.101562 6.332031 0.1875 5.25 0.1875 C 3.8125 0.1875 2.710938 -0.265625 1.953125 -1.171875 C 1.203125 -2.078125 0.828125 -3.398438 0.828125 -5.140625 C 0.828125 -6.867188 1.207031 -8.1875 1.96875 -9.09375 C 2.726562 -10 3.816406 -10.453125 5.234375 -10.453125 C 6.285156 -10.453125 7.15625 -10.179688 7.84375 -9.640625 C 8.539062 -9.097656 8.976562 -8.347656 9.15625 -7.390625 L 7.390625 -7.265625 C 7.304688 -7.828125 7.082031 -8.273438 6.71875 -8.609375 C 6.351562 -8.953125 5.84375 -9.125 5.1875 -9.125 C 4.28125 -9.125 3.625 -8.820312 3.21875 -8.21875 C 2.8125 -7.613281 2.609375 -6.601562 2.609375 -5.1875 Z M 2.609375 -5.1875" transform="translate(122.102 286.537)"/></g></g><g><g><path d="M 3.015625 -8.515625 C 3.378906 -9.179688 3.816406 -9.671875 4.328125 -9.984375 C 4.847656 -10.296875 5.503906 -10.453125 6.296875 -10.453125 C 7.410156 -10.453125 8.226562 -10.175781 8.75 -9.625 C 9.28125 -9.070312 9.546875 -8.144531 9.546875 -6.84375 L 9.546875 0 L 7.828125 0 L 7.828125 -6.515625 C 7.828125 -7.234375 7.757812 -7.765625 7.625 -8.109375 C 7.5 -8.460938 7.28125 -8.722656 6.96875 -8.890625 C 6.664062 -9.054688 6.25 -9.140625 5.71875 -9.140625 C 4.914062 -9.140625 4.269531 -8.859375 3.78125 -8.296875 C 3.300781 -7.742188 3.0625 -7 3.0625 -6.0625 L 3.0625 0 L 1.34375 0 L 1.34375 -14.078125 L 3.0625 -14.078125 L 3.0625 -10.421875 C 3.0625 -10.035156 3.046875 -9.632812 3.015625 -9.21875 C 2.992188 -8.8125 2.984375 -8.578125 2.984375 -8.515625 Z M 3.015625 -8.515625" transform="translate(131.821 286.537)"/></g></g><g><g><path d="M 3.921875 0.1875 C 2.890625 0.1875 2.113281 -0.0820312 1.59375 -0.625 C 1.082031 -1.164062 0.828125 -1.910156 0.828125 -2.859375 C 0.828125 -3.921875 1.175781 -4.738281 1.875 -5.3125 C 2.570312 -5.882812 3.703125 -6.1875 5.265625 -6.21875 L 7.5625 -6.265625 L 7.5625 -6.828125 C 7.5625 -7.660156 7.382812 -8.253906 7.03125 -8.609375 C 6.675781 -8.972656 6.117188 -9.15625 5.359375 -9.15625 C 4.597656 -9.15625 4.039062 -9.023438 3.6875 -8.765625 C 3.34375 -8.503906 3.132812 -8.09375 3.0625 -7.53125 L 1.28125 -7.6875 C 1.570312 -9.53125 2.945312 -10.453125 5.40625 -10.453125 C 6.695312 -10.453125 7.664062 -10.15625 8.3125 -9.5625 C 8.96875 -8.976562 9.296875 -8.125 9.296875 -7 L 9.296875 -2.578125 C 9.296875 -2.078125 9.359375 -1.695312 9.484375 -1.4375 C 9.617188 -1.175781 9.875 -1.046875 10.25 -1.046875 C 10.414062 -1.046875 10.601562 -1.070312 10.8125 -1.125 L 10.8125 -0.0625 C 10.382812 0.0390625 9.941406 0.09375 9.484375 0.09375 C 8.859375 0.09375 8.398438 -0.0703125 8.109375 -0.40625 C 7.816406 -0.738281 7.65625 -1.257812 7.625 -1.96875 L 7.5625 -1.96875 C 7.125 -1.175781 6.613281 -0.617188 6.03125 -0.296875 C 5.457031 0.0234375 4.753906 0.1875 3.921875 0.1875 Z M 4.3125 -1.09375 C 4.945312 -1.09375 5.503906 -1.234375 5.984375 -1.515625 C 6.472656 -1.804688 6.859375 -2.195312 7.140625 -2.6875 C 7.421875 -3.1875 7.5625 -3.695312 7.5625 -4.21875 L 7.5625 -5.0625 L 5.6875 -5.03125 C 4.882812 -5.019531 4.273438 -4.9375 3.859375 -4.78125 C 3.453125 -4.632812 3.132812 -4.398438 2.90625 -4.078125 C 2.6875 -3.765625 2.578125 -3.351562 2.578125 -2.84375 C 2.578125 -2.28125 2.726562 -1.847656 3.03125 -1.546875 C 3.332031 -1.242188 3.757812 -1.09375 4.3125 -1.09375 Z M 4.3125 -1.09375" transform="translate(142.632 286.537)"/></g></g><g><g><path d="M 7.828125 0 L 7.828125 -6.515625 C 7.828125 -7.191406 7.757812 -7.710938 7.625 -8.078125 C 7.5 -8.453125 7.289062 -8.722656 7 -8.890625 C 6.707031 -9.054688 6.28125 -9.140625 5.71875 -9.140625 C 4.894531 -9.140625 4.242188 -8.859375 3.765625 -8.296875 C 3.296875 -7.734375 3.0625 -6.953125 3.0625 -5.953125 L 3.0625 0 L 1.34375 0 L 1.34375 -8.078125 C 1.34375 -9.273438 1.328125 -10.003906 1.296875 -10.265625 L 2.90625 -10.265625 C 2.90625 -10.234375 2.910156 -10.144531 2.921875 -10 C 2.929688 -9.863281 2.941406 -9.707031 2.953125 -9.53125 C 2.960938 -9.351562 2.972656 -9.015625 2.984375 -8.515625 L 3.015625 -8.515625 C 3.398438 -9.222656 3.847656 -9.722656 4.359375 -10.015625 C 4.878906 -10.304688 5.523438 -10.453125 6.296875 -10.453125 C 7.421875 -10.453125 8.242188 -10.171875 8.765625 -9.609375 C 9.285156 -9.054688 9.546875 -8.132812 9.546875 -6.84375 L 9.546875 0 Z M 7.828125 0" transform="translate(153.444 286.537)"/></g></g><g><g><path d="M 5.203125 4.03125 C 4.078125 4.03125 3.179688 3.8125 2.515625 3.375 C 1.859375 2.9375 1.4375 2.3125 1.25 1.5 L 2.96875 1.25 C 3.070312 1.726562 3.316406 2.09375 3.703125 2.34375 C 4.097656 2.601562 4.613281 2.734375 5.25 2.734375 C 6.945312 2.734375 7.796875 1.738281 7.796875 -0.25 L 7.796875 -1.90625 L 7.78125 -1.90625 C 7.457031 -1.25 7.015625 -0.753906 6.453125 -0.421875 C 5.890625 -0.0859375 5.234375 0.078125 4.484375 0.078125 C 3.222656 0.078125 2.296875 -0.335938 1.703125 -1.171875 C 1.109375 -2.015625 0.8125 -3.328125 0.8125 -5.109375 C 0.8125 -6.929688 1.128906 -8.273438 1.765625 -9.140625 C 2.398438 -10.003906 3.367188 -10.4375 4.671875 -10.4375 C 5.398438 -10.4375 6.03125 -10.269531 6.5625 -9.9375 C 7.09375 -9.601562 7.503906 -9.128906 7.796875 -8.515625 L 7.828125 -8.515625 C 7.828125 -8.703125 7.835938 -9.03125 7.859375 -9.5 C 7.878906 -9.96875 7.90625 -10.222656 7.9375 -10.265625 L 9.5625 -10.265625 C 9.519531 -9.921875 9.5 -9.210938 9.5 -8.140625 L 9.5 -0.296875 C 9.5 2.585938 8.066406 4.03125 5.203125 4.03125 Z M 7.796875 -5.140625 C 7.796875 -5.972656 7.679688 -6.691406 7.453125 -7.296875 C 7.234375 -7.898438 6.914062 -8.359375 6.5 -8.671875 C 6.082031 -8.992188 5.613281 -9.15625 5.09375 -9.15625 C 4.21875 -9.15625 3.578125 -8.835938 3.171875 -8.203125 C 2.773438 -7.578125 2.578125 -6.554688 2.578125 -5.140625 C 2.578125 -3.734375 2.765625 -2.722656 3.140625 -2.109375 C 3.515625 -1.492188 4.15625 -1.1875 5.0625 -1.1875 C 5.59375 -1.1875 6.066406 -1.34375 6.484375 -1.65625 C 6.910156 -1.976562 7.234375 -2.429688 7.453125 -3.015625 C 7.679688 -3.609375 7.796875 -4.316406 7.796875 -5.140625 Z M 7.796875 -5.140625" transform="translate(164.255 286.537)"/></g></g><g><g><path d="M 2.625 -4.78125 C 2.625 -3.601562 2.863281 -2.691406 3.34375 -2.046875 C 3.832031 -1.410156 4.546875 -1.09375 5.484375 -1.09375 C 6.222656 -1.09375 6.816406 -1.238281 7.265625 -1.53125 C 7.710938 -1.832031 8.015625 -2.210938 8.171875 -2.671875 L 9.671875 -2.234375 C 9.054688 -0.617188 7.660156 0.1875 5.484375 0.1875 C 3.960938 0.1875 2.804688 -0.265625 2.015625 -1.171875 C 1.222656 -2.078125 0.828125 -3.421875 0.828125 -5.203125 C 0.828125 -6.898438 1.222656 -8.195312 2.015625 -9.09375 C 2.804688 -10 3.941406 -10.453125 5.421875 -10.453125 C 8.441406 -10.453125 9.953125 -8.632812 9.953125 -5 L 9.953125 -4.78125 Z M 8.1875 -6.078125 C 8.082031 -7.160156 7.800781 -7.953125 7.34375 -8.453125 C 6.894531 -8.953125 6.242188 -9.203125 5.390625 -9.203125 C 4.554688 -9.203125 3.898438 -8.921875 3.421875 -8.359375 C 2.941406 -7.804688 2.679688 -7.046875 2.640625 -6.078125 Z M 8.1875 -6.078125" transform="translate(175.066 286.537)"/></g></g><g><g><path d="M 9.015625 -2.84375 C 9.015625 -1.875 8.648438 -1.125 7.921875 -0.59375 C 7.191406 -0.0703125 6.164062 0.1875 4.84375 0.1875 C 3.570312 0.1875 2.585938 -0.0195312 1.890625 -0.4375 C 1.203125 -0.863281 0.753906 -1.519531 0.546875 -2.40625 L 2.046875 -2.703125 C 2.191406 -2.148438 2.492188 -1.742188 2.953125 -1.484375 C 3.410156 -1.234375 4.039062 -1.109375 4.84375 -1.109375 C 5.71875 -1.109375 6.351562 -1.238281 6.75 -1.5 C 7.15625 -1.769531 7.359375 -2.171875 7.359375 -2.703125 C 7.359375 -3.109375 7.21875 -3.4375 6.9375 -3.6875 C 6.65625 -3.945312 6.207031 -4.15625 5.59375 -4.3125 L 4.359375 -4.640625 C 3.378906 -4.890625 2.679688 -5.132812 2.265625 -5.375 C 1.859375 -5.625 1.535156 -5.921875 1.296875 -6.265625 C 1.066406 -6.617188 0.953125 -7.050781 0.953125 -7.5625 C 0.953125 -8.488281 1.285156 -9.195312 1.953125 -9.6875 C 2.617188 -10.1875 3.59375 -10.4375 4.875 -10.4375 C 6 -10.4375 6.894531 -10.234375 7.5625 -9.828125 C 8.238281 -9.429688 8.664062 -8.796875 8.84375 -7.921875 L 7.296875 -7.71875 C 7.203125 -8.175781 6.945312 -8.523438 6.53125 -8.765625 C 6.113281 -9.015625 5.5625 -9.140625 4.875 -9.140625 C 4.101562 -9.140625 3.53125 -9.019531 3.15625 -8.78125 C 2.789062 -8.550781 2.609375 -8.195312 2.609375 -7.71875 C 2.609375 -7.4375 2.679688 -7.195312 2.828125 -7 C 2.984375 -6.8125 3.207031 -6.648438 3.5 -6.515625 C 3.800781 -6.390625 4.429688 -6.207031 5.390625 -5.96875 C 6.296875 -5.738281 6.945312 -5.523438 7.34375 -5.328125 C 7.738281 -5.140625 8.050781 -4.925781 8.28125 -4.6875 C 8.519531 -4.457031 8.703125 -4.1875 8.828125 -3.875 C 8.953125 -3.570312 9.015625 -3.226562 9.015625 -2.84375 Z M 9.015625 -2.84375" transform="translate(185.877 286.537)"/></g></g><g><g><path d="M 10.09375 -9.796875 C 10.09375 -9.316406 10.019531 -8.890625 9.875 -8.515625 C 9.738281 -8.148438 9.539062 -7.804688 9.28125 -7.484375 C 9.019531 -7.171875 8.597656 -6.800781 8.015625 -6.375 L 7.25 -5.8125 C 6.789062 -5.476562 6.453125 -5.128906 6.234375 -4.765625 C 6.015625 -4.398438 5.898438 -4.003906 5.890625 -3.578125 L 4.234375 -3.578125 C 4.242188 -4.015625 4.3125 -4.394531 4.4375 -4.71875 C 4.5625 -5.050781 4.71875 -5.34375 4.90625 -5.59375 C 5.101562 -5.851562 5.328125 -6.082031 5.578125 -6.28125 C 5.828125 -6.476562 6.078125 -6.664062 6.328125 -6.84375 C 6.578125 -7.03125 6.820312 -7.210938 7.0625 -7.390625 C 7.3125 -7.566406 7.53125 -7.765625 7.71875 -7.984375 C 7.914062 -8.210938 8.070312 -8.460938 8.1875 -8.734375 C 8.300781 -9.015625 8.359375 -9.34375 8.359375 -9.71875 C 8.359375 -10.4375 8.113281 -11.003906 7.625 -11.421875 C 7.132812 -11.835938 6.445312 -12.046875 5.5625 -12.046875 C 4.675781 -12.046875 3.972656 -11.820312 3.453125 -11.375 C 2.929688 -10.9375 2.628906 -10.332031 2.546875 -9.5625 L 0.796875 -9.6875 C 0.960938 -10.9375 1.457031 -11.894531 2.28125 -12.5625 C 3.101562 -13.238281 4.191406 -13.578125 5.546875 -13.578125 C 6.953125 -13.578125 8.0625 -13.238281 8.875 -12.5625 C 9.6875 -11.894531 10.09375 -10.972656 10.09375 -9.796875 Z M 4.15625 0 L 4.15625 -1.90625 L 6 -1.90625 L 6 0 Z M 4.15625 0" transform="translate(195.596 286.537)"/></g></g><g><g><path d="M 1.796875 0 L 1.796875 -13.375 L 3.609375 -13.375 L 3.609375 0 Z M 1.796875 0" transform="translate(211.808 286.537)"/></g></g><g><g><path d="M 3.421875 -9.03125 L 3.421875 0 L 1.71875 0 L 1.71875 -9.03125 L 0.28125 -9.03125 L 0.28125 -10.265625 L 1.71875 -10.265625 L 1.71875 -11.421875 C 1.71875 -12.359375 1.921875 -13.03125 2.328125 -13.4375 C 2.742188 -13.851562 3.375 -14.0625 4.21875 -14.0625 C 4.695312 -14.0625 5.097656 -14.023438 5.421875 -13.953125 L 5.421875 -12.65625 C 5.140625 -12.707031 4.890625 -12.734375 4.671875 -12.734375 C 4.234375 -12.734375 3.914062 -12.617188 3.71875 -12.390625 C 3.519531 -12.171875 3.421875 -11.769531 3.421875 -11.1875 L 3.421875 -10.265625 L 5.421875 -10.265625 L 5.421875 -9.03125 Z M 3.421875 -9.03125" transform="translate(217.21 286.537)"/></g></g><g><g><path d="M 7.828125 0 L 7.828125 -6.515625 C 7.828125 -7.191406 7.757812 -7.710938 7.625 -8.078125 C 7.5 -8.453125 7.289062 -8.722656 7 -8.890625 C 6.707031 -9.054688 6.28125 -9.140625 5.71875 -9.140625 C 4.894531 -9.140625 4.242188 -8.859375 3.765625 -8.296875 C 3.296875 -7.734375 3.0625 -6.953125 3.0625 -5.953125 L 3.0625 0 L 1.34375 0 L 1.34375 -8.078125 C 1.34375 -9.273438 1.328125 -10.003906 1.296875 -10.265625 L 2.90625 -10.265625 C 2.90625 -10.234375 2.910156 -10.144531 2.921875 -10 C 2.929688 -9.863281 2.941406 -9.707031 2.953125 -9.53125 C 2.960938 -9.351562 2.972656 -9.015625 2.984375 -8.515625 L 3.015625 -8.515625 C 3.398438 -9.222656 3.847656 -9.722656 4.359375 -10.015625 C 4.878906 -10.304688 5.523438 -10.453125 6.296875 -10.453125 C 7.421875 -10.453125 8.242188 -10.171875 8.765625 -9.609375 C 9.285156 -9.054688 9.546875 -8.132812 9.546875 -6.84375 L 9.546875 0 Z M 7.828125 0" transform="translate(228.01 286.537)"/></g></g><g><g><path d="M 10 -5.140625 C 10 -3.347656 9.601562 -2.007812 8.8125 -1.125 C 8.019531 -0.25 6.867188 0.1875 5.359375 0.1875 C 3.859375 0.1875 2.722656 -0.265625 1.953125 -1.171875 C 1.191406 -2.085938 0.8125 -3.410156 0.8125 -5.140625 C 0.8125 -8.679688 2.347656 -10.453125 5.421875 -10.453125 C 6.984375 -10.453125 8.132812 -10.019531 8.875 -9.15625 C 9.625 -8.300781 10 -6.960938 10 -5.140625 Z M 8.203125 -5.140625 C 8.203125 -6.554688 7.988281 -7.585938 7.5625 -8.234375 C 7.144531 -8.878906 6.441406 -9.203125 5.453125 -9.203125 C 4.453125 -9.203125 3.726562 -8.875 3.28125 -8.21875 C 2.832031 -7.5625 2.609375 -6.535156 2.609375 -5.140625 C 2.609375 -3.785156 2.828125 -2.769531 3.265625 -2.09375 C 3.703125 -1.414062 4.394531 -1.078125 5.34375 -1.078125 C 6.363281 -1.078125 7.09375 -1.40625 7.53125 -2.0625 C 7.976562 -2.71875 8.203125 -3.742188 8.203125 -5.140625 Z M 8.203125 -5.140625" transform="translate(238.822 286.537)"/></g></g><g><g><path d="M 7.828125 0 L 7.828125 -6.515625 C 7.828125 -7.191406 7.757812 -7.710938 7.625 -8.078125 C 7.5 -8.453125 7.289062 -8.722656 7 -8.890625 C 6.707031 -9.054688 6.28125 -9.140625 5.71875 -9.140625 C 4.894531 -9.140625 4.242188 -8.859375 3.765625 -8.296875 C 3.296875 -7.734375 3.0625 -6.953125 3.0625 -5.953125 L 3.0625 0 L 1.34375 0 L 1.34375 -8.078125 C 1.34375 -9.273438 1.328125 -10.003906 1.296875 -10.265625 L 2.90625 -10.265625 C 2.90625 -10.234375 2.910156 -10.144531 2.921875 -10 C 2.929688 -9.863281 2.941406 -9.707031 2.953125 -9.53125 C 2.960938 -9.351562 2.972656 -9.015625 2.984375 -8.515625 L 3.015625 -8.515625 C 3.398438 -9.222656 3.847656 -9.722656 4.359375 -10.015625 C 4.878906 -10.304688 5.523438 -10.453125 6.296875 -10.453125 C 7.421875 -10.453125 8.242188 -10.171875 8.765625 -9.609375 C 9.285156 -9.054688 9.546875 -8.132812 9.546875 -6.84375 L 9.546875 0 Z M 7.828125 0" transform="translate(249.633 286.537)"/></g></g><g><g><path d="M 2.625 -4.78125 C 2.625 -3.601562 2.863281 -2.691406 3.34375 -2.046875 C 3.832031 -1.410156 4.546875 -1.09375 5.484375 -1.09375 C 6.222656 -1.09375 6.816406 -1.238281 7.265625 -1.53125 C 7.710938 -1.832031 8.015625 -2.210938 8.171875 -2.671875 L 9.671875 -2.234375 C 9.054688 -0.617188 7.660156 0.1875 5.484375 0.1875 C 3.960938 0.1875 2.804688 -0.265625 2.015625 -1.171875 C 1.222656 -2.078125 0.828125 -3.421875 0.828125 -5.203125 C 0.828125 -6.898438 1.222656 -8.195312 2.015625 -9.09375 C 2.804688 -10 3.941406 -10.453125 5.421875 -10.453125 C 8.441406 -10.453125 9.953125 -8.632812 9.953125 -5 L 9.953125 -4.78125 Z M 8.1875 -6.078125 C 8.082031 -7.160156 7.800781 -7.953125 7.34375 -8.453125 C 6.894531 -8.953125 6.242188 -9.203125 5.390625 -9.203125 C 4.554688 -9.203125 3.898438 -8.921875 3.421875 -8.359375 C 2.941406 -7.804688 2.679688 -7.046875 2.640625 -6.078125 Z M 8.1875 -6.078125" transform="translate(260.444 286.537)"/></g></g><g><g><path d="M 3.65625 -2.078125 L 3.65625 -0.484375 C 3.65625 0.179688 3.59375 0.738281 3.46875 1.1875 C 3.351562 1.644531 3.164062 2.078125 2.90625 2.484375 L 1.75 2.484375 C 2.34375 1.628906 2.640625 0.800781 2.640625 0 L 1.796875 0 L 1.796875 -2.078125 Z M 3.65625 -2.078125" transform="translate(271.255 286.537)"/></g></g><g><g><path d="M 5.203125 4.03125 C 4.078125 4.03125 3.179688 3.8125 2.515625 3.375 C 1.859375 2.9375 1.4375 2.3125 1.25 1.5 L 2.96875 1.25 C 3.070312 1.726562 3.316406 2.09375 3.703125 2.34375 C 4.097656 2.601562 4.613281 2.734375 5.25 2.734375 C 6.945312 2.734375 7.796875 1.738281 7.796875 -0.25 L 7.796875 -1.90625 L 7.78125 -1.90625 C 7.457031 -1.25 7.015625 -0.753906 6.453125 -0.421875 C 5.890625 -0.0859375 5.234375 0.078125 4.484375 0.078125 C 3.222656 0.078125 2.296875 -0.335938 1.703125 -1.171875 C 1.109375 -2.015625 0.8125 -3.328125 0.8125 -5.109375 C 0.8125 -6.929688 1.128906 -8.273438 1.765625 -9.140625 C 2.398438 -10.003906 3.367188 -10.4375 4.671875 -10.4375 C 5.398438 -10.4375 6.03125 -10.269531 6.5625 -9.9375 C 7.09375 -9.601562 7.503906 -9.128906 7.796875 -8.515625 L 7.828125 -8.515625 C 7.828125 -8.703125 7.835938 -9.03125 7.859375 -9.5 C 7.878906 -9.96875 7.90625 -10.222656 7.9375 -10.265625 L 9.5625 -10.265625 C 9.519531 -9.921875 9.5 -9.210938 9.5 -8.140625 L 9.5 -0.296875 C 9.5 2.585938 8.066406 4.03125 5.203125 4.03125 Z M 7.796875 -5.140625 C 7.796875 -5.972656 7.679688 -6.691406 7.453125 -7.296875 C 7.234375 -7.898438 6.914062 -8.359375 6.5 -8.671875 C 6.082031 -8.992188 5.613281 -9.15625 5.09375 -9.15625 C 4.21875 -9.15625 3.578125 -8.835938 3.171875 -8.203125 C 2.773438 -7.578125 2.578125 -6.554688 2.578125 -5.140625 C 2.578125 -3.734375 2.765625 -2.722656 3.140625 -2.109375 C 3.515625 -1.492188 4.15625 -1.1875 5.0625 -1.1875 C 5.59375 -1.1875 6.066406 -1.34375 6.484375 -1.65625 C 6.910156 -1.976562 7.234375 -2.429688 7.453125 -3.015625 C 7.679688 -3.609375 7.796875 -4.316406 7.796875 -5.140625 Z M 7.796875 -5.140625" transform="translate(282.057 286.537)"/></g></g><g><g><path d="M 1.296875 -12.453125 L 1.296875 -14.078125 L 3.015625 -14.078125 L 3.015625 -12.453125 Z M 1.296875 0 L 1.296875 -10.265625 L 3.015625 -10.265625 L 3.015625 0 Z M 1.296875 0" transform="translate(292.868 286.537)"/></g></g><g><g><path d="M 5.8125 0 L 3.796875 0 L 0.0625 -10.265625 L 1.890625 -10.265625 L 4.140625 -3.59375 C 4.222656 -3.332031 4.441406 -2.582031 4.796875 -1.34375 L 5.140625 -2.453125 L 5.5 -3.5625 L 7.84375 -10.265625 L 9.65625 -10.265625 Z M 5.8125 0" transform="translate(297.187 286.537)"/></g></g><g><g><path d="M 2.625 -4.78125 C 2.625 -3.601562 2.863281 -2.691406 3.34375 -2.046875 C 3.832031 -1.410156 4.546875 -1.09375 5.484375 -1.09375 C 6.222656 -1.09375 6.816406 -1.238281 7.265625 -1.53125 C 7.710938 -1.832031 8.015625 -2.210938 8.171875 -2.671875 L 9.671875 -2.234375 C 9.054688 -0.617188 7.660156 0.1875 5.484375 0.1875 C 3.960938 0.1875 2.804688 -0.265625 2.015625 -1.171875 C 1.222656 -2.078125 0.828125 -3.421875 0.828125 -5.203125 C 0.828125 -6.898438 1.222656 -8.195312 2.015625 -9.09375 C 2.804688 -10 3.941406 -10.453125 5.421875 -10.453125 C 8.441406 -10.453125 9.953125 -8.632812 9.953125 -5 L 9.953125 -4.78125 Z M 8.1875 -6.078125 C 8.082031 -7.160156 7.800781 -7.953125 7.34375 -8.453125 C 6.894531 -8.953125 6.242188 -9.203125 5.390625 -9.203125 C 4.554688 -9.203125 3.898438 -8.921875 3.421875 -8.359375 C 2.941406 -7.804688 2.679688 -7.046875 2.640625 -6.078125 Z M 8.1875 -6.078125" transform="translate(306.906 286.537)"/></g></g><g><g><path d="M 7.828125 0 L 7.828125 -6.515625 C 7.828125 -7.191406 7.757812 -7.710938 7.625 -8.078125 C 7.5 -8.453125 7.289062 -8.722656 7 -8.890625 C 6.707031 -9.054688 6.28125 -9.140625 5.71875 -9.140625 C 4.894531 -9.140625 4.242188 -8.859375 3.765625 -8.296875 C 3.296875 -7.734375 3.0625 -6.953125 3.0625 -5.953125 L 3.0625 0 L 1.34375 0 L 1.34375 -8.078125 C 1.34375 -9.273438 1.328125 -10.003906 1.296875 -10.265625 L 2.90625 -10.265625 C 2.90625 -10.234375 2.910156 -10.144531 2.921875 -10 C 2.929688 -9.863281 2.941406 -9.707031 2.953125 -9.53125 C 2.960938 -9.351562 2.972656 -9.015625 2.984375 -8.515625 L 3.015625 -8.515625 C 3.398438 -9.222656 3.847656 -9.722656 4.359375 -10.015625 C 4.878906 -10.304688 5.523438 -10.453125 6.296875 -10.453125 C 7.421875 -10.453125 8.242188 -10.171875 8.765625 -9.609375 C 9.285156 -9.054688 9.546875 -8.132812 9.546875 -6.84375 L 9.546875 0 Z M 7.828125 0" transform="translate(323.118 286.537)"/></g></g><g><g><path d="M 3.921875 0.1875 C 2.890625 0.1875 2.113281 -0.0820312 1.59375 -0.625 C 1.082031 -1.164062 0.828125 -1.910156 0.828125 -2.859375 C 0.828125 -3.921875 1.175781 -4.738281 1.875 -5.3125 C 2.570312 -5.882812 3.703125 -6.1875 5.265625 -6.21875 L 7.5625 -6.265625 L 7.5625 -6.828125 C 7.5625 -7.660156 7.382812 -8.253906 7.03125 -8.609375 C 6.675781 -8.972656 6.117188 -9.15625 5.359375 -9.15625 C 4.597656 -9.15625 4.039062 -9.023438 3.6875 -8.765625 C 3.34375 -8.503906 3.132812 -8.09375 3.0625 -7.53125 L 1.28125 -7.6875 C 1.570312 -9.53125 2.945312 -10.453125 5.40625 -10.453125 C 6.695312 -10.453125 7.664062 -10.15625 8.3125 -9.5625 C 8.96875 -8.976562 9.296875 -8.125 9.296875 -7 L 9.296875 -2.578125 C 9.296875 -2.078125 9.359375 -1.695312 9.484375 -1.4375 C 9.617188 -1.175781 9.875 -1.046875 10.25 -1.046875 C 10.414062 -1.046875 10.601562 -1.070312 10.8125 -1.125 L 10.8125 -0.0625 C 10.382812 0.0390625 9.941406 0.09375 9.484375 0.09375 C 8.859375 0.09375 8.398438 -0.0703125 8.109375 -0.40625 C 7.816406 -0.738281 7.65625 -1.257812 7.625 -1.96875 L 7.5625 -1.96875 C 7.125 -1.175781 6.613281 -0.617188 6.03125 -0.296875 C 5.457031 0.0234375 4.753906 0.1875 3.921875 0.1875 Z M 4.3125 -1.09375 C 4.945312 -1.09375 5.503906 -1.234375 5.984375 -1.515625 C 6.472656 -1.804688 6.859375 -2.195312 7.140625 -2.6875 C 7.421875 -3.1875 7.5625 -3.695312 7.5625 -4.21875 L 7.5625 -5.0625 L 5.6875 -5.03125 C 4.882812 -5.019531 4.273438 -4.9375 3.859375 -4.78125 C 3.453125 -4.632812 3.132812 -4.398438 2.90625 -4.078125 C 2.6875 -3.765625 2.578125 -3.351562 2.578125 -2.84375 C 2.578125 -2.28125 2.726562 -1.847656 3.03125 -1.546875 C 3.332031 -1.242188 3.757812 -1.09375 4.3125 -1.09375 Z M 4.3125 -1.09375" transform="translate(333.93 286.537)"/></g></g><g><g><path d="M 9.015625 -2.84375 C 9.015625 -1.875 8.648438 -1.125 7.921875 -0.59375 C 7.191406 -0.0703125 6.164062 0.1875 4.84375 0.1875 C 3.570312 0.1875 2.585938 -0.0195312 1.890625 -0.4375 C 1.203125 -0.863281 0.753906 -1.519531 0.546875 -2.40625 L 2.046875 -2.703125 C 2.191406 -2.148438 2.492188 -1.742188 2.953125 -1.484375 C 3.410156 -1.234375 4.039062 -1.109375 4.84375 -1.109375 C 5.71875 -1.109375 6.351562 -1.238281 6.75 -1.5 C 7.15625 -1.769531 7.359375 -2.171875 7.359375 -2.703125 C 7.359375 -3.109375 7.21875 -3.4375 6.9375 -3.6875 C 6.65625 -3.945312 6.207031 -4.15625 5.59375 -4.3125 L 4.359375 -4.640625 C 3.378906 -4.890625 2.679688 -5.132812 2.265625 -5.375 C 1.859375 -5.625 1.535156 -5.921875 1.296875 -6.265625 C 1.066406 -6.617188 0.953125 -7.050781 0.953125 -7.5625 C 0.953125 -8.488281 1.285156 -9.195312 1.953125 -9.6875 C 2.617188 -10.1875 3.59375 -10.4375 4.875 -10.4375 C 6 -10.4375 6.894531 -10.234375 7.5625 -9.828125 C 8.238281 -9.429688 8.664062 -8.796875 8.84375 -7.921875 L 7.296875 -7.71875 C 7.203125 -8.175781 6.945312 -8.523438 6.53125 -8.765625 C 6.113281 -9.015625 5.5625 -9.140625 4.875 -9.140625 C 4.101562 -9.140625 3.53125 -9.019531 3.15625 -8.78125 C 2.789062 -8.550781 2.609375 -8.195312 2.609375 -7.71875 C 2.609375 -7.4375 2.679688 -7.195312 2.828125 -7 C 2.984375 -6.8125 3.207031 -6.648438 3.5 -6.515625 C 3.800781 -6.390625 4.429688 -6.207031 5.390625 -5.96875 C 6.296875 -5.738281 6.945312 -5.523438 7.34375 -5.328125 C 7.738281 -5.140625 8.050781 -4.925781 8.28125 -4.6875 C 8.519531 -4.457031 8.703125 -4.1875 8.828125 -3.875 C 8.953125 -3.570312 9.015625 -3.226562 9.015625 -2.84375 Z M 9.015625 -2.84375" transform="translate(344.74 286.537)"/></g></g><g><g><path d="M 3.921875 0.1875 C 2.890625 0.1875 2.113281 -0.0820312 1.59375 -0.625 C 1.082031 -1.164062 0.828125 -1.910156 0.828125 -2.859375 C 0.828125 -3.921875 1.175781 -4.738281 1.875 -5.3125 C 2.570312 -5.882812 3.703125 -6.1875 5.265625 -6.21875 L 7.5625 -6.265625 L 7.5625 -6.828125 C 7.5625 -7.660156 7.382812 -8.253906 7.03125 -8.609375 C 6.675781 -8.972656 6.117188 -9.15625 5.359375 -9.15625 C 4.597656 -9.15625 4.039062 -9.023438 3.6875 -8.765625 C 3.34375 -8.503906 3.132812 -8.09375 3.0625 -7.53125 L 1.28125 -7.6875 C 1.570312 -9.53125 2.945312 -10.453125 5.40625 -10.453125 C 6.695312 -10.453125 7.664062 -10.15625 8.3125 -9.5625 C 8.96875 -8.976562 9.296875 -8.125 9.296875 -7 L 9.296875 -2.578125 C 9.296875 -2.078125 9.359375 -1.695312 9.484375 -1.4375 C 9.617188 -1.175781 9.875 -1.046875 10.25 -1.046875 C 10.414062 -1.046875 10.601562 -1.070312 10.8125 -1.125 L 10.8125 -0.0625 C 10.382812 0.0390625 9.941406 0.09375 9.484375 0.09375 C 8.859375 0.09375 8.398438 -0.0703125 8.109375 -0.40625 C 7.816406 -0.738281 7.65625 -1.257812 7.625 -1.96875 L 7.5625 -1.96875 C 7.125 -1.175781 6.613281 -0.617188 6.03125 -0.296875 C 5.457031 0.0234375 4.753906 0.1875 3.921875 0.1875 Z M 4.3125 -1.09375 C 4.945312 -1.09375 5.503906 -1.234375 5.984375 -1.515625 C 6.472656 -1.804688 6.859375 -2.195312 7.140625 -2.6875 C 7.421875 -3.1875 7.5625 -3.695312 7.5625 -4.21875 L 7.5625 -5.0625 L 5.6875 -5.03125 C 4.882812 -5.019531 4.273438 -4.9375 3.859375 -4.78125 C 3.453125 -4.632812 3.132812 -4.398438 2.90625 -4.078125 C 2.6875 -3.765625 2.578125 -3.351562 2.578125 -2.84375 C 2.578125 -2.28125 2.726562 -1.847656 3.03125 -1.546875 C 3.332031 -1.242188 3.757812 -1.09375 4.3125 -1.09375 Z M 4.3125 -1.09375" transform="translate(354.46 286.537)"/></g></g><g><g><path d="M 1.3125 0 L 1.3125 -14.078125 L 3.015625 -14.078125 L 3.015625 0 Z M 1.3125 0" transform="translate(365.27 286.537)"/></g></g></g><g><g><g><path d="M 9.015625 -2.84375 C 9.015625 -1.875 8.648438 -1.125 7.921875 -0.59375 C 7.191406 -0.0703125 6.164062 0.1875 4.84375 0.1875 C 3.570312 0.1875 2.585938 -0.0195312 1.890625 -0.4375 C 1.203125 -0.863281 0.753906 -1.519531 0.546875 -2.40625 L 2.046875 -2.703125 C 2.191406 -2.148438 2.492188 -1.742188 2.953125 -1.484375 C 3.410156 -1.234375 4.039062 -1.109375 4.84375 -1.109375 C 5.71875 -1.109375 6.351562 -1.238281 6.75 -1.5 C 7.15625 -1.769531 7.359375 -2.171875 7.359375 -2.703125 C 7.359375 -3.109375 7.21875 -3.4375 6.9375 -3.6875 C 6.65625 -3.945312 6.207031 -4.15625 5.59375 -4.3125 L 4.359375 -4.640625 C 3.378906 -4.890625 2.679688 -5.132812 2.265625 -5.375 C 1.859375 -5.625 1.535156 -5.921875 1.296875 -6.265625 C 1.066406 -6.617188 0.953125 -7.050781 0.953125 -7.5625 C 0.953125 -8.488281 1.285156 -9.195312 1.953125 -9.6875 C 2.617188 -10.1875 3.59375 -10.4375 4.875 -10.4375 C 6 -10.4375 6.894531 -10.234375 7.5625 -9.828125 C 8.238281 -9.429688 8.664062 -8.796875 8.84375 -7.921875 L 7.296875 -7.71875 C 7.203125 -8.175781 6.945312 -8.523438 6.53125 -8.765625 C 6.113281 -9.015625 5.5625 -9.140625 4.875 -9.140625 C 4.101562 -9.140625 3.53125 -9.019531 3.15625 -8.78125 C 2.789062 -8.550781 2.609375 -8.195312 2.609375 -7.71875 C 2.609375 -7.4375 2.679688 -7.195312 2.828125 -7 C 2.984375 -6.8125 3.207031 -6.648438 3.5 -6.515625 C 3.800781 -6.390625 4.429688 -6.207031 5.390625 -5.96875 C 6.296875 -5.738281 6.945312 -5.523438 7.34375 -5.328125 C 7.738281 -5.140625 8.050781 -4.925781 8.28125 -4.6875 C 8.519531 -4.457031 8.703125 -4.1875 8.828125 -3.875 C 8.953125 -3.570312 9.015625 -3.226562 9.015625 -2.84375 Z M 9.015625 -2.84375" transform="translate(122.14 307.191)"/></g></g><g><g><path d="M 10 -5.1875 C 10 -1.601562 8.738281 0.1875 6.21875 0.1875 C 4.632812 0.1875 3.570312 -0.40625 3.03125 -1.59375 L 2.984375 -1.59375 C 3.003906 -1.539062 3.015625 -1.003906 3.015625 0.015625 L 3.015625 4.03125 L 1.3125 4.03125 L 1.3125 -8.171875 C 1.3125 -9.222656 1.289062 -9.921875 1.25 -10.265625 L 2.90625 -10.265625 C 2.90625 -10.242188 2.910156 -10.15625 2.921875 -10 C 2.941406 -9.84375 2.957031 -9.601562 2.96875 -9.28125 C 2.988281 -8.957031 3 -8.738281 3 -8.625 L 3.03125 -8.625 C 3.34375 -9.25 3.75 -9.707031 4.25 -10 C 4.75 -10.300781 5.40625 -10.453125 6.21875 -10.453125 C 7.476562 -10.453125 8.421875 -10.023438 9.046875 -9.171875 C 9.679688 -8.328125 10 -7 10 -5.1875 Z M 8.203125 -5.140625 C 8.203125 -6.578125 8.007812 -7.597656 7.625 -8.203125 C 7.238281 -8.816406 6.625 -9.125 5.78125 -9.125 C 5.101562 -9.125 4.570312 -8.984375 4.1875 -8.703125 C 3.800781 -8.421875 3.507812 -7.976562 3.3125 -7.375 C 3.113281 -6.769531 3.015625 -5.984375 3.015625 -5.015625 C 3.015625 -3.660156 3.226562 -2.664062 3.65625 -2.03125 C 4.09375 -1.394531 4.796875 -1.078125 5.765625 -1.078125 C 6.609375 -1.078125 7.222656 -1.382812 7.609375 -2 C 8.003906 -2.625 8.203125 -3.671875 8.203125 -5.140625 Z M 8.203125 -5.140625" transform="translate(131.86 307.191)"/></g></g><g><g><path d="M 1.34375 0 L 1.34375 -7.875 C 1.34375 -8.59375 1.328125 -9.390625 1.296875 -10.265625 L 2.90625 -10.265625 C 2.957031 -9.097656 2.984375 -8.398438 2.984375 -8.171875 L 3.015625 -8.171875 C 3.285156 -9.046875 3.597656 -9.644531 3.953125 -9.96875 C 4.304688 -10.289062 4.804688 -10.453125 5.453125 -10.453125 C 5.679688 -10.453125 5.914062 -10.421875 6.15625 -10.359375 L 6.15625 -8.796875 C 5.925781 -8.859375 5.617188 -8.890625 5.234375 -8.890625 C 4.523438 -8.890625 3.984375 -8.582031 3.609375 -7.96875 C 3.242188 -7.363281 3.0625 -6.492188 3.0625 -5.359375 L 3.0625 0 Z M 1.34375 0" transform="translate(142.67 307.191)"/></g></g><g><g><path d="M 3.921875 0.1875 C 2.890625 0.1875 2.113281 -0.0820312 1.59375 -0.625 C 1.082031 -1.164062 0.828125 -1.910156 0.828125 -2.859375 C 0.828125 -3.921875 1.175781 -4.738281 1.875 -5.3125 C 2.570312 -5.882812 3.703125 -6.1875 5.265625 -6.21875 L 7.5625 -6.265625 L 7.5625 -6.828125 C 7.5625 -7.660156 7.382812 -8.253906 7.03125 -8.609375 C 6.675781 -8.972656 6.117188 -9.15625 5.359375 -9.15625 C 4.597656 -9.15625 4.039062 -9.023438 3.6875 -8.765625 C 3.34375 -8.503906 3.132812 -8.09375 3.0625 -7.53125 L 1.28125 -7.6875 C 1.570312 -9.53125 2.945312 -10.453125 5.40625 -10.453125 C 6.695312 -10.453125 7.664062 -10.15625 8.3125 -9.5625 C 8.96875 -8.976562 9.296875 -8.125 9.296875 -7 L 9.296875 -2.578125 C 9.296875 -2.078125 9.359375 -1.695312 9.484375 -1.4375 C 9.617188 -1.175781 9.875 -1.046875 10.25 -1.046875 C 10.414062 -1.046875 10.601562 -1.070312 10.8125 -1.125 L 10.8125 -0.0625 C 10.382812 0.0390625 9.941406 0.09375 9.484375 0.09375 C 8.859375 0.09375 8.398438 -0.0703125 8.109375 -0.40625 C 7.816406 -0.738281 7.65625 -1.257812 7.625 -1.96875 L 7.5625 -1.96875 C 7.125 -1.175781 6.613281 -0.617188 6.03125 -0.296875 C 5.457031 0.0234375 4.753906 0.1875 3.921875 0.1875 Z M 4.3125 -1.09375 C 4.945312 -1.09375 5.503906 -1.234375 5.984375 -1.515625 C 6.472656 -1.804688 6.859375 -2.195312 7.140625 -2.6875 C 7.421875 -3.1875 7.5625 -3.695312 7.5625 -4.21875 L 7.5625 -5.0625 L 5.6875 -5.03125 C 4.882812 -5.019531 4.273438 -4.9375 3.859375 -4.78125 C 3.453125 -4.632812 3.132812 -4.398438 2.90625 -4.078125 C 2.6875 -3.765625 2.578125 -3.351562 2.578125 -2.84375 C 2.578125 -2.28125 2.726562 -1.847656 3.03125 -1.546875 C 3.332031 -1.242188 3.757812 -1.09375 4.3125 -1.09375 Z M 4.3125 -1.09375" transform="translate(149.144 307.191)"/></g></g><g><g><path d="M 1.8125 4.03125 C 1.34375 4.03125 0.953125 3.992188 0.640625 3.921875 L 0.640625 2.640625 C 0.878906 2.679688 1.144531 2.703125 1.4375 2.703125 C 2.5 2.703125 3.335938 1.921875 3.953125 0.359375 L 4.125 -0.046875 L 0.046875 -10.265625 L 1.875 -10.265625 L 4.03125 -4.59375 C 4.0625 -4.5 4.097656 -4.390625 4.140625 -4.265625 C 4.191406 -4.148438 4.335938 -3.738281 4.578125 -3.03125 C 4.816406 -2.332031 4.945312 -1.941406 4.96875 -1.859375 L 5.625 -3.734375 L 7.875 -10.265625 L 9.6875 -10.265625 L 5.734375 0 C 5.304688 1.09375 4.910156 1.90625 4.546875 2.4375 C 4.179688 2.976562 3.773438 3.378906 3.328125 3.640625 C 2.878906 3.898438 2.375 4.03125 1.8125 4.03125 Z M 1.8125 4.03125" transform="translate(159.955 307.191)"/></g></g><g><g><path d="M 1.796875 0 L 1.796875 -13.375 L 3.609375 -13.375 L 3.609375 0 Z M 1.796875 0" transform="translate(175.075 307.191)"/></g></g><g><g><path d="M 7.828125 0 L 7.828125 -6.515625 C 7.828125 -7.191406 7.757812 -7.710938 7.625 -8.078125 C 7.5 -8.453125 7.289062 -8.722656 7 -8.890625 C 6.707031 -9.054688 6.28125 -9.140625 5.71875 -9.140625 C 4.894531 -9.140625 4.242188 -8.859375 3.765625 -8.296875 C 3.296875 -7.734375 3.0625 -6.953125 3.0625 -5.953125 L 3.0625 0 L 1.34375 0 L 1.34375 -8.078125 C 1.34375 -9.273438 1.328125 -10.003906 1.296875 -10.265625 L 2.90625 -10.265625 C 2.90625 -10.234375 2.910156 -10.144531 2.921875 -10 C 2.929688 -9.863281 2.941406 -9.707031 2.953125 -9.53125 C 2.960938 -9.351562 2.972656 -9.015625 2.984375 -8.515625 L 3.015625 -8.515625 C 3.398438 -9.222656 3.847656 -9.722656 4.359375 -10.015625 C 4.878906 -10.304688 5.523438 -10.453125 6.296875 -10.453125 C 7.421875 -10.453125 8.242188 -10.171875 8.765625 -9.609375 C 9.285156 -9.054688 9.546875 -8.132812 9.546875 -6.84375 L 9.546875 0 Z M 7.828125 0" transform="translate(180.476 307.191)"/></g></g><g><g><path d="M 1.296875 -12.453125 L 1.296875 -14.078125 L 3.015625 -14.078125 L 3.015625 -12.453125 Z M 3.015625 1.265625 C 3.015625 2.234375 2.820312 2.9375 2.4375 3.375 C 2.0625 3.8125 1.492188 4.03125 0.734375 4.03125 C 0.242188 4.03125 -0.15625 4.003906 -0.46875 3.953125 L -0.46875 2.625 L 0.109375 2.6875 C 0.546875 2.6875 0.851562 2.570312 1.03125 2.34375 C 1.207031 2.113281 1.296875 1.671875 1.296875 1.015625 L 1.296875 -10.265625 L 3.015625 -10.265625 Z M 3.015625 1.265625" transform="translate(191.287 307.191)"/></g></g><g><g><path d="M 2.625 -4.78125 C 2.625 -3.601562 2.863281 -2.691406 3.34375 -2.046875 C 3.832031 -1.410156 4.546875 -1.09375 5.484375 -1.09375 C 6.222656 -1.09375 6.816406 -1.238281 7.265625 -1.53125 C 7.710938 -1.832031 8.015625 -2.210938 8.171875 -2.671875 L 9.671875 -2.234375 C 9.054688 -0.617188 7.660156 0.1875 5.484375 0.1875 C 3.960938 0.1875 2.804688 -0.265625 2.015625 -1.171875 C 1.222656 -2.078125 0.828125 -3.421875 0.828125 -5.203125 C 0.828125 -6.898438 1.222656 -8.195312 2.015625 -9.09375 C 2.804688 -10 3.941406 -10.453125 5.421875 -10.453125 C 8.441406 -10.453125 9.953125 -8.632812 9.953125 -5 L 9.953125 -4.78125 Z M 8.1875 -6.078125 C 8.082031 -7.160156 7.800781 -7.953125 7.34375 -8.453125 C 6.894531 -8.953125 6.242188 -9.203125 5.390625 -9.203125 C 4.554688 -9.203125 3.898438 -8.921875 3.421875 -8.359375 C 2.941406 -7.804688 2.679688 -7.046875 2.640625 -6.078125 Z M 8.1875 -6.078125" transform="translate(195.606 307.191)"/></g></g><g><g><path d="M 2.609375 -5.1875 C 2.609375 -3.8125 2.820312 -2.796875 3.25 -2.140625 C 3.6875 -1.484375 4.335938 -1.15625 5.203125 -1.15625 C 5.804688 -1.15625 6.3125 -1.316406 6.71875 -1.640625 C 7.132812 -1.972656 7.390625 -2.484375 7.484375 -3.171875 L 9.203125 -3.0625 C 9.066406 -2.070312 8.644531 -1.28125 7.9375 -0.6875 C 7.226562 -0.101562 6.332031 0.1875 5.25 0.1875 C 3.8125 0.1875 2.710938 -0.265625 1.953125 -1.171875 C 1.203125 -2.078125 0.828125 -3.398438 0.828125 -5.140625 C 0.828125 -6.867188 1.207031 -8.1875 1.96875 -9.09375 C 2.726562 -10 3.816406 -10.453125 5.234375 -10.453125 C 6.285156 -10.453125 7.15625 -10.179688 7.84375 -9.640625 C 8.539062 -9.097656 8.976562 -8.347656 9.15625 -7.390625 L 7.390625 -7.265625 C 7.304688 -7.828125 7.082031 -8.273438 6.71875 -8.609375 C 6.351562 -8.953125 5.84375 -9.125 5.1875 -9.125 C 4.28125 -9.125 3.625 -8.820312 3.21875 -8.21875 C 2.8125 -7.613281 2.609375 -6.601562 2.609375 -5.1875 Z M 2.609375 -5.1875" transform="translate(206.417 307.191)"/></g></g><g><g><path d="M 5.265625 -0.078125 C 4.691406 0.078125 4.113281 0.15625 3.53125 0.15625 C 2.164062 0.15625 1.484375 -0.617188 1.484375 -2.171875 L 1.484375 -9.03125 L 0.296875 -9.03125 L 0.296875 -10.265625 L 1.546875 -10.265625 L 2.046875 -12.5625 L 3.1875 -12.5625 L 3.1875 -10.265625 L 5.09375 -10.265625 L 5.09375 -9.03125 L 3.1875 -9.03125 L 3.1875 -2.546875 C 3.1875 -2.046875 3.265625 -1.695312 3.421875 -1.5 C 3.585938 -1.300781 3.867188 -1.203125 4.265625 -1.203125 C 4.492188 -1.203125 4.828125 -1.25 5.265625 -1.34375 Z M 5.265625 -0.078125" transform="translate(216.137 307.191)"/></g></g><g><g><path d="M 1.296875 -12.453125 L 1.296875 -14.078125 L 3.015625 -14.078125 L 3.015625 -12.453125 Z M 1.296875 0 L 1.296875 -10.265625 L 3.015625 -10.265625 L 3.015625 0 Z M 1.296875 0" transform="translate(221.537 307.191)"/></g></g><g><g><path d="M 10 -5.140625 C 10 -3.347656 9.601562 -2.007812 8.8125 -1.125 C 8.019531 -0.25 6.867188 0.1875 5.359375 0.1875 C 3.859375 0.1875 2.722656 -0.265625 1.953125 -1.171875 C 1.191406 -2.085938 0.8125 -3.410156 0.8125 -5.140625 C 0.8125 -8.679688 2.347656 -10.453125 5.421875 -10.453125 C 6.984375 -10.453125 8.132812 -10.019531 8.875 -9.15625 C 9.625 -8.300781 10 -6.960938 10 -5.140625 Z M 8.203125 -5.140625 C 8.203125 -6.554688 7.988281 -7.585938 7.5625 -8.234375 C 7.144531 -8.878906 6.441406 -9.203125 5.453125 -9.203125 C 4.453125 -9.203125 3.726562 -8.875 3.28125 -8.21875 C 2.832031 -7.5625 2.609375 -6.535156 2.609375 -5.140625 C 2.609375 -3.785156 2.828125 -2.769531 3.265625 -2.09375 C 3.703125 -1.414062 4.394531 -1.078125 5.34375 -1.078125 C 6.363281 -1.078125 7.09375 -1.40625 7.53125 -2.0625 C 7.976562 -2.71875 8.203125 -3.742188 8.203125 -5.140625 Z M 8.203125 -5.140625" transform="translate(225.856 307.191)"/></g></g><g><g><path d="M 7.828125 0 L 7.828125 -6.515625 C 7.828125 -7.191406 7.757812 -7.710938 7.625 -8.078125 C 7.5 -8.453125 7.289062 -8.722656 7 -8.890625 C 6.707031 -9.054688 6.28125 -9.140625 5.71875 -9.140625 C 4.894531 -9.140625 4.242188 -8.859375 3.765625 -8.296875 C 3.296875 -7.734375 3.0625 -6.953125 3.0625 -5.953125 L 3.0625 0 L 1.34375 0 L 1.34375 -8.078125 C 1.34375 -9.273438 1.328125 -10.003906 1.296875 -10.265625 L 2.90625 -10.265625 C 2.90625 -10.234375 2.910156 -10.144531 2.921875 -10 C 2.929688 -9.863281 2.941406 -9.707031 2.953125 -9.53125 C 2.960938 -9.351562 2.972656 -9.015625 2.984375 -8.515625 L 3.015625 -8.515625 C 3.398438 -9.222656 3.847656 -9.722656 4.359375 -10.015625 C 4.878906 -10.304688 5.523438 -10.453125 6.296875 -10.453125 C 7.421875 -10.453125 8.242188 -10.171875 8.765625 -9.609375 C 9.285156 -9.054688 9.546875 -8.132812 9.546875 -6.84375 L 9.546875 0 Z M 7.828125 0" transform="translate(236.667 307.191)"/></g></g></g></svg>