<svg width="542" height="542" viewBox="0 0 542 542" fill="none" xmlns="http://www.w3.org/2000/svg">
<path fill-rule="evenodd" clip-rule="evenodd" d="M239.606 1.61122C177.048 8.74905 117.519 38.7358 73.3366 85.3713C60.4331 98.9901 56.6191 104.364 56.6191 108.927C56.6191 115.056 61.2083 121.329 65.6941 121.329C75.2488 121.329 90.5254 128.589 100.895 138.056C116.878 152.652 128.43 170.978 154.04 222.376C166.483 247.348 180.362 272.099 185.613 278.683C219.416 321.068 264.406 306.706 309.724 239.06C325.745 215.147 339.467 187.513 355.366 147.146C373.966 99.9195 386.043 79.3384 406.804 59.4801C419.445 47.3896 416.125 40.6173 391.533 28.3368C346.255 5.72332 290.114 -4.1511 239.606 1.61122ZM459.786 113.301C438.629 121.736 422.457 147.02 382.653 233.89C336.265 335.131 320.099 362.497 289.757 391.162C272.322 407.635 259.848 413.125 237.5 414.164C202.312 415.8 177.406 402.449 155.808 370.374C145.081 354.444 136.041 330.767 121.711 281.073C99.7142 204.785 90.6639 192.083 59.722 194.066C31.8974 195.851 14.2496 210.566 4.52963 240.086C0.581269 252.08 -0.183598 258.59 0.0334589 278.295C1.39575 401.838 92.8448 511.46 215.31 536.358C270.585 547.595 326.363 541.986 377.237 520.073C467.871 481.033 529.817 396.854 540.668 297.984C548.67 225.081 519.545 134.033 482.123 114.959C473.624 110.626 467.611 110.18 459.786 113.301Z" fill="black"/>
</svg>
