<?xml version="1.0" encoding="utf-8"?>
<!-- Generator: Adobe Illustrator 26.0.3, SVG Export Plug-In . SVG Version: 6.00 Build 0)  -->
<svg version="1.1" id="Layer_1" xmlns="http://www.w3.org/2000/svg" xmlns:xlink="http://www.w3.org/1999/xlink" x="0px" y="0px"
	 viewBox="0 0 189.95 148.34" style="enable-background:new 0 0 189.95 148.34;" xml:space="preserve">
<style type="text/css">
	.st0{fill:#7A4B9E;}
	.st1{fill:#4ABFAA;}
	.st2{fill:#DE266A;}
	.st3{fill:#3A54A5;}
</style>
<g>
	<g>
		<polygon class="st0" points="40.48,58.88 38.13,56.68 92.59,26.63 92.59,29.52 		"/>
	</g>
	<g>
		<polygon class="st1" points="50.74,64.07 48.4,61.88 92.59,37.54 92.59,40.43 		"/>
	</g>
	<g>
		<polygon class="st2" points="62.61,69.47 59.52,67.81 92.59,49.49 92.59,52.37 		"/>
	</g>
	<g>
		<polygon class="st3" points="72.34,74.92 69.25,73.26 92.59,60.39 92.59,63.28 		"/>
	</g>
	<polygon class="st3" points="148.95,57.39 92.59,26.62 92.59,29.52 148.95,60.55 	"/>
	<polygon class="st2" points="148.95,68.29 92.59,37.53 92.59,40.42 148.95,71.45 	"/>
	<polygon class="st0" points="148.95,80.24 92.59,49.47 92.59,52.37 148.95,83.4 	"/>
	<polygon class="st1" points="148.95,91.14 92.59,60.38 92.59,63.28 148.95,94.3 	"/>
	<g>
		<polygon class="st0" points="146.61,97.75 148.95,99.95 94.49,130 94.49,127.11 		"/>
	</g>
	<g>
		<polygon class="st1" points="136.34,92.56 138.68,94.75 94.49,119.09 94.49,116.21 		"/>
	</g>
	<g>
		<polygon class="st2" points="124.47,87.17 127.56,88.83 94.49,107.15 94.49,104.26 		"/>
	</g>
	<g>
		<polygon class="st3" points="114.75,81.71 117.83,83.37 94.49,96.24 94.49,93.35 		"/>
	</g>
	<polygon class="st3" points="38.13,99.24 94.49,130.01 94.49,127.11 38.13,96.08 	"/>
	<polygon class="st2" points="38.13,88.34 94.49,119.1 94.49,116.21 38.13,85.18 	"/>
	<polygon class="st0" points="38.13,76.39 94.49,107.16 94.49,104.26 38.13,73.23 	"/>
	<polygon class="st1" points="38.13,65.49 94.49,96.25 94.49,93.36 38.13,62.33 	"/>
</g>
</svg>
