<svg width="500" height="500" viewBox="0 0 500 500" fill="none" xmlns="http://www.w3.org/2000/svg">
<path fill-rule="evenodd" clip-rule="evenodd" d="M229.298 0.484511C214.779 2.13951 206.925 3.30351 198.798 5.00551C149.241 15.3865 104.698 40.1605 69.2241 77.0735C51.9971 94.9995 49.3211 100.268 53.7541 107.539C55.7881 110.874 57.7221 111.655 68.9591 113.68C85.5621 116.671 100.41 129.827 116.739 156.014C123.674 167.137 138.817 196.583 150.833 222.311C167.214 257.389 183.732 274.946 204.164 279.001C225.14 283.163 251.423 267.469 274.808 236.814C294.769 210.648 314.215 174.101 327.735 137.343C343.356 94.8745 351.425 80.4695 370.891 60.3065C382.857 47.9125 384.157 45.2295 381.128 39.1755C379.01 34.9395 372.085 30.6715 353.636 22.2295C329.944 11.3885 300.348 3.42551 274.374 0.903511C264.353 -0.0694885 236.435 -0.329489 229.298 0.484511ZM420.747 105.556C409.407 111.207 396.442 127.498 381.922 154.343C374.902 167.321 367.407 183.274 345.277 232.343C315.124 299.198 294.559 334.028 271.799 356.788C252.694 375.893 233.483 384.087 211.662 382.439C188.84 380.716 170.395 372.032 155.85 356.158C138.593 337.325 128.308 314.057 113.716 260.842C105.293 230.124 100.73 215.986 95.8031 205.343C89.0721 190.804 80.2261 181.623 70.2591 178.832C63.8481 177.037 49.0791 178.085 40.3881 180.951C13.2521 189.9 -1.94888 220.465 0.201115 261.757C2.87812 313.18 19.9151 360.031 51.1281 401.81C60.3871 414.204 85.6581 439.468 98.0101 448.681C133.317 475.016 170.086 490.528 213.379 497.353C227.559 499.588 256.794 500.373 272.369 498.936C314.048 495.092 352.632 481.396 388.071 457.866C440.072 423.34 478.183 369.361 492.665 309.727C498.381 286.188 499.295 277.806 499.249 249.343C499.203 220.715 497.801 208.83 491.806 186.264C480.705 144.48 463.393 114.796 444.687 105.475C437.233 101.761 428.302 101.791 420.747 105.556Z" fill="#9F1C35"/>
</svg>
